SplineFontDB: 3.0
FontName: ElaineSans-ExtraLightItalic
FullName: Elaine Sans ExtraLight Italic
FamilyName: Elaine Sans ExtraLight
Weight: ExtraLight
Copyright: Copyright (c) 2015 by Wei Huang. All rights reserved.
Version: 1.030;PS 001.030;hotconv 1.0.70;makeotf.lib2.5.58329
ItalicAngle: -13
UnderlinePosition: -250
UnderlineWidth: 50
Ascent: 760
Descent: 240
InvalidEm: 0
sfntRevision: 0x000107ae
LayerCount: 2
Layer: 0 1 "Back" 1
Layer: 1 1 "Fore" 0
XUID: [1021 288 1899785369 6841]
StyleMap: 0x0001
FSType: 4
OS2Version: 3
OS2_WeightWidthSlopeOnly: 0
OS2_UseTypoMetrics: 0
CreationTime: 1436215488
ModificationTime: 1543787474
PfmFamily: 81
TTFWeight: 200
TTFWidth: 5
LineGap: 0
VLineGap: 0
Panose: 0 0 3 0 0 0 0 0 0 0
OS2TypoAscent: 760
OS2TypoAOffset: 0
OS2TypoDescent: -240
OS2TypoDOffset: 0
OS2TypoLinegap: 173
OS2WinAscent: 930
OS2WinAOffset: 0
OS2WinDescent: 243
OS2WinDOffset: 0
HheadAscent: 930
HheadAOffset: 0
HheadDescent: -243
HheadDOffset: 0
OS2SubXSize: 650
OS2SubYSize: 600
OS2SubXOff: 0
OS2SubYOff: 75
OS2SupXSize: 650
OS2SupYSize: 600
OS2SupXOff: 0
OS2SupYOff: 350
OS2StrikeYSize: 50
OS2StrikeYPos: 300
OS2CapHeight: 660
OS2XHeight: 500
OS2Vendor: 'UKWN'
OS2CodePages: 20000093.00000000
OS2UnicodeRanges: 00000007.00000001.00000000.00000000
Lookup: 1 0 0 "'aalt' Access All Alternates lookup 0" { "'aalt' Access All Alternates lookup 0 subtable"  } ['aalt' ('DFLT' <'dflt' > 'grek' <'dflt' > 'latn' <'CAT ' 'MOL ' 'NLD ' 'ROM ' 'TRK ' 'dflt' > ) ]
Lookup: 3 0 0 "'aalt' Access All Alternates lookup 1" { "'aalt' Access All Alternates lookup 1 subtable"  } ['aalt' ('DFLT' <'dflt' > 'grek' <'dflt' > 'latn' <'CAT ' 'MOL ' 'NLD ' 'ROM ' 'TRK ' 'dflt' > ) ]
Lookup: 1 0 0 "'locl' Localized Forms in Latin lookup 2" { "'locl' Localized Forms in Latin lookup 2 subtable"  } ['locl' ('latn' <'TRK ' > ) ]
Lookup: 1 0 0 "'locl' Localized Forms in Latin lookup 3" { "'locl' Localized Forms in Latin lookup 3 subtable"  } ['locl' ('latn' <'TAT ' > ) ]

StartChar: .notdef
Encoding: 65536 -1 0
Width: 500
Flags: W
LayerCount: 2
Fore
SplineSet
50 0 m 1,0,-1
 202.373046875 660 l 1,1,-1
 602.373046875 660 l 1,2,-1
 450 0 l 1,3,-1
 50 0 l 1,0,-1
148.469726562 80 m 1,4,-1
 388.469726562 80 l 1,5,-1
 503.903320312 580 l 1,6,-1
 263.903320312 580 l 1,7,-1
 148.469726562 80 l 1,4,-1
EndSplineSet
EndChar

StartChar: exclam
Encoding: 33 33 4
Width: 217
GlyphClass: 2
Flags: W
LayerCount: 2
Fore
SplineSet
282.373046875 660 m 1,0,-1
 206.186523438 330 l 1,1,-1
 167.7109375 185 l 1,2,-1
 134.7109375 185 l 1,3,-1
 163.186523438 330 l 1,4,-1
 239.373046875 660 l 1,5,-1
 282.373046875 660 l 1,0,-1
125.391601562 71 m 0,6,7
 142.391601562 71 142.391601562 71 150.352539062 60 c 128,-1,8
 158.3125 49 158.3125 49 154.387695312 32 c 128,-1,9
 150.462890625 15 150.462890625 15 137.423828125 4 c 128,-1,10
 124.383789062 -7 124.383789062 -7 107.383789062 -7 c 0,11,12
 89.3837890625 -7 89.3837890625 -7 81.423828125 4 c 128,-1,13
 73.462890625 15 73.462890625 15 77.3876953125 32 c 128,-1,14
 81.3125 49 81.3125 49 94.3525390625 60 c 128,-1,15
 107.391601562 71 107.391601562 71 125.391601562 71 c 0,6,7
EndSplineSet
Substitution2: "'smcp' Lowercase to Small Capitals lookup 12 subtable" exclam.sc
Substitution2: "'c2sc' Capitals to Small Capitals lookup 11 subtable" exclam.sc
Substitution2: "'aalt' Access All Alternates lookup 0 subtable" exclam.sc
EndChar

StartChar: quotedbl
Encoding: 34 34 5
Width: 304
GlyphClass: 2
Flags: W
LayerCount: 2
Fore
SplineSet
396.9140625 684 m 1,0,-1
 342.356445312 491 l 1,1,-1
 307.356445312 491 l 1,2,-1
 351.9140625 684 l 1,3,-1
 396.9140625 684 l 1,0,-1
274.9140625 684 m 1,4,-1
 220.356445312 491 l 1,5,-1
 185.356445312 491 l 1,6,-1
 229.9140625 684 l 1,7,-1
 274.9140625 684 l 1,4,-1
EndSplineSet
Substitution2: "'smcp' Lowercase to Small Capitals lookup 12 subtable" quotedbl.sc
Substitution2: "'c2sc' Capitals to Small Capitals lookup 11 subtable" quotedbl.sc
Substitution2: "'aalt' Access All Alternates lookup 0 subtable" quotedbl.sc
EndChar

StartChar: numbersign
Encoding: 35 35 6
Width: 604
GlyphClass: 2
Flags: W
LayerCount: 2
Fore
SplineSet
672.965820312 433 m 1,0,-1
 541.965820312 433 l 1,1,-1
 466.25390625 235 l 1,2,-1
 589.25390625 235 l 1,3,-1
 581.866210938 203 l 1,4,-1
 454.866210938 203 l 1,5,-1
 377 0 l 1,6,-1
 340 0 l 1,7,-1
 416.866210938 203 l 1,8,-1
 242.866210938 203 l 1,9,-1
 166 0 l 1,10,-1
 129 0 l 1,11,-1
 205.866210938 203 l 1,12,-1
 77.8662109375 203 l 1,13,-1
 85.25390625 235 l 1,14,-1
 218.25390625 235 l 1,15,-1
 293.965820312 433 l 1,16,-1
 168.965820312 433 l 1,17,-1
 176.353515625 465 l 1,18,-1
 306.353515625 465 l 1,19,-1
 380.373046875 660 l 1,20,-1
 417.373046875 660 l 1,21,-1
 343.353515625 465 l 1,22,-1
 517.353515625 465 l 1,23,-1
 591.373046875 660 l 1,24,-1
 629.373046875 660 l 1,25,-1
 554.353515625 465 l 1,26,-1
 680.353515625 465 l 1,27,-1
 672.965820312 433 l 1,0,-1
429.25390625 235 m 1,28,-1
 504.965820312 433 l 1,29,-1
 330.965820312 433 l 1,30,-1
 255.25390625 235 l 1,31,-1
 429.25390625 235 l 1,28,-1
EndSplineSet
Substitution2: "'tnum' Tabular Numbers lookup 26 subtable" numbersign.tf
Substitution2: "'aalt' Access All Alternates lookup 0 subtable" numbersign.tf
EndChar

StartChar: dollar
Encoding: 36 36 7
Width: 604
GlyphClass: 2
Flags: W
LayerCount: 2
Fore
SplineSet
581.708984375 172 m 0,0,1
 564.39453125 97 564.39453125 97 496.04296875 50 c 128,-1,2
 427.692382812 3 427.692382812 3 331 0 c 1,3,-1
 307.913085938 -100 l 1,4,-1
 272.913085938 -100 l 1,5,-1
 296.23046875 1 l 1,6,7
 212.384765625 6 212.384765625 6 164.54296875 50 c 128,-1,8
 116.701171875 94 116.701171875 94 113.478515625 171 c 1,9,-1
 156.095703125 191 l 1,10,11
 153.627929688 124 153.627929688 124 194.162109375 83 c 128,-1,12
 234.696289062 42 234.696289062 42 304.311523438 36 c 1,13,-1
 368.26171875 313 l 1,14,15
 322.5703125 323 322.5703125 323 296.1484375 332 c 128,-1,16
 269.725585938 341 269.725585938 341 240.497070312 359.5 c 128,-1,17
 211.268554688 378 211.268554688 378 202.079101562 407.5 c 128,-1,18
 192.889648438 437 192.889648438 437 202.81640625 480 c 0,19,20
 219.439453125 552 219.439453125 552 286.944335938 604 c 128,-1,21
 354.44921875 656 354.44921875 656 448.373046875 660 c 1,22,-1
 471.459960938 760 l 1,23,-1
 506.459960938 760 l 1,24,-1
 483.142578125 659 l 1,25,26
 635.526367188 652 635.526367188 652 654.897460938 515 c 1,27,-1
 615.89453125 489 l 1,28,29
 610.131835938 555 610.131835938 555 576.134765625 587.5 c 128,-1,30
 542.138671875 620 542.138671875 620 475.061523438 624 c 1,31,-1
 409.95703125 342 l 1,32,33
 448.110351562 334 448.110351562 334 469.724609375 328 c 128,-1,34
 491.33984375 322 491.33984375 322 520.72265625 308.5 c 128,-1,35
 550.106445312 295 550.106445312 295 563.296875 278.5 c 128,-1,36
 576.487304688 262 576.487304688 262 583.25390625 235 c 128,-1,37
 590.020507812 208 590.020507812 208 581.708984375 172 c 0,0,1
243.278320312 482 m 0,38,39
 229.426757812 422 229.426757812 422 264.961914062 394 c 128,-1,40
 300.498046875 366 300.498046875 366 376.573242188 349 c 1,41,-1
 440.29296875 625 l 1,42,43
 362.369140625 621 362.369140625 621 309.865234375 582 c 128,-1,44
 257.361328125 543 257.361328125 543 243.278320312 482 c 0,38,39
338.849609375 34 m 1,45,46
 416.311523438 36 416.311523438 36 472.006835938 71.5 c 128,-1,47
 527.703125 107 527.703125 107 542.248046875 170 c 0,48,49
 548.25 196 548.25 196 543.598632812 217 c 128,-1,50
 538.946289062 238 538.946289062 238 527.448242188 251 c 128,-1,51
 515.94921875 264 515.94921875 264 493.98828125 275 c 128,-1,52
 472.028320312 286 472.028320312 286 451.913085938 292 c 128,-1,53
 431.798828125 298 431.798828125 298 401.415039062 305 c 1,54,-1
 338.849609375 34 l 1,45,46
EndSplineSet
Substitution2: "'tnum' Tabular Numbers lookup 26 subtable" dollar.tf
Substitution2: "'aalt' Access All Alternates lookup 0 subtable" dollar.tf
EndChar

StartChar: percent
Encoding: 37 37 8
Width: 794
GlyphClass: 2
Flags: W
LayerCount: 2
Fore
SplineSet
339.296875 664 m 128,-1,1
 409.296875 664 409.296875 664 435.868164062 614.5 c 128,-1,2
 462.440429688 565 462.440429688 565 445.125 490 c 0,3,4
 428.041015625 416 428.041015625 416 378.84375 367.5 c 128,-1,5
 329.646484375 319 329.646484375 319 259.646484375 319 c 128,-1,6
 189.646484375 319 189.646484375 319 162.34375 367.5 c 128,-1,7
 135.041015625 416 135.041015625 416 152.125 490 c 0,8,9
 169.440429688 565 169.440429688 565 219.368164062 614.5 c 128,-1,0
 269.296875 664 269.296875 664 339.296875 664 c 128,-1,1
158 0 m 1,10,-1
 747.373046875 660 l 1,11,-1
 788.373046875 660 l 1,12,-1
 199 0 l 1,13,-1
 158 0 l 1,10,-1
331.677734375 631 m 128,-1,15
 278.677734375 631 278.677734375 631 241.55859375 591.5 c 128,-1,16
 204.439453125 552 204.439453125 552 190.125 490 c 0,17,18
 176.041992188 429 176.041992188 429 195.154296875 390.5 c 128,-1,19
 214.265625 352 214.265625 352 267.265625 352 c 0,20,21
 321.265625 352 321.265625 352 357.5390625 390 c 128,-1,22
 393.811523438 428 393.811523438 428 408.125 490 c 128,-1,23
 422.439453125 552 422.439453125 552 403.55859375 591.5 c 128,-1,14
 384.677734375 631 384.677734375 631 331.677734375 631 c 128,-1,15
687.725585938 341 m 0,24,25
 757.725585938 341 757.725585938 341 784.413085938 292 c 128,-1,26
 811.100585938 243 811.100585938 243 793.786132812 168 c 0,27,28
 776.701171875 94 776.701171875 94 727.388671875 45 c 128,-1,29
 678.076171875 -4 678.076171875 -4 608.076171875 -4 c 0,30,31
 537.076171875 -4 537.076171875 -4 509.888671875 45 c 128,-1,32
 482.701171875 94 482.701171875 94 499.786132812 168 c 0,33,34
 517.100585938 243 517.100585938 243 566.913085938 292 c 128,-1,35
 616.725585938 341 616.725585938 341 687.725585938 341 c 0,24,25
680.107421875 308 m 0,36,37
 626.107421875 308 626.107421875 308 589.103515625 269 c 128,-1,38
 552.099609375 230 552.099609375 230 537.786132812 168 c 128,-1,39
 523.471679688 106 523.471679688 106 542.583984375 67.5 c 128,-1,40
 561.6953125 29 561.6953125 29 615.6953125 29 c 0,41,42
 668.6953125 29 668.6953125 29 705.583984375 67.5 c 128,-1,43
 742.471679688 106 742.471679688 106 756.786132812 168 c 128,-1,44
 771.099609375 230 771.099609375 230 752.103515625 269 c 128,-1,45
 733.107421875 308 733.107421875 308 680.107421875 308 c 0,36,37
EndSplineSet
EndChar

StartChar: ampersand
Encoding: 38 38 9
Width: 592
GlyphClass: 2
Flags: W
LayerCount: 2
Fore
SplineSet
488.241210938 105 m 1,0,1
 520.928710938 56 520.928710938 56 545.388671875 38.5 c 128,-1,2
 569.848632812 21 569.848632812 21 602.848632812 21 c 1,3,-1
 586.69140625 -10 l 1,4,5
 549.69140625 -10 549.69140625 -10 522.461914062 8.5 c 128,-1,6
 495.233398438 27 495.233398438 27 460.776367188 77 c 1,7,8
 364.69140625 -10 364.69140625 -10 240.69140625 -10 c 0,9,10
 154.69140625 -10 154.69140625 -10 109.234375 33.5 c 128,-1,11
 63.7763671875 77 63.7763671875 77 80.1689453125 148 c 0,12,13
 95.63671875 215 95.63671875 215 146.987304688 262 c 128,-1,14
 198.337890625 309 198.337890625 309 298.881835938 359 c 1,15,16
 264.657226562 423 264.657226562 423 255.122070312 457.5 c 128,-1,17
 245.586914062 492 245.586914062 492 254.12890625 529 c 0,18,19
 267.981445312 589 267.981445312 589 316.600585938 628.5 c 128,-1,20
 365.219726562 668 365.219726562 668 432.219726562 668 c 0,21,22
 494.219726562 668 494.219726562 668 526.6015625 635 c 128,-1,23
 558.982421875 602 558.982421875 602 545.361328125 543 c 0,24,25
 532.432617188 487 532.432617188 487 490.774414062 443 c 128,-1,26
 449.116210938 399 449.116210938 399 350.573242188 349 c 1,27,28
 357.340820312 335 357.340820312 335 374.299804688 304.5 c 128,-1,29
 391.2578125 274 391.2578125 274 399.025390625 260 c 0,30,31
 437.94140625 186 437.94140625 186 471.474609375 132 c 1,32,33
 551.71484375 224 551.71484375 224 578.57421875 362 c 1,34,-1
 612.881835938 359 l 1,35,36
 581.020507812 208 581.020507812 208 488.241210938 105 c 1,0,1
423.909179688 632 m 0,37,38
 374.909179688 632 374.909179688 632 339.444335938 604 c 128,-1,39
 303.98046875 576 303.98046875 576 293.360351562 530 c 0,40,41
 285.97265625 498 285.97265625 498 293.5078125 470 c 128,-1,42
 301.043945312 442 301.043945312 442 336.037109375 377 c 1,43,44
 423.96484375 420 423.96484375 420 460.622070312 457.5 c 128,-1,45
 497.279296875 495 497.279296875 495 508.130859375 542 c 0,46,47
 517.827148438 584 517.827148438 584 494.868164062 608 c 128,-1,48
 471.909179688 632 471.909179688 632 423.909179688 632 c 0,37,38
245.541015625 24 m 0,49,50
 357.541015625 24 357.541015625 24 443.779296875 103 c 1,51,52
 431.166015625 122 431.166015625 122 366.485351562 236 c 0,53,54
 354.564453125 258 354.564453125 258 333.875 294 c 2,55,-1
 314.416992188 331 l 1,56,57
 220.56640625 284 220.56640625 284 176.5625 245 c 128,-1,58
 132.55859375 206 132.55859375 206 119.629882812 150 c 0,59,60
 106.470703125 93 106.470703125 93 143.005859375 58.5 c 128,-1,61
 179.541015625 24 179.541015625 24 245.541015625 24 c 0,49,50
EndSplineSet
Substitution2: "'smcp' Lowercase to Small Capitals lookup 12 subtable" ampersand.sc
Substitution2: "'c2sc' Capitals to Small Capitals lookup 11 subtable" ampersand.sc
Substitution2: "'aalt' Access All Alternates lookup 0 subtable" ampersand.sc
EndChar

StartChar: quotesingle
Encoding: 39 39 10
Width: 182
GlyphClass: 2
Flags: W
LayerCount: 2
Fore
SplineSet
274.9140625 684 m 1,0,-1
 220.356445312 491 l 1,1,-1
 185.356445312 491 l 1,2,-1
 229.9140625 684 l 1,3,-1
 274.9140625 684 l 1,0,-1
EndSplineSet
Substitution2: "'smcp' Lowercase to Small Capitals lookup 12 subtable" quotesingle.sc
Substitution2: "'c2sc' Capitals to Small Capitals lookup 11 subtable" quotesingle.sc
Substitution2: "'aalt' Access All Alternates lookup 0 subtable" quotesingle.sc
EndChar

StartChar: parenleft
Encoding: 40 40 11
Width: 291
GlyphClass: 2
Flags: W
LayerCount: 2
Fore
SplineSet
422.765625 744 m 1,0,-1
 440.224609375 720 l 1,1,2
 328.524414062 639 328.524414062 639 262.399414062 534.5 c 128,-1,3
 196.2734375 430 196.2734375 430 162.3359375 283 c 0,4,5
 128.62890625 137 128.62890625 137 146.387695312 32 c 128,-1,6
 164.146484375 -73 164.146484375 -73 238.676757812 -153 c 1,7,-1
 210.13671875 -177 l 1,8,9
 53.69140625 -10 53.69140625 -10 121.3359375 283 c 0,10,11
 189.2109375 577 189.2109375 577 422.765625 744 c 1,0,-1
EndSplineSet
Substitution2: "'case' Case-Sensitive Forms lookup 29 subtable" parenleft.case
Substitution2: "'sups' Superscript lookup 15 subtable" uni207D
Substitution2: "'subs' Subscript lookup 14 subtable" uni208D
Substitution2: "'sinf' Scientific Inferiors lookup 13 subtable" uni208D
AlternateSubs2: "'aalt' Access All Alternates lookup 1 subtable" uni208D uni207D parenleft.case
EndChar

StartChar: parenright
Encoding: 41 41 12
Width: 291
GlyphClass: 2
Flags: W
LayerCount: 2
Fore
SplineSet
211.765625 744 m 1,0,1
 368.2109375 577 368.2109375 577 300.3359375 283 c 0,2,3
 232.69140625 -10 232.69140625 -10 -0.86328125 -177 c 1,4,-1
 -18.3232421875 -153 l 1,5,6
 93.146484375 -73 93.146484375 -73 159.387695312 32 c 128,-1,7
 225.62890625 137 225.62890625 137 259.3359375 283 c 0,8,9
 293.2734375 430 293.2734375 430 275.399414062 534.5 c 128,-1,10
 257.524414062 639 257.524414062 639 183.224609375 720 c 1,11,-1
 211.765625 744 l 1,0,1
EndSplineSet
Substitution2: "'case' Case-Sensitive Forms lookup 29 subtable" parenright.case
Substitution2: "'sups' Superscript lookup 15 subtable" uni207E
Substitution2: "'subs' Subscript lookup 14 subtable" uni208E
Substitution2: "'sinf' Scientific Inferiors lookup 13 subtable" uni208E
AlternateSubs2: "'aalt' Access All Alternates lookup 1 subtable" uni208E uni207E parenright.case
EndChar

StartChar: asterisk
Encoding: 42 42 13
Width: 534
GlyphClass: 2
Flags: W
LayerCount: 2
Fore
SplineSet
402.434570312 500 m 1,0,-1
 438.58203125 440 l 1,1,-1
 490.340820312 335 l 1,2,-1
 457.723632812 315 l 1,3,-1
 404.502929688 418 l 1,4,-1
 378.970703125 485 l 1,5,-1
 322.502929688 418 l 1,6,-1
 222.723632812 315 l 1,7,-1
 198.340820312 335 l 1,8,-1
 298.58203125 440 l 1,9,-1
 362.434570312 500 l 1,10,-1
 290.8203125 519 l 1,11,-1
 178.055664062 559 l 1,12,-1
 195.673828125 592 l 1,13,-1
 309.669921875 553 l 1,14,-1
 375.744140625 523 l 1,15,-1
 387.751953125 601 l 1,16,-1
 417.534179688 730 l 1,17,-1
 453.534179688 730 l 1,18,-1
 423.751953125 601 l 1,19,-1
 399.744140625 523 l 1,20,-1
 479.669921875 553 l 1,21,-1
 611.673828125 592 l 1,22,-1
 614.055664062 559 l 1,23,-1
 482.8203125 519 l 1,24,-1
 402.434570312 500 l 1,0,-1
EndSplineSet
EndChar

StartChar: plus
Encoding: 43 43 14
Width: 604
GlyphClass: 2
Flags: W
LayerCount: 2
Fore
SplineSet
615.340820312 335 m 1,0,-1
 606.567382812 297 l 1,1,-1
 390.567382812 297 l 1,2,-1
 339.315429688 75 l 1,3,-1
 300.315429688 75 l 1,4,-1
 351.567382812 297 l 1,5,-1
 134.567382812 297 l 1,6,-1
 143.340820312 335 l 1,7,-1
 360.340820312 335 l 1,8,-1
 410.439453125 552 l 1,9,-1
 449.439453125 552 l 1,10,-1
 399.340820312 335 l 1,11,-1
 615.340820312 335 l 1,0,-1
EndSplineSet
Substitution2: "'sups' Superscript lookup 15 subtable" uni207A
Substitution2: "'subs' Subscript lookup 14 subtable" uni208A
Substitution2: "'sinf' Scientific Inferiors lookup 13 subtable" uni208A
AlternateSubs2: "'aalt' Access All Alternates lookup 1 subtable" uni208A uni207A
EndChar

StartChar: comma
Encoding: 44 44 15
Width: 302
GlyphClass: 2
Flags: W
LayerCount: 2
Fore
SplineSet
169.391601562 71 m 0,0,1
 192.391601562 71 192.391601562 71 201.620117188 52.5 c 128,-1,2
 210.849609375 34 210.849609375 34 204.154296875 5 c 0,3,4
 195.150390625 -34 195.150390625 -34 167.185546875 -68.5 c 128,-1,5
 139.220703125 -103 139.220703125 -103 95.833984375 -122 c 1,6,-1
 76.451171875 -102 l 1,7,8
 113.453125 -89 113.453125 -89 141.724609375 -57.5 c 128,-1,9
 169.997070312 -26 169.997070312 -26 172.461914062 2 c 1,10,-1
 169.692382812 3 l 1,11,12
 162.383789062 -7 162.383789062 -7 146.383789062 -7 c 0,13,14
 132.383789062 -7 132.383789062 -7 124.807617188 3.5 c 128,-1,15
 117.232421875 14 117.232421875 14 121.157226562 31 c 0,16,17
 124.850585938 47 124.850585938 47 139.12109375 59 c 128,-1,18
 153.391601562 71 153.391601562 71 169.391601562 71 c 0,0,1
EndSplineSet
Substitution2: "'tnum' Tabular Numbers lookup 26 subtable" comma.tf
Substitution2: "'sups' Superscript lookup 15 subtable" commasuperior
Substitution2: "'subs' Subscript lookup 14 subtable" commainferior
Substitution2: "'sinf' Scientific Inferiors lookup 13 subtable" commainferior
AlternateSubs2: "'aalt' Access All Alternates lookup 1 subtable" commainferior commasuperior comma.tf
EndChar

StartChar: hyphen
Encoding: 45 45 16
Width: 453
GlyphClass: 2
Flags: W
LayerCount: 2
Fore
SplineSet
443.490234375 288 m 1,0,-1
 433.793945312 246 l 1,1,-1
 133.793945312 246 l 1,2,-1
 143.490234375 288 l 1,3,-1
 443.490234375 288 l 1,0,-1
EndSplineSet
Substitution2: "'case' Case-Sensitive Forms lookup 29 subtable" hyphen.case
Substitution2: "'sups' Superscript lookup 15 subtable" hyphensuperior
Substitution2: "'subs' Subscript lookup 14 subtable" hypheninferior
Substitution2: "'sinf' Scientific Inferiors lookup 13 subtable" hypheninferior
AlternateSubs2: "'aalt' Access All Alternates lookup 1 subtable" hypheninferior hyphensuperior hyphen.case
EndChar

StartChar: period
Encoding: 46 46 17
Width: 302
GlyphClass: 2
Flags: W
LayerCount: 2
Fore
SplineSet
167.391601562 71 m 128,-1,1
 184.391601562 71 184.391601562 71 192.852539062 60 c 128,-1,2
 201.3125 49 201.3125 49 197.387695312 32 c 128,-1,3
 193.462890625 15 193.462890625 15 179.923828125 4 c 128,-1,4
 166.383789062 -7 166.383789062 -7 149.383789062 -7 c 128,-1,5
 132.383789062 -7 132.383789062 -7 123.923828125 4 c 128,-1,6
 115.462890625 15 115.462890625 15 119.387695312 32 c 128,-1,7
 123.3125 49 123.3125 49 136.852539062 60 c 128,-1,0
 150.391601562 71 150.391601562 71 167.391601562 71 c 128,-1,1
EndSplineSet
Substitution2: "'tnum' Tabular Numbers lookup 26 subtable" period.tf
Substitution2: "'sups' Superscript lookup 15 subtable" periodsuperior
Substitution2: "'subs' Subscript lookup 14 subtable" periodinferior
Substitution2: "'sinf' Scientific Inferiors lookup 13 subtable" periodinferior
AlternateSubs2: "'aalt' Access All Alternates lookup 1 subtable" periodinferior periodsuperior period.tf
EndChar

StartChar: slash
Encoding: 47 47 18
Width: 384
GlyphClass: 2
Flags: W
LayerCount: 2
Fore
SplineSet
519.534179688 730 m 1,0,-1
 55.8388671875 -70 l 1,1,-1
 15.8388671875 -70 l 1,2,-1
 479.534179688 730 l 1,3,-1
 519.534179688 730 l 1,0,-1
EndSplineSet
Substitution2: "'frac' Diagonal Fractions lookup 18 subtable" fraction
Substitution2: "'aalt' Access All Alternates lookup 0 subtable" fraction
EndChar

StartChar: zero
Encoding: 48 48 19
Width: 604
GlyphClass: 2
Flags: W
LayerCount: 2
Fore
SplineSet
299.69140625 -10 m 128,-1,1
 183.69140625 -10 183.69140625 -10 142.392578125 77.5 c 128,-1,2
 101.092773438 165 101.092773438 165 139.186523438 330 c 128,-1,3
 177.279296875 495 177.279296875 495 258.98046875 582.5 c 128,-1,4
 340.681640625 670 340.681640625 670 456.681640625 670 c 128,-1,5
 572.681640625 670 572.681640625 670 613.98046875 582.5 c 128,-1,6
 655.279296875 495 655.279296875 495 617.186523438 330 c 128,-1,7
 579.092773438 165 579.092773438 165 497.392578125 77.5 c 128,-1,0
 415.69140625 -10 415.69140625 -10 299.69140625 -10 c 128,-1,1
308.233398438 27 m 128,-1,9
 403.233398438 27 403.233398438 27 472.241210938 105 c 128,-1,10
 541.249023438 183 541.249023438 183 575.186523438 330 c 128,-1,11
 609.124023438 477 609.124023438 477 576.131835938 555 c 128,-1,12
 543.139648438 633 543.139648438 633 448.139648438 633 c 128,-1,13
 353.139648438 633 353.139648438 633 284.131835938 555 c 128,-1,14
 215.124023438 477 215.124023438 477 181.186523438 330 c 128,-1,15
 147.249023438 183 147.249023438 183 180.241210938 105 c 128,-1,8
 213.233398438 27 213.233398438 27 308.233398438 27 c 128,-1,9
EndSplineSet
Substitution2: "'zero' Slashed Zero lookup 28 subtable" zero.zero
Substitution2: "'onum' Oldstyle Figures lookup 27 subtable" zero.osf
Substitution2: "'tnum' Tabular Numbers lookup 26 subtable" zero.tf
Substitution2: "'frac' Diagonal Fractions lookup 19 subtable" zero.numr
Substitution2: "'dnom' Denominators lookup 17 subtable" zero.dnom
Substitution2: "'numr' Numerators lookup 16 subtable" zero.numr
Substitution2: "'sups' Superscript lookup 15 subtable" uni2070
Substitution2: "'subs' Subscript lookup 14 subtable" uni2080
Substitution2: "'sinf' Scientific Inferiors lookup 13 subtable" uni2080
Substitution2: "'smcp' Lowercase to Small Capitals lookup 12 subtable" zero.sc
Substitution2: "'c2sc' Capitals to Small Capitals lookup 11 subtable" zero.sc
AlternateSubs2: "'aalt' Access All Alternates lookup 1 subtable" zero.sc uni2080 uni2070 zero.numr zero.dnom zero.tf zero.osf zero.zero
EndChar

StartChar: one
Encoding: 49 49 20
Width: 604
GlyphClass: 2
Flags: W
LayerCount: 2
Fore
SplineSet
368.541992188 37 m 1,0,-1
 556.541992188 37 l 1,1,-1
 548 0 l 1,2,-1
 110 0 l 1,3,-1
 118.541992188 37 l 1,4,-1
 327.541992188 37 l 1,5,-1
 442.745117188 536 l 2,6,7
 445.053710938 546 445.053710938 546 450.979492188 569.5 c 128,-1,8
 456.905273438 593 456.905273438 593 459.674804688 605 c 1,9,10
 414.209960938 564 414.209960938 564 346.62890625 529 c 128,-1,11
 279.048828125 494 279.048828125 494 221.35546875 478 c 1,12,-1
 219.127929688 516 l 1,13,14
 279.052734375 533 279.052734375 533 360.249023438 575 c 128,-1,15
 441.4453125 617 441.4453125 617 475.373046875 660 c 1,16,-1
 512.373046875 660 l 1,17,-1
 368.541992188 37 l 1,0,-1
EndSplineSet
Substitution2: "'onum' Oldstyle Figures lookup 27 subtable" one.osf
Substitution2: "'tnum' Tabular Numbers lookup 26 subtable" one.tf
Substitution2: "'nalt' Alternate Annotation Forms lookup 23 subtable" uni2780
Substitution2: "'frac' Diagonal Fractions lookup 19 subtable" one.numr
Substitution2: "'dnom' Denominators lookup 17 subtable" one.dnom
Substitution2: "'numr' Numerators lookup 16 subtable" one.numr
Substitution2: "'sups' Superscript lookup 15 subtable" uni00B9
Substitution2: "'subs' Subscript lookup 14 subtable" uni2081
Substitution2: "'sinf' Scientific Inferiors lookup 13 subtable" uni2081
Substitution2: "'smcp' Lowercase to Small Capitals lookup 12 subtable" one.sc
Substitution2: "'c2sc' Capitals to Small Capitals lookup 11 subtable" one.sc
AlternateSubs2: "'aalt' Access All Alternates lookup 1 subtable" one.sc uni2081 uni00B9 one.numr one.dnom uni2780 one.tf one.osf
EndChar

StartChar: two
Encoding: 50 50 21
Width: 604
GlyphClass: 2
Flags: W
LayerCount: 2
Fore
SplineSet
95 0 m 1,0,-1
 102.849609375 34 l 1,1,2
 204.548828125 102 204.548828125 102 263.629882812 143.5 c 128,-1,3
 322.7109375 185 322.7109375 185 386.5234375 234 c 128,-1,4
 450.3359375 283 450.3359375 283 484.416015625 318 c 128,-1,5
 518.49609375 353 518.49609375 353 544.116210938 392.5 c 128,-1,6
 569.735351562 432 569.735351562 432 578.5078125 470 c 0,7,8
 595.823242188 545 595.823242188 545 560.366210938 588.5 c 128,-1,9
 524.909179688 632 524.909179688 632 446.909179688 632 c 0,10,11
 366.909179688 632 366.909179688 632 306.98046875 582.5 c 128,-1,12
 247.052734375 533 247.052734375 533 222.428710938 448 c 1,13,-1
 190.045898438 468 l 1,14,15
 219.286132812 560 219.286132812 560 289.984375 615 c 128,-1,16
 360.681640625 670 360.681640625 670 456.681640625 670 c 0,17,18
 553.681640625 670 553.681640625 670 597.71484375 616 c 128,-1,19
 641.748046875 562 641.748046875 562 620.5078125 470 c 0,20,21
 598.344726562 374 598.344726562 374 495.258789062 280.5 c 128,-1,22
 392.171875 187 392.171875 187 164.7734375 38 c 1,23,-1
 164.541992188 37 l 1,24,-1
 219.7734375 38 l 1,25,-1
 543.7734375 38 l 1,26,-1
 535 0 l 1,27,-1
 95 0 l 1,0,-1
EndSplineSet
Substitution2: "'onum' Oldstyle Figures lookup 27 subtable" two.osf
Substitution2: "'tnum' Tabular Numbers lookup 26 subtable" two.tf
Substitution2: "'nalt' Alternate Annotation Forms lookup 23 subtable" uni2781
Substitution2: "'frac' Diagonal Fractions lookup 19 subtable" two.numr
Substitution2: "'dnom' Denominators lookup 17 subtable" two.dnom
Substitution2: "'numr' Numerators lookup 16 subtable" two.numr
Substitution2: "'sups' Superscript lookup 15 subtable" uni00B2
Substitution2: "'subs' Subscript lookup 14 subtable" uni2082
Substitution2: "'sinf' Scientific Inferiors lookup 13 subtable" uni2082
Substitution2: "'smcp' Lowercase to Small Capitals lookup 12 subtable" two.sc
Substitution2: "'c2sc' Capitals to Small Capitals lookup 11 subtable" two.sc
AlternateSubs2: "'aalt' Access All Alternates lookup 1 subtable" two.sc uni2082 uni00B2 two.numr two.dnom uni2781 two.tf two.osf
EndChar

StartChar: three
Encoding: 51 51 22
Width: 604
GlyphClass: 2
Flags: W
LayerCount: 2
Fore
SplineSet
456.681640625 670 m 0,0,1
 547.681640625 670 547.681640625 670 588.715820312 622.5 c 128,-1,2
 629.749023438 575 629.749023438 575 611.97265625 498 c 0,3,4
 596.735351562 432 596.735351562 432 551.115234375 386 c 128,-1,5
 505.495117188 340 505.495117188 340 448.110351562 334 c 1,6,-1
 447.6484375 332 l 1,7,8
 510.186523438 330 510.186523438 330 538.951171875 283.5 c 128,-1,9
 567.715820312 237 567.715820312 237 553.170898438 174 c 0,10,11
 534.240234375 92 534.240234375 92 462.465820312 41 c 128,-1,12
 390.69140625 -10 390.69140625 -10 297.69140625 -10 c 0,13,14
 210.69140625 -10 210.69140625 -10 162.541015625 30.5 c 128,-1,15
 114.391601562 71 114.391601562 71 109.245117188 144 c 1,16,-1
 153.092773438 165 l 1,17,18
 152.463867188 28 152.463867188 28 309.463867188 28 c 0,19,20
 384.463867188 28 384.463867188 28 440.9296875 69 c 128,-1,21
 497.395507812 110 497.395507812 110 512.325195312 179 c 0,22,23
 526.408203125 240 526.408203125 240 492.950195312 277 c 128,-1,24
 459.4921875 314 459.4921875 314 381.4921875 314 c 2,25,-1
 340.4921875 314 l 1,26,-1
 349.265625 352 l 1,27,-1
 390.265625 352 l 2,28,29
 460.265625 352 460.265625 352 507.0390625 390 c 128,-1,30
 553.811523438 428 553.811523438 428 568.356445312 491 c 0,31,32
 583.82421875 558 583.82421875 558 552.366210938 595 c 128,-1,33
 520.909179688 632 520.909179688 632 447.909179688 632 c 0,34,35
 385.909179688 632 385.909179688 632 336.751953125 601 c 128,-1,36
 287.594726562 570 287.594726562 570 258.666015625 514 c 1,37,-1
 224.052734375 533 l 1,38,39
 261.59765625 596 261.59765625 596 323.639648438 633 c 128,-1,40
 385.681640625 670 385.681640625 670 456.681640625 670 c 0,0,1
EndSplineSet
Substitution2: "'onum' Oldstyle Figures lookup 27 subtable" three.osf
Substitution2: "'tnum' Tabular Numbers lookup 26 subtable" three.tf
Substitution2: "'nalt' Alternate Annotation Forms lookup 23 subtable" uni2782
Substitution2: "'frac' Diagonal Fractions lookup 19 subtable" three.numr
Substitution2: "'dnom' Denominators lookup 17 subtable" three.dnom
Substitution2: "'numr' Numerators lookup 16 subtable" three.numr
Substitution2: "'sups' Superscript lookup 15 subtable" uni00B3
Substitution2: "'subs' Subscript lookup 14 subtable" uni2083
Substitution2: "'sinf' Scientific Inferiors lookup 13 subtable" uni2083
Substitution2: "'smcp' Lowercase to Small Capitals lookup 12 subtable" three.sc
Substitution2: "'c2sc' Capitals to Small Capitals lookup 11 subtable" three.sc
AlternateSubs2: "'aalt' Access All Alternates lookup 1 subtable" three.sc uni2083 uni00B3 three.numr three.dnom uni2782 three.tf three.osf
EndChar

StartChar: four
Encoding: 52 52 23
Width: 604
GlyphClass: 2
Flags: W
LayerCount: 2
Fore
SplineSet
376 0 m 1,0,-1
 420.557617188 193 l 1,1,-1
 96.5576171875 193 l 1,2,-1
 103.71484375 224 l 1,3,-1
 514.373046875 660 l 1,4,-1
 569.373046875 660 l 1,5,-1
 469.637695312 228 l 1,6,-1
 610.637695312 228 l 1,7,-1
 602.557617188 193 l 1,8,-1
 461.557617188 193 l 1,9,-1
 417 0 l 1,10,-1
 376 0 l 1,0,-1
147.637695312 228 m 1,11,-1
 428.637695312 228 l 1,12,-1
 489.586914062 492 l 2,13,14
 499.283203125 534 499.283203125 534 522.061523438 624 c 1,15,-1
 521.061523438 624 l 1,16,17
 493.211914062 590 493.211914062 590 444.20703125 538 c 2,18,-1
 147.637695312 228 l 1,11,-1
EndSplineSet
Substitution2: "'onum' Oldstyle Figures lookup 27 subtable" four.osf
Substitution2: "'tnum' Tabular Numbers lookup 26 subtable" four.tf
Substitution2: "'nalt' Alternate Annotation Forms lookup 23 subtable" uni2783
Substitution2: "'frac' Diagonal Fractions lookup 19 subtable" four.numr
Substitution2: "'dnom' Denominators lookup 17 subtable" four.dnom
Substitution2: "'numr' Numerators lookup 16 subtable" four.numr
Substitution2: "'sups' Superscript lookup 15 subtable" uni2074
Substitution2: "'subs' Subscript lookup 14 subtable" uni2084
Substitution2: "'sinf' Scientific Inferiors lookup 13 subtable" uni2084
Substitution2: "'smcp' Lowercase to Small Capitals lookup 12 subtable" four.sc
Substitution2: "'c2sc' Capitals to Small Capitals lookup 11 subtable" four.sc
AlternateSubs2: "'aalt' Access All Alternates lookup 1 subtable" four.sc uni2084 uni2074 four.numr four.dnom uni2783 four.tf four.osf
EndChar

StartChar: five
Encoding: 53 53 24
Width: 604
GlyphClass: 2
Flags: W
LayerCount: 2
Fore
SplineSet
417.424804688 409 m 0,0,1
 509.424804688 409 509.424804688 409 553.650390625 351.5 c 128,-1,2
 597.875 294 597.875 294 576.404296875 201 c 0,3,4
 554.471679688 106 554.471679688 106 481.58203125 48 c 128,-1,5
 408.69140625 -10 408.69140625 -10 310.69140625 -10 c 0,6,7
 125.69140625 -10 125.69140625 -10 119.70703125 146 c 1,8,-1
 163.32421875 166 l 1,9,10
 158.463867188 28 158.463867188 28 318.463867188 28 c 0,11,12
 397.463867188 28 397.463867188 28 456.930664062 75.5 c 128,-1,13
 516.396484375 123 516.396484375 123 533.173828125 200 c 0,14,15
 551.181640625 278 551.181640625 278 515.416992188 324.5 c 128,-1,16
 479.65234375 371 479.65234375 371 402.65234375 371 c 0,17,18
 282.65234375 371 282.65234375 371 208.875 294 c 1,19,-1
 172.875 294 l 1,20,-1
 291.373046875 660 l 1,21,-1
 655.373046875 660 l 1,22,-1
 646.599609375 622 l 1,23,-1
 316.599609375 622 l 1,24,-1
 228.49609375 353 l 1,25,-1
 224.033203125 338 l 1,26,-1
 225.033203125 338 l 1,27,28
 297.424804688 409 297.424804688 409 417.424804688 409 c 0,0,1
EndSplineSet
Substitution2: "'onum' Oldstyle Figures lookup 27 subtable" five.osf
Substitution2: "'tnum' Tabular Numbers lookup 26 subtable" five.tf
Substitution2: "'nalt' Alternate Annotation Forms lookup 23 subtable" uni2784
Substitution2: "'frac' Diagonal Fractions lookup 19 subtable" five.numr
Substitution2: "'dnom' Denominators lookup 17 subtable" five.dnom
Substitution2: "'numr' Numerators lookup 16 subtable" five.numr
Substitution2: "'sups' Superscript lookup 15 subtable" uni2075
Substitution2: "'subs' Subscript lookup 14 subtable" uni2085
Substitution2: "'sinf' Scientific Inferiors lookup 13 subtable" uni2085
Substitution2: "'smcp' Lowercase to Small Capitals lookup 12 subtable" five.sc
Substitution2: "'c2sc' Capitals to Small Capitals lookup 11 subtable" five.sc
AlternateSubs2: "'aalt' Access All Alternates lookup 1 subtable" five.sc uni2085 uni2075 five.numr five.dnom uni2784 five.tf five.osf
EndChar

StartChar: six
Encoding: 54 54 25
Width: 604
GlyphClass: 2
Flags: W
LayerCount: 2
Fore
SplineSet
497.681640625 670 m 0,0,1
 638.681640625 670 638.681640625 670 659.361328125 543 c 1,2,-1
 616.206054688 525 l 1,3,4
 605.909179688 632 605.909179688 632 486.909179688 632 c 0,5,6
 414.909179688 632 414.909179688 632 354.404296875 586.5 c 128,-1,7
 293.899414062 541 293.899414062 541 255.854492188 471.5 c 128,-1,8
 217.80859375 402 217.80859375 402 197.954101562 316 c 0,9,10
 192.875 294 192.875 294 185.0234375 234 c 1,11,-1
 188.0234375 234 l 1,12,13
 212.03125 312 212.03125 312 282.150390625 358 c 128,-1,14
 352.270507812 404 352.270507812 404 427.270507812 404 c 0,15,16
 526.270507812 404 526.270507812 404 570.7265625 347.5 c 128,-1,17
 615.182617188 291 615.182617188 291 593.481445312 197 c 0,18,19
 571.548828125 102 571.548828125 102 499.620117188 46 c 128,-1,20
 427.69140625 -10 427.69140625 -10 327.69140625 -10 c 0,21,22
 208.69140625 -10 208.69140625 -10 167.23828125 79 c 128,-1,23
 125.786132812 168 125.786132812 168 163.186523438 330 c 0,24,25
 200.818359375 493 200.818359375 493 292.25 581.5 c 128,-1,26
 383.681640625 670 383.681640625 670 497.681640625 670 c 0,0,1
416.266601562 365 m 0,27,28
 338.266601562 365 338.266601562 365 276.723632812 315 c 128,-1,29
 215.1796875 265 215.1796875 265 199.711914062 198 c 0,30,31
 182.627929688 124 182.627929688 124 220.161132812 76.5 c 128,-1,32
 257.6953125 29 257.6953125 29 335.6953125 29 c 0,33,34
 417.6953125 29 417.6953125 29 475.69921875 74.5 c 128,-1,35
 533.704101562 120 533.704101562 120 551.711914062 198 c 0,36,37
 569.02734375 273 569.02734375 273 532.646484375 319 c 128,-1,38
 496.266601562 365 496.266601562 365 416.266601562 365 c 0,27,28
EndSplineSet
Substitution2: "'onum' Oldstyle Figures lookup 27 subtable" six.osf
Substitution2: "'tnum' Tabular Numbers lookup 26 subtable" six.tf
Substitution2: "'nalt' Alternate Annotation Forms lookup 23 subtable" uni2785
Substitution2: "'frac' Diagonal Fractions lookup 19 subtable" six.numr
Substitution2: "'dnom' Denominators lookup 17 subtable" six.dnom
Substitution2: "'numr' Numerators lookup 16 subtable" six.numr
Substitution2: "'sups' Superscript lookup 15 subtable" uni2076
Substitution2: "'subs' Subscript lookup 14 subtable" uni2086
Substitution2: "'sinf' Scientific Inferiors lookup 13 subtable" uni2086
Substitution2: "'smcp' Lowercase to Small Capitals lookup 12 subtable" six.sc
Substitution2: "'c2sc' Capitals to Small Capitals lookup 11 subtable" six.sc
AlternateSubs2: "'aalt' Access All Alternates lookup 1 subtable" six.sc uni2086 uni2076 six.numr six.dnom uni2785 six.tf six.osf
EndChar

StartChar: seven
Encoding: 55 55 26
Width: 604
GlyphClass: 2
Flags: W
LayerCount: 2
Fore
SplineSet
209.373046875 660 m 1,0,-1
 722.373046875 660 l 1,1,-1
 713.599609375 622 l 1,2,3
 388.8046875 363 388.8046875 363 292 0 c 1,4,-1
 250 0 l 1,5,6
 348.036132812 364 348.036132812 364 666.599609375 622 c 1,7,-1
 200.599609375 622 l 1,8,-1
 209.373046875 660 l 1,0,-1
EndSplineSet
Substitution2: "'onum' Oldstyle Figures lookup 27 subtable" seven.osf
Substitution2: "'tnum' Tabular Numbers lookup 26 subtable" seven.tf
Substitution2: "'nalt' Alternate Annotation Forms lookup 23 subtable" uni2786
Substitution2: "'frac' Diagonal Fractions lookup 19 subtable" seven.numr
Substitution2: "'dnom' Denominators lookup 17 subtable" seven.dnom
Substitution2: "'numr' Numerators lookup 16 subtable" seven.numr
Substitution2: "'sups' Superscript lookup 15 subtable" uni2077
Substitution2: "'subs' Subscript lookup 14 subtable" uni2087
Substitution2: "'sinf' Scientific Inferiors lookup 13 subtable" uni2087
Substitution2: "'smcp' Lowercase to Small Capitals lookup 12 subtable" seven.sc
Substitution2: "'c2sc' Capitals to Small Capitals lookup 11 subtable" seven.sc
AlternateSubs2: "'aalt' Access All Alternates lookup 1 subtable" seven.sc uni2087 uni2077 seven.numr seven.dnom uni2786 seven.tf seven.osf
EndChar

StartChar: eight
Encoding: 56 56 27
Width: 604
GlyphClass: 2
Flags: W
LayerCount: 2
Fore
SplineSet
456.681640625 670 m 0,0,1
 545.681640625 670 545.681640625 670 589.176757812 624.5 c 128,-1,2
 632.672851562 579 632.672851562 579 615.126953125 503 c 0,3,4
 601.966796875 446 601.966796875 446 560.501953125 405 c 128,-1,5
 519.036132812 364 519.036132812 364 460.341796875 348 c 1,6,-1
 460.111328125 347 l 1,7,8
 523.186523438 330 523.186523438 330 552.56640625 284 c 128,-1,9
 581.946289062 238 581.946289062 238 566.940429688 173 c 0,10,11
 548.008789062 91 548.008789062 91 474.350585938 40.5 c 128,-1,12
 400.69140625 -10 400.69140625 -10 299.69140625 -10 c 128,-1,13
 198.69140625 -10 198.69140625 -10 147.850585938 40.5 c 128,-1,14
 97.0087890625 91 97.0087890625 91 115.940429688 173 c 0,15,16
 130.946289062 238 130.946289062 238 182.181640625 284.5 c 128,-1,17
 233.416992188 331 233.416992188 331 305.111328125 347 c 1,18,-1
 305.341796875 348 l 1,19,20
 253.036132812 364 253.036132812 364 230.385742188 404.5 c 128,-1,21
 207.736328125 445 207.736328125 445 221.126953125 503 c 0,22,23
 238.672851562 579 238.672851562 579 302.676757812 624.5 c 128,-1,24
 366.681640625 670 366.681640625 670 456.681640625 670 c 0,0,1
447.909179688 632 m 128,-1,26
 376.909179688 632 376.909179688 632 326.712890625 596.5 c 128,-1,27
 276.516601562 561 276.516601562 561 262.434570312 500 c 128,-1,28
 248.3515625 439 248.3515625 439 282.424804688 402.5 c 128,-1,29
 316.498046875 366 316.498046875 366 386.498046875 366 c 128,-1,30
 456.498046875 366 456.498046875 366 507.424804688 402.5 c 128,-1,31
 558.3515625 439 558.3515625 439 572.434570312 500 c 128,-1,32
 586.516601562 561 586.516601562 561 552.712890625 596.5 c 128,-1,25
 518.909179688 632 518.909179688 632 447.909179688 632 c 128,-1,26
308.463867188 28 m 0,33,34
 390.463867188 28 390.463867188 28 450.314453125 68.5 c 128,-1,35
 510.165039062 109 510.165039062 109 525.6328125 176 c 128,-1,36
 541.100585938 243 541.100585938 243 500.297851562 285 c 128,-1,37
 459.494140625 327 459.494140625 327 377.494140625 327 c 128,-1,38
 295.494140625 327 295.494140625 327 234.797851562 285 c 128,-1,39
 174.100585938 243 174.100585938 243 158.6328125 176 c 128,-1,40
 143.165039062 109 143.165039062 109 184.314453125 68.5 c 128,-1,41
 225.463867188 28 225.463867188 28 308.463867188 28 c 0,33,34
EndSplineSet
Substitution2: "'onum' Oldstyle Figures lookup 27 subtable" eight.osf
Substitution2: "'tnum' Tabular Numbers lookup 26 subtable" eight.tf
Substitution2: "'nalt' Alternate Annotation Forms lookup 23 subtable" uni2787
Substitution2: "'frac' Diagonal Fractions lookup 19 subtable" eight.numr
Substitution2: "'dnom' Denominators lookup 17 subtable" eight.dnom
Substitution2: "'numr' Numerators lookup 16 subtable" eight.numr
Substitution2: "'sups' Superscript lookup 15 subtable" uni2078
Substitution2: "'subs' Subscript lookup 14 subtable" uni2088
Substitution2: "'sinf' Scientific Inferiors lookup 13 subtable" uni2088
Substitution2: "'smcp' Lowercase to Small Capitals lookup 12 subtable" eight.sc
Substitution2: "'c2sc' Capitals to Small Capitals lookup 11 subtable" eight.sc
AlternateSubs2: "'aalt' Access All Alternates lookup 1 subtable" eight.sc uni2088 uni2078 eight.numr eight.dnom uni2787 eight.tf eight.osf
EndChar

StartChar: nine
Encoding: 57 57 28
Width: 604
GlyphClass: 2
Flags: W
LayerCount: 2
Fore
SplineSet
443.681640625 670 m 0,0,1
 560.681640625 670 560.681640625 670 602.788085938 579.5 c 128,-1,2
 644.89453125 489 644.89453125 489 608.186523438 330 c 0,3,4
 570.092773438 165 570.092773438 165 485.392578125 77.5 c 128,-1,5
 400.69140625 -10 400.69140625 -10 287.69140625 -10 c 0,6,7
 203.69140625 -10 203.69140625 -10 155.963867188 28 c 128,-1,8
 108.237304688 66 108.237304688 66 103.936523438 134 c 1,9,-1
 149.784179688 155 l 1,10,11
 148.463867188 28 148.463867188 28 295.463867188 28 c 0,12,13
 351.463867188 28 351.463867188 28 398.736328125 53 c 128,-1,14
 446.0078125 78 446.0078125 78 479.012695312 123.5 c 128,-1,15
 512.016601562 169 512.016601562 169 534.983398438 223 c 128,-1,16
 557.950195312 277 557.950195312 277 573.1875 343 c 0,17,18
 582.653320312 384 582.653320312 384 586.041992188 429 c 1,19,-1
 583.041992188 429 l 1,20,21
 560.341796875 348 560.341796875 348 489.72265625 302 c 128,-1,22
 419.102539062 256 419.102539062 256 344.102539062 256 c 0,23,24
 246.102539062 256 246.102539062 256 200.53125 312 c 128,-1,25
 154.959960938 368 154.959960938 368 176.891601562 463 c 128,-1,26
 198.82421875 558 198.82421875 558 271.252929688 614 c 128,-1,27
 343.681640625 670 343.681640625 670 443.681640625 670 c 0,0,1
435.677734375 631 m 0,28,29
 353.677734375 631 353.677734375 631 295.172851562 585.5 c 128,-1,30
 236.668945312 540 236.668945312 540 218.661132812 462 c 0,31,32
 201.115234375 386 201.115234375 386 238.110351562 340.5 c 128,-1,33
 275.106445312 295 275.106445312 295 355.106445312 295 c 0,34,35
 431.106445312 295 431.106445312 295 493.149414062 345 c 128,-1,36
 555.193359375 395 555.193359375 395 570.661132812 462 c 0,37,38
 587.745117188 536 587.745117188 536 550.211914062 583.5 c 128,-1,39
 512.677734375 631 512.677734375 631 435.677734375 631 c 0,28,29
EndSplineSet
Substitution2: "'onum' Oldstyle Figures lookup 27 subtable" nine.osf
Substitution2: "'tnum' Tabular Numbers lookup 26 subtable" nine.tf
Substitution2: "'nalt' Alternate Annotation Forms lookup 23 subtable" uni2788
Substitution2: "'frac' Diagonal Fractions lookup 19 subtable" nine.numr
Substitution2: "'dnom' Denominators lookup 17 subtable" nine.dnom
Substitution2: "'numr' Numerators lookup 16 subtable" nine.numr
Substitution2: "'sups' Superscript lookup 15 subtable" uni2079
Substitution2: "'subs' Subscript lookup 14 subtable" uni2089
Substitution2: "'sinf' Scientific Inferiors lookup 13 subtable" uni2089
Substitution2: "'smcp' Lowercase to Small Capitals lookup 12 subtable" nine.sc
Substitution2: "'c2sc' Capitals to Small Capitals lookup 11 subtable" nine.sc
AlternateSubs2: "'aalt' Access All Alternates lookup 1 subtable" nine.sc uni2089 uni2079 nine.numr nine.dnom uni2788 nine.tf nine.osf
EndChar

StartChar: colon
Encoding: 58 58 29
Width: 302
GlyphClass: 2
Flags: W
LayerCount: 2
Fore
SplineSet
267.357421875 504 m 128,-1,1
 284.357421875 504 284.357421875 504 292.818359375 493 c 128,-1,2
 301.278320312 482 301.278320312 482 297.353515625 465 c 128,-1,3
 293.428710938 448 293.428710938 448 279.889648438 437 c 128,-1,4
 266.349609375 426 266.349609375 426 249.349609375 426 c 128,-1,5
 232.349609375 426 232.349609375 426 223.889648438 437 c 128,-1,6
 215.428710938 448 215.428710938 448 219.353515625 465 c 128,-1,7
 223.278320312 482 223.278320312 482 236.818359375 493 c 128,-1,0
 250.357421875 504 250.357421875 504 267.357421875 504 c 128,-1,1
167.391601562 71 m 128,-1,9
 184.391601562 71 184.391601562 71 192.852539062 60 c 128,-1,10
 201.3125 49 201.3125 49 197.387695312 32 c 128,-1,11
 193.462890625 15 193.462890625 15 179.923828125 4 c 128,-1,12
 166.383789062 -7 166.383789062 -7 149.383789062 -7 c 128,-1,13
 132.383789062 -7 132.383789062 -7 123.923828125 4 c 128,-1,14
 115.462890625 15 115.462890625 15 119.387695312 32 c 128,-1,15
 123.3125 49 123.3125 49 136.852539062 60 c 128,-1,8
 150.391601562 71 150.391601562 71 167.391601562 71 c 128,-1,9
EndSplineSet
Substitution2: "'tnum' Tabular Numbers lookup 26 subtable" colon.tf
Substitution2: "'sups' Superscript lookup 15 subtable" colonsuperior
Substitution2: "'subs' Subscript lookup 14 subtable" coloninferior
Substitution2: "'sinf' Scientific Inferiors lookup 13 subtable" coloninferior
AlternateSubs2: "'aalt' Access All Alternates lookup 1 subtable" coloninferior colonsuperior colon.tf
EndChar

StartChar: semicolon
Encoding: 59 59 30
Width: 302
GlyphClass: 2
Flags: W
LayerCount: 2
Fore
SplineSet
255.349609375 426 m 0,0,1
 237.349609375 426 237.349609375 426 229.389648438 437 c 128,-1,2
 221.428710938 448 221.428710938 448 225.353515625 465 c 128,-1,3
 229.278320312 482 229.278320312 482 242.318359375 493 c 128,-1,4
 255.357421875 504 255.357421875 504 273.357421875 504 c 0,5,6
 290.357421875 504 290.357421875 504 298.318359375 493 c 128,-1,7
 306.278320312 482 306.278320312 482 302.353515625 465 c 128,-1,8
 298.428710938 448 298.428710938 448 285.389648438 437 c 128,-1,9
 272.349609375 426 272.349609375 426 255.349609375 426 c 0,0,1
169.391601562 71 m 0,10,11
 192.391601562 71 192.391601562 71 201.620117188 52.5 c 128,-1,12
 210.849609375 34 210.849609375 34 204.154296875 5 c 0,13,14
 195.150390625 -34 195.150390625 -34 167.185546875 -68.5 c 128,-1,15
 139.220703125 -103 139.220703125 -103 95.833984375 -122 c 1,16,-1
 76.451171875 -102 l 1,17,18
 113.453125 -89 113.453125 -89 141.724609375 -57.5 c 128,-1,19
 169.997070312 -26 169.997070312 -26 172.461914062 2 c 1,20,-1
 169.692382812 3 l 1,21,22
 162.383789062 -7 162.383789062 -7 146.383789062 -7 c 0,23,24
 132.383789062 -7 132.383789062 -7 124.807617188 3.5 c 128,-1,25
 117.232421875 14 117.232421875 14 121.157226562 31 c 0,26,27
 124.850585938 47 124.850585938 47 139.12109375 59 c 128,-1,28
 153.391601562 71 153.391601562 71 169.391601562 71 c 0,10,11
EndSplineSet
Substitution2: "'tnum' Tabular Numbers lookup 26 subtable" semicolon.tf
Substitution2: "'aalt' Access All Alternates lookup 0 subtable" semicolon.tf
EndChar

StartChar: less
Encoding: 60 60 31
Width: 604
GlyphClass: 2
Flags: W
LayerCount: 2
Fore
SplineSet
665.669921875 553 m 1,0,-1
 655.51171875 509 l 1,1,-1
 185.260742188 300 l 1,2,-1
 558.778320312 90 l 1,3,-1
 548.620117188 46 l 1,4,-1
 146.719726562 276 l 1,5,-1
 157.5703125 323 l 1,6,-1
 665.669921875 553 l 1,0,-1
EndSplineSet
EndChar

StartChar: equal
Encoding: 61 61 32
Width: 604
GlyphClass: 2
Flags: W
LayerCount: 2
Fore
SplineSet
625.041992188 429 m 1,0,-1
 616.5 392 l 1,1,-1
 168.5 392 l 1,2,-1
 177.041992188 429 l 1,3,-1
 625.041992188 429 l 1,0,-1
578.407226562 227 m 1,4,-1
 569.633789062 189 l 1,5,-1
 121.633789062 189 l 1,6,-1
 130.407226562 227 l 1,7,-1
 578.407226562 227 l 1,4,-1
EndSplineSet
Substitution2: "'sups' Superscript lookup 15 subtable" uni207C
Substitution2: "'subs' Subscript lookup 14 subtable" uni208C
Substitution2: "'sinf' Scientific Inferiors lookup 13 subtable" uni208C
AlternateSubs2: "'aalt' Access All Alternates lookup 1 subtable" uni208C uni207C
EndChar

StartChar: greater
Encoding: 62 62 33
Width: 604
GlyphClass: 2
Flags: W
LayerCount: 2
Fore
SplineSet
193.669921875 553 m 1,0,-1
 595.5703125 323 l 1,1,-1
 584.719726562 276 l 1,2,-1
 76.6201171875 46 l 1,3,-1
 86.7783203125 90 l 1,4,-1
 557.260742188 300 l 1,5,-1
 183.51171875 509 l 1,6,-1
 193.669921875 553 l 1,0,-1
EndSplineSet
EndChar

StartChar: question
Encoding: 63 63 34
Width: 500
GlyphClass: 2
Flags: W
LayerCount: 2
Fore
SplineSet
408.681640625 670 m 0,0,1
 498.681640625 670 498.681640625 670 543.676757812 624.5 c 128,-1,2
 588.672851562 579 588.672851562 579 570.665039062 501 c 0,3,4
 533.264648438 339 533.264648438 339 328.875 294 c 1,5,-1
 300.940429688 173 l 1,6,-1
 258.940429688 173 l 1,7,-1
 292.185546875 317 l 1,8,9
 405.1875 343 405.1875 343 458.038085938 383.5 c 128,-1,10
 510.887695312 424 510.887695312 424 527.741210938 497 c 0,11,12
 542.055664062 559 542.055664062 559 506.982421875 595.5 c 128,-1,13
 471.909179688 632 471.909179688 632 397.909179688 632 c 0,14,15
 234.909179688 632 234.909179688 632 181.047851562 481 c 1,16,-1
 149.665039062 501 l 1,17,18
 182.134765625 581 182.134765625 581 247.908203125 625.5 c 128,-1,19
 313.681640625 670 313.681640625 670 408.681640625 670 c 0,0,1
256.391601562 71 m 128,-1,21
 273.391601562 71 273.391601562 71 281.352539062 60 c 128,-1,22
 289.3125 49 289.3125 49 285.387695312 32 c 128,-1,23
 281.462890625 15 281.462890625 15 268.423828125 4 c 128,-1,24
 255.383789062 -7 255.383789062 -7 238.383789062 -7 c 128,-1,25
 221.383789062 -7 221.383789062 -7 212.923828125 4 c 128,-1,26
 204.462890625 15 204.462890625 15 208.387695312 32 c 128,-1,27
 212.3125 49 212.3125 49 225.852539062 60 c 128,-1,20
 239.391601562 71 239.391601562 71 256.391601562 71 c 128,-1,21
EndSplineSet
Substitution2: "'smcp' Lowercase to Small Capitals lookup 12 subtable" question.sc
Substitution2: "'c2sc' Capitals to Small Capitals lookup 11 subtable" question.sc
Substitution2: "'aalt' Access All Alternates lookup 0 subtable" question.sc
EndChar

StartChar: at
Encoding: 64 64 35
Width: 960
GlyphClass: 2
Flags: W
LayerCount: 2
Fore
SplineSet
641.7578125 666 m 0,0,1
 747.7578125 666 747.7578125 666 820.909179688 632 c 128,-1,2
 894.059570312 598 894.059570312 598 927.9375 539 c 128,-1,3
 961.81640625 480 961.81640625 480 968.079101562 407.5 c 128,-1,4
 974.340820312 335 974.340820312 335 954.948242188 251 c 0,5,6
 927.012695312 130 927.012695312 130 871.583007812 61 c 128,-1,7
 816.153320312 -8 816.153320312 -8 747.153320312 -8 c 0,8,9
 648.153320312 -8 648.153320312 -8 671.473632812 119 c 1,10,11
 635.852539062 60 635.852539062 60 580.233398438 27 c 128,-1,12
 524.615234375 -6 524.615234375 -6 456.615234375 -6 c 0,13,14
 366.615234375 -6 366.615234375 -6 324.928710938 56 c 128,-1,15
 283.2421875 118 283.2421875 118 307.483398438 223 c 0,16,17
 333.571289062 336 333.571289062 336 413.155273438 403.5 c 128,-1,18
 492.739257812 471 492.739257812 471 590.739257812 471 c 0,19,20
 727.739257812 471 727.739257812 471 737.573242188 349 c 1,21,-1
 770.506835938 457 l 1,22,-1
 799.506835938 457 l 1,23,-1
 710.859375 138 l 2,24,25
 679.079101562 22 679.079101562 22 761.079101562 22 c 0,26,27
 812.079101562 22 812.079101562 22 853.931640625 82 c 128,-1,28
 895.783203125 142 895.783203125 142 920.948242188 251 c 0,29,30
 939.186523438 330 939.186523438 330 933.270507812 397.5 c 128,-1,31
 927.353515625 465 927.353515625 465 896.435546875 519.5 c 128,-1,32
 865.518554688 574 865.518554688 574 798.559570312 604.5 c 128,-1,33
 731.6015625 635 731.6015625 635 634.6015625 635 c 0,34,35
 453.6015625 635 453.6015625 635 322.206054688 525 c 128,-1,36
 190.810546875 415 190.810546875 415 148.099609375 230 c 0,37,38
 106.3125 49 106.3125 49 190.571289062 -56 c 128,-1,39
 274.830078125 -161 274.830078125 -161 450.830078125 -161 c 0,40,41
 591.830078125 -161 591.830078125 -161 694.9140625 -87 c 1,42,-1
 708.912109375 -113 l 1,43,44
 589.442382812 -193 589.442382812 -193 443.442382812 -193 c 0,45,46
 248.442382812 -193 248.442382812 -193 157.76171875 -79 c 128,-1,47
 67.080078125 35 67.080078125 35 112.099609375 230 c 0,48,49
 157.581054688 427 157.581054688 427 302.169921875 546.5 c 128,-1,50
 446.7578125 666 446.7578125 666 641.7578125 666 c 0,0,1
586.58203125 440 m 0,51,52
 499.58203125 440 499.58203125 440 434.076171875 381.5 c 128,-1,53
 368.5703125 323 368.5703125 323 345.71484375 224 c 0,54,55
 324.705078125 133 324.705078125 133 358.854492188 79.5 c 128,-1,56
 393.002929688 26 393.002929688 26 473.002929688 26 c 0,57,58
 549.002929688 26 549.002929688 26 611.123046875 78.5 c 128,-1,59
 673.244140625 131 673.244140625 131 696.63671875 215 c 2,60,-1
 707.409179688 253 l 2,61,62
 729.110351562 334 729.110351562 334 698.345703125 387 c 128,-1,63
 667.58203125 440 667.58203125 440 586.58203125 440 c 0,51,52
EndSplineSet
Substitution2: "'case' Case-Sensitive Forms lookup 29 subtable" at.case
Substitution2: "'aalt' Access All Alternates lookup 0 subtable" at.case
EndChar

StartChar: A
Encoding: 65 65 36
Width: 615
GlyphClass: 2
Flags: W
LayerCount: 2
Fore
SplineSet
554 0 m 1,0,-1
 517.40625 214 l 1,1,-1
 196.40625 214 l 1,2,-1
 61 0 l 1,3,-1
 17 0 l 1,4,-1
 436.373046875 660 l 1,5,-1
 484.373046875 660 l 1,6,-1
 597 0 l 1,7,-1
 554 0 l 1,0,-1
220.178710938 252 m 1,8,-1
 510.178710938 252 l 1,9,-1
 458.131835938 555 l 1,10,-1
 449.907226562 619 l 1,11,-1
 413.59375 557 l 1,12,-1
 220.178710938 252 l 1,8,-1
EndSplineSet
Substitution2: "Single Substitution lookup 56 subtable" A.swsh
Substitution2: "Single Substitution lookup 55 subtable" ordfeminine
Substitution2: "'swsh' Swash lookup 32 subtable" A.swsh
Substitution2: "'c2sc' Capitals to Small Capitals lookup 11 subtable" a.sc
AlternateSubs2: "'aalt' Access All Alternates lookup 1 subtable" a.sc ordfeminine A.swsh
EndChar

StartChar: B
Encoding: 66 66 37
Width: 626
GlyphClass: 2
Flags: W
LayerCount: 2
Fore
SplineSet
103 0 m 1,0,-1
 255.373046875 660 l 1,1,-1
 488.373046875 660 l 2,2,3
 699.373046875 660 699.373046875 660 659.432617188 487 c 0,4,5
 645.581054688 427 645.581054688 427 604.9609375 387.5 c 128,-1,6
 564.341796875 348 564.341796875 348 500.340820312 335 c 1,7,-1
 500.110351562 334 l 1,8,9
 563.5703125 323 563.5703125 323 591.874023438 281 c 128,-1,10
 620.177734375 239 620.177734375 239 605.40234375 175 c 0,11,12
 586.008789062 91 586.008789062 91 516.504882812 45.5 c 128,-1,13
 447 0 447 0 335 0 c 2,14,-1
 103 0 l 1,0,-1
225.265625 352 m 1,15,-1
 417.265625 352 l 2,16,17
 585.265625 352 585.265625 352 616.432617188 487 c 128,-1,18
 647.599609375 622 647.599609375 622 479.599609375 622 c 2,19,-1
 287.599609375 622 l 1,20,-1
 225.265625 352 l 1,15,-1
152.7734375 38 m 1,21,-1
 351.7734375 38 l 2,22,23
 530.7734375 38 530.7734375 38 562.6328125 176 c 128,-1,24
 594.4921875 314 594.4921875 314 415.4921875 314 c 2,25,-1
 216.4921875 314 l 1,26,-1
 152.7734375 38 l 1,21,-1
EndSplineSet
Substitution2: "'c2sc' Capitals to Small Capitals lookup 11 subtable" b.sc
Substitution2: "'aalt' Access All Alternates lookup 0 subtable" b.sc
EndChar

StartChar: C
Encoding: 67 67 38
Width: 663
GlyphClass: 2
Flags: W
LayerCount: 2
Fore
SplineSet
660.5546875 167 m 1,0,1
 613.162109375 83 613.162109375 83 533.426757812 36.5 c 128,-1,2
 453.69140625 -10 453.69140625 -10 356.69140625 -10 c 0,3,4
 220.69140625 -10 220.69140625 -10 160.931640625 82 c 128,-1,5
 101.170898438 174 101.170898438 174 137.186523438 330 c 128,-1,6
 173.202148438 486 173.202148438 486 275.44140625 578 c 128,-1,7
 377.681640625 670 377.681640625 670 512.681640625 670 c 0,8,9
 712.681640625 670 712.681640625 670 730.357421875 504 c 1,10,-1
 685.970703125 485 l 1,11,12
 673.909179688 632 673.909179688 632 505.909179688 632 c 0,13,14
 389.909179688 632 389.909179688 632 300.592773438 550.5 c 128,-1,15
 211.27734375 469 211.27734375 469 179.186523438 330 c 128,-1,16
 147.095703125 191 147.095703125 191 198.280273438 109.5 c 128,-1,17
 249.463867188 28 249.463867188 28 365.463867188 28 c 0,18,19
 449.463867188 28 449.463867188 28 516.69921875 68 c 128,-1,20
 583.93359375 108 583.93359375 108 623.017578125 182 c 1,21,-1
 660.5546875 167 l 1,0,1
EndSplineSet
Substitution2: "'c2sc' Capitals to Small Capitals lookup 11 subtable" c.sc
Substitution2: "'aalt' Access All Alternates lookup 0 subtable" c.sc
EndChar

StartChar: D
Encoding: 68 68 39
Width: 698
GlyphClass: 2
Flags: W
LayerCount: 2
Fore
SplineSet
461.373046875 660 m 2,0,1
 620.373046875 660 620.373046875 660 685.7109375 577 c 128,-1,2
 751.048828125 494 751.048828125 494 714.571289062 336 c 0,3,4
 676.708984375 172 676.708984375 172 572.354492188 86 c 128,-1,5
 468 0 468 0 309 0 c 2,6,-1
 103 0 l 1,7,-1
 255.373046875 660 l 1,8,-1
 461.373046875 660 l 2,0,1
321.7734375 38 m 2,9,10
 458.7734375 38 458.7734375 38 548.934570312 114.5 c 128,-1,11
 639.095703125 191 639.095703125 191 672.571289062 336 c 0,12,13
 704.662109375 475 704.662109375 475 649.130859375 548.5 c 128,-1,14
 593.599609375 622 593.599609375 622 456.599609375 622 c 2,15,-1
 287.599609375 622 l 1,16,-1
 152.7734375 38 l 1,17,-1
 321.7734375 38 l 2,9,10
EndSplineSet
Substitution2: "'c2sc' Capitals to Small Capitals lookup 11 subtable" d.sc
Substitution2: "'aalt' Access All Alternates lookup 0 subtable" d.sc
EndChar

StartChar: E
Encoding: 69 69 40
Width: 604
GlyphClass: 2
Flags: W
AnchorPoint: "Anchor-0" 326 0 basechar 0
LayerCount: 2
Fore
SplineSet
152.7734375 38 m 1,0,-1
 574.7734375 38 l 1,1,-1
 566 0 l 1,2,-1
 103 0 l 1,3,-1
 255.373046875 660 l 1,4,-1
 702.373046875 660 l 1,5,-1
 693.599609375 622 l 1,6,-1
 287.599609375 622 l 1,7,-1
 225.958007812 355 l 1,8,-1
 547.958007812 355 l 1,9,-1
 539.185546875 317 l 1,10,-1
 217.185546875 317 l 1,11,-1
 152.7734375 38 l 1,0,-1
EndSplineSet
Substitution2: "Single Substitution lookup 57 subtable" E.swsh.001
Substitution2: "Single Substitution lookup 56 subtable" E.swsh
AlternateSubs2: "'swsh' Swash lookup 33 subtable" E.swsh E.swsh.001
Substitution2: "'c2sc' Capitals to Small Capitals lookup 11 subtable" e.sc
AlternateSubs2: "'aalt' Access All Alternates lookup 1 subtable" e.sc E.swsh E.swsh.001
EndChar

StartChar: F
Encoding: 70 70 41
Width: 576
GlyphClass: 2
Flags: W
LayerCount: 2
Fore
SplineSet
692.599609375 622 m 1,0,-1
 287.599609375 622 l 1,1,-1
 225.958007812 355 l 1,2,-1
 547.958007812 355 l 1,3,-1
 539.185546875 317 l 1,4,-1
 217.185546875 317 l 1,5,-1
 144 0 l 1,6,-1
 103 0 l 1,7,-1
 255.373046875 660 l 1,8,-1
 701.373046875 660 l 1,9,-1
 692.599609375 622 l 1,0,-1
EndSplineSet
Substitution2: "Single Substitution lookup 56 subtable" F.swsh
Substitution2: "'swsh' Swash lookup 34 subtable" F.swsh
Substitution2: "'c2sc' Capitals to Small Capitals lookup 11 subtable" f.sc
AlternateSubs2: "'aalt' Access All Alternates lookup 1 subtable" f.sc F.swsh
EndChar

StartChar: G
Encoding: 71 71 42
Width: 695
GlyphClass: 2
Flags: W
AnchorPoint: "Anchor-0" 372 0 basechar 0
LayerCount: 2
Fore
SplineSet
430.877929688 320 m 1,0,-1
 697.877929688 320 l 1,1,-1
 624 0 l 1,2,-1
 590 0 l 1,3,-1
 617.627929688 124 l 1,4,5
 577.852539062 60 577.852539062 60 510.271484375 25 c 128,-1,6
 442.69140625 -10 442.69140625 -10 353.69140625 -10 c 0,7,8
 218.69140625 -10 218.69140625 -10 159.931640625 82 c 128,-1,9
 101.170898438 174 101.170898438 174 137.186523438 330 c 128,-1,10
 173.202148438 486 173.202148438 486 275.94140625 578 c 128,-1,11
 378.681640625 670 378.681640625 670 514.681640625 670 c 0,12,13
 714.681640625 670 714.681640625 670 735.588867188 505 c 1,14,-1
 693.970703125 485 l 1,15,16
 679.909179688 632 679.909179688 632 505.909179688 632 c 0,17,18
 389.909179688 632 389.909179688 632 300.592773438 550.5 c 128,-1,19
 211.27734375 469 211.27734375 469 179.186523438 330 c 0,20,21
 146.865234375 190 146.865234375 190 196.665039062 109 c 128,-1,22
 246.463867188 28 246.463867188 28 364.463867188 28 c 0,23,24
 477.463867188 28 477.463867188 28 549.240234375 92 c 128,-1,25
 621.015625 156 621.015625 156 640.408203125 240 c 2,26,-1
 650.104492188 282 l 1,27,-1
 422.104492188 282 l 1,28,-1
 430.877929688 320 l 1,0,-1
EndSplineSet
Substitution2: "'ss04' Style Set 4 lookup 50 subtable" G.ss04
Substitution2: "'salt' Stylistic Alternatives lookup 42 subtable" G.ss04
Substitution2: "'c2sc' Capitals to Small Capitals lookup 11 subtable" g.sc
AlternateSubs2: "'aalt' Access All Alternates lookup 1 subtable" g.sc G.ss04
EndChar

StartChar: H
Encoding: 72 72 43
Width: 711
GlyphClass: 2
Flags: W
LayerCount: 2
Fore
SplineSet
719.373046875 660 m 1,0,-1
 760.373046875 660 l 1,1,-1
 608 0 l 1,2,-1
 567 0 l 1,3,-1
 640.185546875 317 l 1,4,-1
 217.185546875 317 l 1,5,-1
 144 0 l 1,6,-1
 103 0 l 1,7,-1
 255.373046875 660 l 1,8,-1
 296.373046875 660 l 1,9,-1
 225.958007812 355 l 1,10,-1
 648.958007812 355 l 1,11,-1
 719.373046875 660 l 1,0,-1
EndSplineSet
Substitution2: "'sups' Superscript lookup 15 subtable" Hsuperior
Substitution2: "'subs' Subscript lookup 14 subtable" Hinferior
Substitution2: "'sinf' Scientific Inferiors lookup 13 subtable" Hinferior
Substitution2: "'c2sc' Capitals to Small Capitals lookup 11 subtable" h.sc
AlternateSubs2: "'aalt' Access All Alternates lookup 1 subtable" h.sc Hinferior Hsuperior
EndChar

StartChar: I
Encoding: 73 73 44
Width: 246
GlyphClass: 2
Flags: W
LayerCount: 2
Fore
SplineSet
296.373046875 660 m 1,0,-1
 144 0 l 1,1,-1
 103 0 l 1,2,-1
 255.373046875 660 l 1,3,-1
 296.373046875 660 l 1,0,-1
EndSplineSet
Substitution2: "'c2sc' Capitals to Small Capitals lookup 11 subtable" i.sc
Substitution2: "'aalt' Access All Alternates lookup 0 subtable" i.sc
EndChar

StartChar: J
Encoding: 74 74 45
Width: 525
GlyphClass: 2
Flags: W
LayerCount: 2
Fore
SplineSet
581.373046875 660 m 1,0,-1
 478.8671875 216 l 2,1,2
 454.395507812 110 454.395507812 110 387.04296875 50 c 128,-1,3
 319.69140625 -10 319.69140625 -10 220.69140625 -10 c 0,4,5
 117.69140625 -10 117.69140625 -10 82.3125 49 c 128,-1,6
 46.93359375 108 46.93359375 108 85.7900390625 207 c 1,7,-1
 127.329101562 218 l 1,8,9
 92.6279296875 124 92.6279296875 124 118.545898438 76 c 128,-1,10
 144.463867188 28 144.463867188 28 228.463867188 28 c 0,11,12
 394.463867188 28 394.463867188 28 439.483398438 223 c 2,13,-1
 540.373046875 660 l 1,14,-1
 581.373046875 660 l 1,0,-1
EndSplineSet
Substitution2: "'c2sc' Capitals to Small Capitals lookup 11 subtable" j.sc
Substitution2: "'aalt' Access All Alternates lookup 0 subtable" j.sc
EndChar

StartChar: K
Encoding: 75 75 46
Width: 596
GlyphClass: 2
Flags: W
AnchorPoint: "Anchor-0" 340 0 basechar 0
LayerCount: 2
Fore
SplineSet
527 0 m 1,0,-1
 364.036132812 364 l 1,1,-1
 195.9453125 225 l 1,2,-1
 144 0 l 1,3,-1
 103 0 l 1,4,-1
 255.373046875 660 l 1,5,-1
 296.373046875 660 l 1,6,-1
 209.104492188 282 l 1,7,-1
 667.373046875 660 l 1,8,-1
 722.373046875 660 l 1,9,-1
 399.961914062 394 l 1,10,-1
 577 0 l 1,11,-1
 527 0 l 1,0,-1
EndSplineSet
Substitution2: "'c2sc' Capitals to Small Capitals lookup 11 subtable" k.sc
Substitution2: "'aalt' Access All Alternates lookup 0 subtable" k.sc
EndChar

StartChar: L
Encoding: 76 76 47
Width: 564
GlyphClass: 2
Flags: W
AnchorPoint: "Anchor-0" 343 0 basechar 0
LayerCount: 2
Fore
SplineSet
152.7734375 38 m 1,0,-1
 553.7734375 38 l 1,1,-1
 545 0 l 1,2,-1
 103 0 l 1,3,-1
 255.373046875 660 l 1,4,-1
 296.373046875 660 l 1,5,-1
 152.7734375 38 l 1,0,-1
EndSplineSet
Substitution2: "Single Substitution lookup 57 subtable" L.swsh
Substitution2: "'swsh' Swash lookup 34 subtable" L.swsh
Substitution2: "'c2sc' Capitals to Small Capitals lookup 11 subtable" l.sc
AlternateSubs2: "'aalt' Access All Alternates lookup 1 subtable" l.sc L.swsh
Position2: "Single Positioning lookup 6 subtable" dx=0 dy=0 dh=-152 dv=0
EndChar

StartChar: M
Encoding: 77 77 48
Width: 813
GlyphClass: 2
Flags: W
LayerCount: 2
Fore
SplineSet
862.373046875 660 m 1,0,-1
 710 0 l 1,1,-1
 671 0 l 1,2,-1
 790.127929688 516 l 1,3,-1
 817.676757812 618 l 1,4,-1
 816.676757812 618 l 1,5,-1
 426 0 l 1,6,-1
 387 0 l 1,7,-1
 280.676757812 618 l 1,8,-1
 261.127929688 516 l 1,9,-1
 142 0 l 1,10,-1
 103 0 l 1,11,-1
 255.373046875 660 l 1,12,-1
 315.373046875 660 l 1,13,-1
 409.012695312 130 l 1,14,-1
 417.08203125 48 l 1,15,-1
 418.08203125 48 l 1,16,-1
 463.782226562 129 l 1,17,-1
 801.373046875 660 l 1,18,-1
 862.373046875 660 l 1,0,-1
EndSplineSet
Substitution2: "Single Substitution lookup 56 subtable" M.swsh
AlternateSubs2: "'swsh' Swash lookup 35 subtable" M.swsh M.swsh.001
Substitution2: "'c2sc' Capitals to Small Capitals lookup 11 subtable" m.sc
AlternateSubs2: "'aalt' Access All Alternates lookup 1 subtable" m.sc M.swsh M.swsh.001
EndChar

StartChar: N
Encoding: 78 78 49
Width: 710
GlyphClass: 2
Flags: W
AnchorPoint: "Anchor-0" 367 0 basechar 0
LayerCount: 2
Fore
SplineSet
759.373046875 660 m 1,0,-1
 607 0 l 1,1,-1
 555 0 l 1,2,-1
 307.899414062 541 l 1,3,-1
 282.21484375 616 l 1,4,-1
 266.668945312 540 l 1,5,-1
 142 0 l 1,6,-1
 103 0 l 1,7,-1
 255.373046875 660 l 1,8,-1
 307.373046875 660 l 1,9,-1
 553.473632812 119 l 1,10,-1
 579.158203125 44 l 1,11,-1
 580.158203125 44 l 1,12,-1
 595.704101562 120 l 1,13,-1
 720.373046875 660 l 1,14,-1
 759.373046875 660 l 1,0,-1
EndSplineSet
Substitution2: "Single Substitution lookup 57 subtable" N.swsh
Substitution2: "'swsh' Swash lookup 36 subtable" N.swsh
Substitution2: "'c2sc' Capitals to Small Capitals lookup 11 subtable" n.sc
AlternateSubs2: "'aalt' Access All Alternates lookup 1 subtable" n.sc N.swsh
EndChar

StartChar: O
Encoding: 79 79 50
Width: 727
GlyphClass: 2
Flags: W
LayerCount: 2
Fore
SplineSet
518.681640625 670 m 128,-1,1
 658.681640625 670 658.681640625 670 719.057617188 578.5 c 128,-1,2
 779.432617188 487 779.432617188 487 743.186523438 330 c 128,-1,3
 706.940429688 173 706.940429688 173 604.315429688 81.5 c 128,-1,4
 501.69140625 -10 501.69140625 -10 361.69140625 -10 c 128,-1,5
 221.69140625 -10 221.69140625 -10 161.315429688 81.5 c 128,-1,6
 100.940429688 173 100.940429688 173 137.186523438 330 c 128,-1,7
 173.432617188 487 173.432617188 487 276.057617188 578.5 c 128,-1,0
 378.681640625 670 378.681640625 670 518.681640625 670 c 128,-1,1
509.909179688 632 m 0,8,9
 388.909179688 632 388.909179688 632 300.208007812 551 c 128,-1,10
 211.5078125 470 211.5078125 470 179.186523438 330 c 128,-1,11
 146.865234375 190 146.865234375 190 198.165039062 109 c 128,-1,12
 249.463867188 28 249.463867188 28 370.463867188 28 c 0,13,14
 490.463867188 28 490.463867188 28 579.165039062 109 c 128,-1,15
 667.865234375 190 667.865234375 190 700.186523438 330 c 128,-1,16
 732.5078125 470 732.5078125 470 681.208007812 551 c 128,-1,17
 629.909179688 632 629.909179688 632 509.909179688 632 c 0,8,9
EndSplineSet
Substitution2: "Single Substitution lookup 55 subtable" ordmasculine
Substitution2: "'nalt' Alternate Annotation Forms lookup 23 subtable" indexring
Substitution2: "'sups' Superscript lookup 15 subtable" Osuperior
Substitution2: "'subs' Subscript lookup 14 subtable" Oinferior
Substitution2: "'sinf' Scientific Inferiors lookup 13 subtable" Oinferior
Substitution2: "'c2sc' Capitals to Small Capitals lookup 11 subtable" o.sc
AlternateSubs2: "'aalt' Access All Alternates lookup 1 subtable" o.sc Oinferior Osuperior ordmasculine indexring
EndChar

StartChar: P
Encoding: 80 80 51
Width: 580
GlyphClass: 2
Flags: W
LayerCount: 2
Fore
SplineSet
470.373046875 660 m 2,0,1
 574.373046875 660 574.373046875 660 622.598632812 609 c 128,-1,2
 670.82421875 558 670.82421875 558 650.27734375 469 c 128,-1,3
 629.729492188 380 629.729492188 380 557.956054688 329 c 128,-1,4
 486.181640625 278 486.181640625 278 382.181640625 278 c 2,5,-1
 208.181640625 278 l 1,6,-1
 144 0 l 1,7,-1
 103 0 l 1,8,-1
 255.373046875 660 l 1,9,-1
 470.373046875 660 l 2,0,1
385.954101562 316 m 2,10,11
 475.954101562 316 475.954101562 316 533.189453125 356 c 128,-1,12
 590.423828125 396 590.423828125 396 607.27734375 469 c 128,-1,13
 624.130859375 542 624.130859375 542 585.365234375 582 c 128,-1,14
 546.599609375 622 546.599609375 622 456.599609375 622 c 2,15,-1
 287.599609375 622 l 1,16,-1
 216.954101562 316 l 1,17,-1
 385.954101562 316 l 2,10,11
EndSplineSet
Substitution2: "'c2sc' Capitals to Small Capitals lookup 11 subtable" p.sc
Substitution2: "'aalt' Access All Alternates lookup 0 subtable" p.sc
EndChar

StartChar: Q
Encoding: 81 81 52
Width: 727
GlyphClass: 2
Flags: W
LayerCount: 2
Fore
SplineSet
500.215820312 -155 m 0,0,1
 572.215820312 -155 572.215820312 -155 617.7578125 -118 c 1,2,-1
 625.215820312 -155 l 1,3,4
 570.98046875 -195 570.98046875 -195 489.98046875 -195 c 0,5,6
 411.98046875 -195 411.98046875 -195 371.715820312 -148.5 c 128,-1,7
 331.451171875 -102 331.451171875 -102 346.69140625 -10 c 1,8,9
 214.845703125 -5 214.845703125 -5 158.469726562 86.5 c 128,-1,10
 102.094726562 178 102.094726562 178 137.186523438 330 c 0,11,12
 173.432617188 487 173.432617188 487 276.057617188 578.5 c 128,-1,13
 378.681640625 670 378.681640625 670 518.681640625 670 c 128,-1,14
 658.681640625 670 658.681640625 670 719.057617188 578.5 c 128,-1,15
 779.432617188 487 779.432617188 487 743.186523438 330 c 0,16,17
 708.556640625 180 708.556640625 180 612.163085938 89.5 c 128,-1,18
 515.76953125 -1 515.76953125 -1 383.921875 -9 c 1,19,20
 360.215820312 -155 360.215820312 -155 500.215820312 -155 c 0,0,1
179.186523438 330 m 128,-1,22
 146.865234375 190 146.865234375 190 198.165039062 109 c 128,-1,23
 249.463867188 28 249.463867188 28 370.463867188 28 c 0,24,25
 490.463867188 28 490.463867188 28 579.165039062 109 c 128,-1,26
 667.865234375 190 667.865234375 190 700.186523438 330 c 128,-1,27
 732.5078125 470 732.5078125 470 681.208007812 551 c 128,-1,28
 629.909179688 632 629.909179688 632 509.909179688 632 c 0,29,30
 388.909179688 632 388.909179688 632 300.208007812 551 c 128,-1,21
 211.5078125 470 211.5078125 470 179.186523438 330 c 128,-1,22
EndSplineSet
Substitution2: "'c2sc' Capitals to Small Capitals lookup 11 subtable" q.sc
Substitution2: "'aalt' Access All Alternates lookup 0 subtable" q.sc
EndChar

StartChar: R
Encoding: 82 82 53
Width: 629
GlyphClass: 2
Flags: W
AnchorPoint: "Anchor-0" 353 0 basechar 0
LayerCount: 2
Fore
SplineSet
103 0 m 1,0,-1
 255.373046875 660 l 1,1,-1
 498.373046875 660 l 2,2,3
 597.373046875 660 597.373046875 660 643.4453125 610.5 c 128,-1,4
 689.516601562 561 689.516601562 561 669.662109375 475 c 0,5,6
 653.962890625 407 653.962890625 407 605.189453125 362.5 c 128,-1,7
 556.416015625 318 556.416015625 318 486.415039062 305 c 1,8,-1
 486.18359375 304 l 1,9,10
 604.797851562 285 604.797851562 285 579.400390625 162 c 0,11,12
 568.317382812 101 568.317382812 101 565.622070312 65.5 c 128,-1,13
 562.92578125 30 562.92578125 30 564.079101562 22 c 128,-1,14
 565.232421875 14 565.232421875 14 570.461914062 2 c 1,15,-1
 570 0 l 1,16,-1
 526 0 l 1,17,18
 515.00390625 39 515.00390625 39 538.24609375 157 c 0,19,20
 563.952148438 290 563.952148438 290 408.952148438 290 c 2,21,-1
 210.952148438 290 l 1,22,-1
 144 0 l 1,23,-1
 103 0 l 1,0,-1
219.724609375 328 m 1,24,-1
 420.724609375 328 l 2,25,26
 503.724609375 328 503.724609375 328 557.498046875 366 c 128,-1,27
 611.270507812 404 611.270507812 404 627.662109375 475 c 128,-1,28
 644.053710938 546 644.053710938 546 607.827148438 584 c 128,-1,29
 571.599609375 622 571.599609375 622 488.599609375 622 c 2,30,-1
 287.599609375 622 l 1,31,-1
 219.724609375 328 l 1,24,-1
EndSplineSet
Substitution2: "Single Substitution lookup 57 subtable" R.swsh.001
Substitution2: "Single Substitution lookup 56 subtable" R.swsh
Substitution2: "'ss03' Style Set 3 lookup 49 subtable" R.ss03
Substitution2: "'salt' Stylistic Alternatives lookup 42 subtable" R.ss03
AlternateSubs2: "'swsh' Swash lookup 37 subtable" R.swsh R.swsh.001
Substitution2: "'c2sc' Capitals to Small Capitals lookup 11 subtable" r.sc
AlternateSubs2: "'aalt' Access All Alternates lookup 1 subtable" r.sc R.swsh R.swsh.001 R.ss03
EndChar

StartChar: S
Encoding: 83 83 54
Width: 612
GlyphClass: 2
Flags: W
AnchorPoint: "Anchor-0" 330 0 basechar 0
LayerCount: 2
Fore
SplineSet
459.681640625 670 m 0,0,1
 648.681640625 670 648.681640625 670 671.513671875 522 c 1,2,-1
 630.048828125 494 l 1,3,4
 622.671875 566 622.671875 566 578.790039062 599 c 128,-1,5
 534.909179688 632 534.909179688 632 450.909179688 632 c 0,6,7
 360.909179688 632 360.909179688 632 297.943359375 591 c 128,-1,8
 234.977539062 550 234.977539062 550 220.6640625 488 c 0,9,10
 207.2734375 430 207.2734375 430 247.385742188 398 c 128,-1,11
 287.498046875 366 287.498046875 366 405.649414062 345 c 0,12,13
 528.5703125 323 528.5703125 323 572.604492188 282 c 128,-1,14
 616.639648438 241 616.639648438 241 599.5546875 167 c 0,15,16
 581.31640625 88 581.31640625 88 502.00390625 39 c 128,-1,17
 422.69140625 -10 422.69140625 -10 313.69140625 -10 c 0,18,19
 208.69140625 -10 208.69140625 -10 146.887695312 32 c 128,-1,20
 85.083984375 74 85.083984375 74 79.3232421875 153 c 1,21,-1
 121.556640625 180 l 1,22,23
 122.471679688 106 122.471679688 106 175.967773438 67 c 128,-1,24
 229.463867188 28 229.463867188 28 322.463867188 28 c 0,25,26
 412.463867188 28 412.463867188 28 477.390625 64.5 c 128,-1,27
 542.317382812 101 542.317382812 101 557.092773438 165 c 0,28,29
 570.021484375 221 570.021484375 221 531.525390625 253.5 c 128,-1,30
 493.028320312 286 493.028320312 286 384.18359375 304 c 0,31,32
 251.724609375 328 251.724609375 328 205.690429688 369 c 128,-1,33
 159.65625 410 159.65625 410 176.970703125 485 c 0,34,35
 194.748046875 562 194.748046875 562 272.71484375 616 c 128,-1,36
 350.681640625 670 350.681640625 670 459.681640625 670 c 0,0,1
EndSplineSet
Substitution2: "Single Substitution lookup 57 subtable" S.swsh
Substitution2: "Single Substitution lookup 56 subtable" S.swsh
Substitution2: "'swsh' Swash lookup 38 subtable" S.swsh
Substitution2: "'c2sc' Capitals to Small Capitals lookup 11 subtable" s.sc
AlternateSubs2: "'aalt' Access All Alternates lookup 1 subtable" s.sc S.swsh
EndChar

StartChar: T
Encoding: 84 84 55
Width: 567
GlyphClass: 2
Flags: W
AnchorPoint: "Anchor-0" 292 0 basechar 0
LayerCount: 2
Fore
SplineSet
700.373046875 660 m 1,0,-1
 691.599609375 622 l 1,1,-1
 447.599609375 622 l 1,2,-1
 304 0 l 1,3,-1
 263 0 l 1,4,-1
 406.599609375 622 l 1,5,-1
 162.599609375 622 l 1,6,-1
 171.373046875 660 l 1,7,-1
 700.373046875 660 l 1,0,-1
EndSplineSet
Substitution2: "Single Substitution lookup 56 subtable" T.swsh
Substitution2: "'swsh' Swash lookup 38 subtable" T.swsh
Substitution2: "'c2sc' Capitals to Small Capitals lookup 11 subtable" t.sc
AlternateSubs2: "'aalt' Access All Alternates lookup 1 subtable" t.sc T.swsh
EndChar

StartChar: U
Encoding: 85 85 56
Width: 696
GlyphClass: 2
Flags: W
LayerCount: 2
Fore
SplineSet
753.373046875 660 m 1,0,-1
 656.177734375 239 l 2,1,2
 628.2421875 118 628.2421875 118 547.466796875 54 c 128,-1,3
 466.69140625 -10 466.69140625 -10 345.69140625 -10 c 128,-1,4
 224.69140625 -10 224.69140625 -10 173.466796875 54 c 128,-1,5
 122.2421875 118 122.2421875 118 150.177734375 239 c 2,6,-1
 247.373046875 660 l 1,7,-1
 288.373046875 660 l 1,8,-1
 193.024414062 247 l 2,9,10
 168.321289062 140 168.321289062 140 209.892578125 84 c 128,-1,11
 251.463867188 28 251.463867188 28 354.463867188 28 c 128,-1,12
 457.463867188 28 457.463867188 28 524.892578125 84 c 128,-1,13
 592.321289062 140 592.321289062 140 617.024414062 247 c 2,14,-1
 712.373046875 660 l 1,15,-1
 753.373046875 660 l 1,0,-1
EndSplineSet
Substitution2: "'c2sc' Capitals to Small Capitals lookup 11 subtable" u.sc
Substitution2: "'aalt' Access All Alternates lookup 0 subtable" u.sc
EndChar

StartChar: V
Encoding: 86 86 57
Width: 604
GlyphClass: 2
Flags: W
LayerCount: 2
Fore
SplineSet
735.373046875 660 m 1,0,-1
 327 0 l 1,1,-1
 278 0 l 1,2,-1
 173.373046875 660 l 1,3,-1
 217.373046875 660 l 1,4,-1
 299.705078125 133 l 1,5,-1
 311.00390625 39 l 1,6,-1
 365.474609375 132 l 1,7,-1
 691.373046875 660 l 1,8,-1
 735.373046875 660 l 1,0,-1
EndSplineSet
Substitution2: "'c2sc' Capitals to Small Capitals lookup 11 subtable" v.sc
Substitution2: "'aalt' Access All Alternates lookup 0 subtable" v.sc
EndChar

StartChar: W
Encoding: 87 87 58
Width: 929
GlyphClass: 2
Flags: W
LayerCount: 2
Fore
SplineSet
536.200195312 473 m 1,0,-1
 289 0 l 1,1,-1
 237 0 l 1,2,-1
 180.373046875 660 l 1,3,-1
 224.373046875 660 l 1,4,-1
 270.849609375 34 l 1,5,-1
 593.373046875 660 l 1,6,-1
 642.373046875 660 l 1,7,-1
 675.849609375 34 l 1,8,-1
 1011.37304688 660 l 1,9,-1
 1053.37304688 660 l 1,10,-1
 693 0 l 1,11,-1
 641 0 l 1,12,-1
 612.200195312 473 l 1,13,-1
 606.752929688 614 l 1,14,-1
 605.752929688 614 l 1,15,-1
 536.200195312 473 l 1,0,-1
EndSplineSet
Substitution2: "Single Substitution lookup 56 subtable" W.swsh
Substitution2: "'swsh' Swash lookup 38 subtable" W.swsh
Substitution2: "'c2sc' Capitals to Small Capitals lookup 11 subtable" w.sc
AlternateSubs2: "'aalt' Access All Alternates lookup 1 subtable" w.sc W.swsh
EndChar

StartChar: X
Encoding: 88 88 59
Width: 555
GlyphClass: 2
Flags: W
LayerCount: 2
Fore
SplineSet
532 0 m 1,0,-1
 484 0 l 1,1,-1
 347.645507812 306 l 1,2,-1
 66 0 l 1,3,-1
 17 0 l 1,4,-1
 332.264648438 339 l 1,5,-1
 190.373046875 660 l 1,6,-1
 239.373046875 660 l 1,7,-1
 367.344726562 374 l 1,8,-1
 630.373046875 660 l 1,9,-1
 676.373046875 660 l 1,10,-1
 381.495117188 340 l 1,11,-1
 532 0 l 1,0,-1
EndSplineSet
Substitution2: "'c2sc' Capitals to Small Capitals lookup 11 subtable" x.sc
Substitution2: "'aalt' Access All Alternates lookup 0 subtable" x.sc
EndChar

StartChar: Y
Encoding: 89 89 60
Width: 535
GlyphClass: 2
Flags: W
LayerCount: 2
Fore
SplineSet
674.373046875 660 m 1,0,-1
 347.333007812 257 l 1,1,-1
 288 0 l 1,2,-1
 247 0 l 1,3,-1
 306.333007812 257 l 1,4,-1
 166.373046875 660 l 1,5,-1
 214.373046875 660 l 1,6,-1
 337.029296875 299 l 1,7,-1
 444.197265625 434 l 1,8,-1
 625.373046875 660 l 1,9,-1
 674.373046875 660 l 1,0,-1
EndSplineSet
Substitution2: "'c2sc' Capitals to Small Capitals lookup 11 subtable" y.sc
Substitution2: "'aalt' Access All Alternates lookup 0 subtable" y.sc
EndChar

StartChar: Z
Encoding: 90 90 61
Width: 582
GlyphClass: 2
Flags: W
LayerCount: 2
Fore
SplineSet
95.7734375 38 m 1,0,-1
 554.7734375 38 l 1,1,-1
 546 0 l 1,2,-1
 40 0 l 1,3,-1
 48.3115234375 36 l 1,4,-1
 624.599609375 622 l 1,5,-1
 191.599609375 622 l 1,6,-1
 200.373046875 660 l 1,7,-1
 681.373046875 660 l 1,8,-1
 673.061523438 624 l 1,9,-1
 95.7734375 38 l 1,0,-1
EndSplineSet
Substitution2: "'c2sc' Capitals to Small Capitals lookup 11 subtable" z.sc
Substitution2: "'aalt' Access All Alternates lookup 0 subtable" z.sc
EndChar

StartChar: bracketleft
Encoding: 91 91 62
Width: 299
GlyphClass: 2
Flags: W
LayerCount: 2
Fore
SplineSet
440.22265625 694 m 1,0,-1
 279.22265625 694 l 1,1,-1
 88.525390625 -132 l 1,2,-1
 249.525390625 -132 l 1,3,-1
 241.213867188 -168 l 1,4,-1
 41.2138671875 -168 l 1,5,-1
 248.534179688 730 l 1,6,-1
 448.534179688 730 l 1,7,-1
 440.22265625 694 l 1,0,-1
EndSplineSet
Substitution2: "'case' Case-Sensitive Forms lookup 29 subtable" bracketleft.case
Substitution2: "'sups' Superscript lookup 15 subtable" bracketleftsuperior
Substitution2: "'subs' Subscript lookup 14 subtable" bracketleftinferior
Substitution2: "'sinf' Scientific Inferiors lookup 13 subtable" bracketleftinferior
AlternateSubs2: "'aalt' Access All Alternates lookup 1 subtable" bracketleftinferior bracketleftsuperior bracketleft.case
EndChar

StartChar: backslash
Encoding: 92 92 63
Width: 384
GlyphClass: 2
Flags: W
LayerCount: 2
Fore
SplineSet
201.534179688 730 m 1,0,-1
 241.534179688 730 l 1,1,-1
 335.838867188 -70 l 1,2,-1
 295.838867188 -70 l 1,3,-1
 201.534179688 730 l 1,0,-1
EndSplineSet
EndChar

StartChar: bracketright
Encoding: 93 93 64
Width: 299
GlyphClass: 2
Flags: W
LayerCount: 2
Fore
SplineSet
387.534179688 730 m 1,0,-1
 180.213867188 -168 l 1,1,-1
 -18.7861328125 -168 l 1,2,-1
 -10.474609375 -132 l 1,3,-1
 150.525390625 -132 l 1,4,-1
 341.22265625 694 l 1,5,-1
 180.22265625 694 l 1,6,-1
 188.534179688 730 l 1,7,-1
 387.534179688 730 l 1,0,-1
EndSplineSet
Substitution2: "'case' Case-Sensitive Forms lookup 29 subtable" bracketright.case
Substitution2: "'sups' Superscript lookup 15 subtable" bracketrightsuperior
Substitution2: "'subs' Subscript lookup 14 subtable" bracketrightinferior
Substitution2: "'sinf' Scientific Inferiors lookup 13 subtable" bracketrightinferior
AlternateSubs2: "'aalt' Access All Alternates lookup 1 subtable" bracketrightinferior bracketrightsuperior bracketright.case
EndChar

StartChar: asciicircum
Encoding: 94 94 65
Width: 544
GlyphClass: 2
Flags: W
LayerCount: 2
Fore
SplineSet
591.958007812 355 m 1,0,-1
 548.958007812 355 l 1,1,-1
 432.22265625 694 l 1,2,-1
 157.958007812 355 l 1,3,-1
 114.958007812 355 l 1,4,-1
 419.534179688 730 l 1,5,-1
 460.534179688 730 l 1,6,-1
 591.958007812 355 l 1,0,-1
EndSplineSet
EndChar

StartChar: underscore
Encoding: 95 95 66
Width: 515
GlyphClass: 2
Flags: W
LayerCount: 2
Fore
SplineSet
492.60546875 -97 m 1,0,-1
 483.833007812 -135 l 1,1,-1
 -31.1669921875 -135 l 1,2,-1
 -22.39453125 -97 l 1,3,-1
 492.60546875 -97 l 1,0,-1
EndSplineSet
EndChar

StartChar: grave
Encoding: 96 96 67
Width: 530
GlyphClass: 2
Flags: W
LayerCount: 2
Fore
SplineSet
358.380859375 738 m 1,0,-1
 403.595703125 583 l 1,1,-1
 369.595703125 583 l 1,2,-1
 313.380859375 738 l 1,3,-1
 358.380859375 738 l 1,0,-1
EndSplineSet
EndChar

StartChar: a
Encoding: 97 97 68
Width: 536
GlyphClass: 2
Flags: W
LayerCount: 2
Fore
SplineSet
493.771484375 25 m 0,0,1
 517.771484375 25 517.771484375 25 534.618164062 33 c 1,2,-1
 523.76953125 -1 l 1,3,4
 501.69140625 -10 501.69140625 -10 476.69140625 -10 c 0,5,6
 400.69140625 -10 400.69140625 -10 417.469726562 80 c 1,7,8
 384.541992188 37 384.541992188 37 326.6171875 13.5 c 128,-1,9
 268.69140625 -10 268.69140625 -10 209.69140625 -10 c 0,10,11
 135.69140625 -10 135.69140625 -10 99.1943359375 22.5 c 128,-1,12
 62.697265625 55 62.697265625 55 76.3193359375 114 c 128,-1,13
 89.9404296875 173 89.9404296875 173 144.3671875 209.5 c 128,-1,14
 198.793945312 246 198.793945312 246 299.94921875 264 c 2,15,-1
 465.413085938 292 l 1,16,-1
 476.725585938 341 l 2,17,18
 491.040039062 403 491.040039062 403 462.235351562 438.5 c 128,-1,19
 433.431640625 474 433.431640625 474 365.431640625 474 c 0,20,21
 242.431640625 474 242.431640625 474 175.266601562 365 c 1,22,-1
 149.577148438 388 l 1,23,24
 222.743164062 510 222.743164062 510 373.743164062 510 c 0,25,26
 459.743164062 510 459.743164062 510 498.430664062 467.5 c 128,-1,27
 537.119140625 425 537.119140625 425 518.649414062 345 c 2,28,-1
 458.162109375 83 l 2,29,30
 444.771484375 25 444.771484375 25 493.771484375 25 c 0,0,1
222.002929688 26 m 0,31,32
 290.002929688 26 290.002929688 26 355.083007812 61 c 128,-1,33
 420.163085938 96 420.163085938 96 434.477539062 158 c 2,34,-1
 457.564453125 258 l 1,35,-1
 307.330078125 231 l 2,36,37
 218.63671875 215 218.63671875 215 173.671875 187 c 128,-1,38
 128.708007812 159 128.708007812 159 118.319335938 114 c 0,39,40
 108.622070312 72 108.622070312 72 136.3125 49 c 128,-1,41
 164.002929688 26 164.002929688 26 222.002929688 26 c 0,31,32
EndSplineSet
Substitution2: "Single Substitution lookup 55 subtable" ordfeminine
Substitution2: "'smcp' Lowercase to Small Capitals lookup 12 subtable" a.sc
AlternateSubs2: "'aalt' Access All Alternates lookup 1 subtable" a.sc ordfeminine
EndChar

StartChar: b
Encoding: 98 98 69
Width: 603
GlyphClass: 2
Flags: W
LayerCount: 2
Fore
SplineSet
435.743164062 510 m 0,0,1
 542.743164062 510 542.743164062 510 587.8125 441 c 128,-1,2
 632.8828125 372 632.8828125 372 604.716796875 250 c 128,-1,3
 576.55078125 128 576.55078125 128 499.62109375 59 c 128,-1,4
 422.69140625 -10 422.69140625 -10 315.69140625 -10 c 0,5,6
 245.69140625 -10 245.69140625 -10 203.771484375 25 c 128,-1,7
 161.852539062 60 161.852539062 60 155.166015625 122 c 1,8,-1
 125 0 l 1,9,-1
 88 0 l 1,10,-1
 256.534179688 730 l 1,11,-1
 297.534179688 730 l 1,12,-1
 217.653320312 384 l 1,13,14
 253.274414062 443 253.274414062 443 310.508789062 476.5 c 128,-1,15
 367.743164062 510 367.743164062 510 435.743164062 510 c 0,0,1
319.002929688 26 m 0,16,17
 410.002929688 26 410.002929688 26 474.739257812 85.5 c 128,-1,18
 539.475585938 145 539.475585938 145 563.716796875 250 c 128,-1,19
 587.958007812 355 587.958007812 355 550.6953125 414.5 c 128,-1,20
 513.431640625 474 513.431640625 474 422.431640625 474 c 0,21,22
 340.431640625 474 340.431640625 474 277.387695312 417.5 c 128,-1,23
 214.34375 361 214.34375 361 189.94921875 264 c 2,24,-1
 183.25390625 235 l 2,25,26
 163.859375 138 163.859375 138 200.931640625 82 c 128,-1,27
 238.002929688 26 238.002929688 26 319.002929688 26 c 0,16,17
EndSplineSet
Substitution2: "'smcp' Lowercase to Small Capitals lookup 12 subtable" b.sc
Substitution2: "'aalt' Access All Alternates lookup 0 subtable" b.sc
EndChar

StartChar: c
Encoding: 99 99 70
Width: 540
GlyphClass: 2
Flags: W
LayerCount: 2
Fore
SplineSet
407.743164062 510 m 0,0,1
 482.743164062 510 482.743164062 510 526.546875 474.5 c 128,-1,2
 570.3515625 439 570.3515625 439 577.575195312 375 c 1,3,-1
 535.189453125 356 l 1,4,5
 531.348632812 413 531.348632812 413 496.389648438 443.5 c 128,-1,6
 461.431640625 474 461.431640625 474 398.431640625 474 c 0,7,8
 307.431640625 474 307.431640625 474 242.6953125 414.5 c 128,-1,9
 177.958007812 355 177.958007812 355 153.716796875 250 c 128,-1,10
 129.475585938 145 129.475585938 145 166.239257812 85.5 c 128,-1,11
 203.002929688 26 203.002929688 26 293.002929688 26 c 0,12,13
 360.002929688 26 360.002929688 26 414.236328125 59.5 c 128,-1,14
 468.470703125 93 468.470703125 93 492.629882812 150 c 1,15,-1
 526.62890625 137 l 1,16,17
 493.9296875 69 493.9296875 69 428.810546875 29.5 c 128,-1,18
 363.69140625 -10 363.69140625 -10 285.69140625 -10 c 0,19,20
 175.69140625 -10 175.69140625 -10 130.12109375 59 c 128,-1,21
 84.55078125 128 84.55078125 128 112.716796875 250 c 128,-1,22
 140.8828125 372 140.8828125 372 219.3125 441 c 128,-1,23
 297.743164062 510 297.743164062 510 407.743164062 510 c 0,0,1
EndSplineSet
Substitution2: "'smcp' Lowercase to Small Capitals lookup 12 subtable" c.sc
Substitution2: "'aalt' Access All Alternates lookup 0 subtable" c.sc
EndChar

StartChar: d
Encoding: 100 100 71
Width: 603
GlyphClass: 2
Flags: W
LayerCount: 2
Fore
SplineSet
641.534179688 730 m 1,0,-1
 682.534179688 730 l 1,1,-1
 514 0 l 1,2,-1
 477 0 l 1,3,-1
 502.934570312 121 l 1,4,5
 468.852539062 60 468.852539062 60 410.271484375 25 c 128,-1,6
 351.69140625 -10 351.69140625 -10 281.69140625 -10 c 0,7,8
 174.69140625 -10 174.69140625 -10 130.12109375 59 c 128,-1,9
 85.55078125 128 85.55078125 128 113.716796875 250 c 128,-1,10
 141.8828125 372 141.8828125 372 218.3125 441 c 128,-1,11
 294.743164062 510 294.743164062 510 401.743164062 510 c 0,12,13
 469.743164062 510 469.743164062 510 511.624023438 477 c 128,-1,14
 553.505859375 444 553.505859375 444 561.883789062 385 c 1,15,-1
 641.534179688 730 l 1,0,-1
296.002929688 26 m 0,16,17
 379.002929688 26 379.002929688 26 442.624023438 85 c 128,-1,18
 506.245117188 144 506.245117188 144 529.5625 245 c 2,19,-1
 531.640625 254 l 2,20,21
 555.189453125 356 555.189453125 356 519.310546875 415 c 128,-1,22
 483.431640625 474 483.431640625 474 399.431640625 474 c 0,23,24
 308.431640625 474 308.431640625 474 243.6953125 414.5 c 128,-1,25
 178.958007812 355 178.958007812 355 154.716796875 250 c 128,-1,26
 130.475585938 145 130.475585938 145 167.739257812 85.5 c 128,-1,27
 205.002929688 26 205.002929688 26 296.002929688 26 c 0,16,17
EndSplineSet
Substitution2: "'smcp' Lowercase to Small Capitals lookup 12 subtable" d.sc
Substitution2: "'aalt' Access All Alternates lookup 0 subtable" d.sc
EndChar

StartChar: e
Encoding: 101 101 72
Width: 552
GlyphClass: 2
Flags: W
AnchorPoint: "Anchor-0" 292 0 basechar 0
LayerCount: 2
Fore
SplineSet
559.564453125 258 m 0,0,1
 558.178710938 252 558.178710938 252 555.600585938 243 c 128,-1,2
 553.0234375 234 553.0234375 234 552.561523438 232 c 2,3,-1
 149.561523438 232 l 1,4,5
 131.936523438 134 131.936523438 134 169.969726562 80 c 128,-1,6
 208.002929688 26 208.002929688 26 295.002929688 26 c 0,7,8
 355.002929688 26 355.002929688 26 405.889648438 51.5 c 128,-1,9
 456.776367188 77 456.776367188 77 488.396484375 123 c 1,10,-1
 518.241210938 105 l 1,11,12
 433.69140625 -10 433.69140625 -10 286.69140625 -10 c 0,13,14
 176.69140625 -10 176.69140625 -10 130.62109375 59 c 128,-1,15
 84.55078125 128 84.55078125 128 112.716796875 250 c 128,-1,16
 140.8828125 372 140.8828125 372 217.3125 441 c 128,-1,17
 293.743164062 510 293.743164062 510 401.743164062 510 c 0,18,19
 502.743164062 510 502.743164062 510 544.428710938 441.5 c 128,-1,20
 586.114257812 373 586.114257812 373 559.564453125 258 c 0,0,1
393.431640625 474 m 0,21,22
 308.431640625 474 308.431640625 474 246.96484375 420 c 128,-1,23
 185.498046875 366 185.498046875 366 157.873046875 268 c 1,24,-1
 523.873046875 268 l 1,25,26
 541.498046875 366 541.498046875 366 508.46484375 420 c 128,-1,27
 475.431640625 474 475.431640625 474 393.431640625 474 c 0,21,22
EndSplineSet
Substitution2: "'smcp' Lowercase to Small Capitals lookup 12 subtable" e.sc
Substitution2: "'aalt' Access All Alternates lookup 0 subtable" e.sc
EndChar

StartChar: f
Encoding: 102 102 73
Width: 349
GlyphClass: 2
Flags: W
LayerCount: 2
Fore
SplineSet
294.903320312 580 m 2,0,-1
 276.434570312 500 l 1,1,-1
 454.434570312 500 l 1,2,-1
 446.353515625 465 l 1,3,-1
 268.353515625 465 l 1,4,-1
 161 0 l 1,5,-1
 120 0 l 1,6,-1
 227.353515625 465 l 1,7,-1
 127.353515625 465 l 1,8,-1
 135.434570312 500 l 1,9,-1
 235.434570312 500 l 1,10,-1
 254.595703125 583 l 2,11,12
 270.98828125 654 270.98828125 654 317.837890625 694.5 c 128,-1,13
 364.688476562 735 364.688476562 735 434.688476562 735 c 0,14,15
 486.688476562 735 486.688476562 735 508.223632812 707 c 1,16,-1
 488.60546875 674 l 1,17,18
 469.146484375 698 469.146484375 698 429.146484375 698 c 0,19,20
 378.146484375 698 378.146484375 698 343.104492188 667.5 c 128,-1,21
 308.063476562 637 308.063476562 637 294.903320312 580 c 2,0,-1
EndSplineSet
Substitution2: "'smcp' Lowercase to Small Capitals lookup 12 subtable" f.sc
Substitution2: "'aalt' Access All Alternates lookup 0 subtable" f.sc
EndChar

StartChar: g
Encoding: 103 103 74
Width: 603
GlyphClass: 2
Flags: W
LayerCount: 2
Fore
SplineSet
594.203125 499 m 1,0,-1
 629.203125 499 l 1,1,-1
 518.848632812 21 l 2,2,3
 492.298828125 -94 492.298828125 -94 416.831054688 -154.5 c 128,-1,4
 341.36328125 -215 341.36328125 -215 226.36328125 -215 c 0,5,6
 143.36328125 -215 143.36328125 -215 96.2509765625 -183 c 128,-1,7
 49.138671875 -151 49.138671875 -151 49.9912109375 -91 c 1,8,-1
 93.916015625 -74 l 1,9,10
 91.3720703125 -124 91.3720703125 -124 128.5234375 -151.5 c 128,-1,11
 165.674804688 -179 165.674804688 -179 238.674804688 -179 c 0,12,13
 327.674804688 -179 327.674804688 -179 391.564453125 -127.5 c 128,-1,14
 455.454101562 -76 455.454101562 -76 475.770507812 12 c 2,15,-1
 499.087890625 113 l 1,16,17
 463.159179688 57 463.159179688 57 406.88671875 25.5 c 128,-1,18
 350.615234375 -6 350.615234375 -6 282.615234375 -6 c 0,19,20
 175.615234375 -6 175.615234375 -6 130.4296875 62.5 c 128,-1,21
 85.244140625 131 85.244140625 131 113.178710938 252 c 128,-1,22
 141.114257812 373 141.114257812 373 217.928710938 441.5 c 128,-1,23
 294.743164062 510 294.743164062 510 401.743164062 510 c 0,24,25
 470.743164062 510 470.743164062 510 512.739257812 477.5 c 128,-1,26
 554.736328125 445 554.736328125 445 564.345703125 387 c 1,27,-1
 594.203125 499 l 1,0,-1
295.92578125 30 m 0,28,29
 379.92578125 30 379.92578125 30 443.31640625 88 c 128,-1,30
 506.70703125 146 506.70703125 146 530.024414062 247 c 2,31,-1
 532.794921875 259 l 2,32,33
 554.650390625 358 554.650390625 358 518.541015625 416 c 128,-1,34
 482.431640625 474 482.431640625 474 398.431640625 474 c 0,35,36
 308.431640625 474 308.431640625 474 243.810546875 415 c 128,-1,37
 179.189453125 356 179.189453125 356 155.178710938 252 c 128,-1,38
 131.168945312 148 131.168945312 148 168.546875 89 c 128,-1,39
 205.92578125 30 205.92578125 30 295.92578125 30 c 0,28,29
EndSplineSet
Substitution2: "'ss01' Style Set 1 lookup 47 subtable" g.ss01
Substitution2: "'salt' Stylistic Alternatives lookup 42 subtable" g.ss01
Substitution2: "'smcp' Lowercase to Small Capitals lookup 12 subtable" g.sc
AlternateSubs2: "'aalt' Access All Alternates lookup 1 subtable" g.sc g.ss01
EndChar

StartChar: h
Encoding: 104 104 75
Width: 592
GlyphClass: 2
Flags: W
LayerCount: 2
Fore
SplineSet
437.973632812 511 m 0,0,1
 523.973632812 511 523.973632812 511 564.391601562 463 c 128,-1,2
 604.810546875 415 604.810546875 415 584.262695312 326 c 2,3,-1
 509.23046875 1 l 1,4,-1
 468.23046875 1 l 1,5,-1
 540.4921875 314 l 2,6,7
 558.731445312 393 558.731445312 393 527.197265625 434 c 128,-1,8
 495.662109375 475 495.662109375 475 424.662109375 475 c 0,9,10
 347.662109375 475 347.662109375 475 281.157226562 423 c 128,-1,11
 214.65234375 371 214.65234375 371 195.490234375 288 c 2,12,-1
 129 0 l 1,13,-1
 88 0 l 1,14,-1
 256.534179688 730 l 1,15,-1
 297.534179688 730 l 1,16,-1
 219.731445312 393 l 1,17,18
 255.66015625 449 255.66015625 449 313.81640625 480 c 128,-1,19
 371.973632812 511 371.973632812 511 437.973632812 511 c 0,0,1
EndSplineSet
Substitution2: "'smcp' Lowercase to Small Capitals lookup 12 subtable" h.sc
Substitution2: "'aalt' Access All Alternates lookup 0 subtable" h.sc
EndChar

StartChar: i
Encoding: 105 105 76
Width: 217
GlyphClass: 2
Flags: W
LayerCount: 2
Fore
SplineSet
246.828125 597 m 0,0,1
 229.828125 597 229.828125 597 222.251953125 607.5 c 128,-1,2
 214.676757812 618 214.676757812 618 218.370117188 634 c 128,-1,3
 222.064453125 650 222.064453125 650 234.48828125 660.5 c 128,-1,4
 246.912109375 671 246.912109375 671 263.912109375 671 c 0,5,6
 279.912109375 671 279.912109375 671 287.603515625 661 c 128,-1,7
 295.294921875 651 295.294921875 651 291.370117188 634 c 128,-1,8
 287.4453125 617 287.4453125 617 275.13671875 607 c 128,-1,9
 262.828125 597 262.828125 597 246.828125 597 c 0,0,1
244.434570312 500 m 1,10,-1
 129 0 l 1,11,-1
 88 0 l 1,12,-1
 203.434570312 500 l 1,13,-1
 244.434570312 500 l 1,10,-1
EndSplineSet
Substitution2: "'smcp' Lowercase to Small Capitals lookup 12 subtable" i.sc
Substitution2: "'locl' Localized Forms in Latin lookup 6 subtable" i.loclTRK
Substitution2: "'locl' Localized Forms in Latin lookup 5 subtable" i.loclTRK
Substitution2: "'locl' Localized Forms in Latin lookup 4 subtable" i.loclTRK
Substitution2: "'locl' Localized Forms in Latin lookup 3 subtable" i.loclTRK
Substitution2: "'locl' Localized Forms in Latin lookup 2 subtable" i.loclTRK
Substitution2: "'aalt' Access All Alternates lookup 0 subtable" i.sc
EndChar

StartChar: j
Encoding: 106 106 77
Width: 217
GlyphClass: 2
Flags: W
LayerCount: 2
Fore
SplineSet
263.912109375 671 m 0,0,1
 278.912109375 671 278.912109375 671 286.98828125 660.5 c 128,-1,2
 295.064453125 650 295.064453125 650 291.370117188 634 c 128,-1,3
 287.676757812 618 287.676757812 618 274.751953125 607.5 c 128,-1,4
 261.828125 597 261.828125 597 246.828125 597 c 0,5,6
 230.828125 597 230.828125 597 222.751953125 607.5 c 128,-1,7
 214.676757812 618 214.676757812 618 218.370117188 634 c 128,-1,8
 222.064453125 650 222.064453125 650 234.98828125 660.5 c 128,-1,9
 247.912109375 671 247.912109375 671 263.912109375 671 c 0,0,1
244.434570312 500 m 1,10,-1
 115.37890625 -59 l 2,11,12
 98.0634765625 -134 98.0634765625 -134 48.7138671875 -174.5 c 128,-1,13
 -0.63671875 -215 -0.63671875 -215 -60.63671875 -215 c 0,14,15
 -111.63671875 -215 -111.63671875 -215 -136.633789062 -189 c 1,16,-1
 -117.629882812 -150 l 1,17,18
 -95.6328125 -176 -95.6328125 -176 -51.6328125 -176 c 0,19,20
 -6.6328125 -176 -6.6328125 -176 27.6396484375 -144.5 c 128,-1,21
 61.912109375 -113 61.912109375 -113 75.0712890625 -56 c 2,22,-1
 203.434570312 500 l 1,23,-1
 244.434570312 500 l 1,10,-1
EndSplineSet
Substitution2: "'smcp' Lowercase to Small Capitals lookup 12 subtable" j.sc
Substitution2: "'aalt' Access All Alternates lookup 0 subtable" j.sc
EndChar

StartChar: k
Encoding: 107 107 78
Width: 515
GlyphClass: 2
Flags: W
AnchorPoint: "Anchor-0" 312 0 basechar 0
LayerCount: 2
Fore
SplineSet
449 0 m 1,0,-1
 313.333984375 270 l 1,1,-1
 164.553710938 154 l 1,2,-1
 129 0 l 1,3,-1
 88 0 l 1,4,-1
 256.534179688 730 l 1,5,-1
 297.534179688 730 l 1,6,-1
 176.55859375 206 l 1,7,-1
 552.434570312 500 l 1,8,-1
 606.434570312 500 l 1,9,-1
 350.029296875 299 l 1,10,-1
 499 0 l 1,11,-1
 449 0 l 1,0,-1
EndSplineSet
Substitution2: "'smcp' Lowercase to Small Capitals lookup 12 subtable" k.sc
Substitution2: "'aalt' Access All Alternates lookup 0 subtable" k.sc
EndChar

StartChar: l
Encoding: 108 108 79
Width: 264
GlyphClass: 2
Flags: W
AnchorPoint: "Anchor-0" 193 0 basechar 0
LayerCount: 2
Fore
SplineSet
293.534179688 730 m 1,0,-1
 152.2421875 118 l 2,1,2
 141.161132812 70 141.161132812 70 151.927734375 49.5 c 128,-1,3
 162.6953125 29 162.6953125 29 197.6953125 29 c 128,-1,4
 232.6953125 29 232.6953125 29 264.465820312 41 c 1,5,-1
 249.692382812 3 l 1,6,7
 220.69140625 -10 220.69140625 -10 182.69140625 -10 c 0,8,9
 81.69140625 -10 81.69140625 -10 110.319335938 114 c 2,10,-1
 252.534179688 730 l 1,11,-1
 293.534179688 730 l 1,0,-1
EndSplineSet
Substitution2: "'ss02' Style Set 2 lookup 48 subtable" l.ss02
Substitution2: "'salt' Stylistic Alternatives lookup 42 subtable" l.ss02
Substitution2: "'smcp' Lowercase to Small Capitals lookup 12 subtable" l.sc
AlternateSubs2: "'aalt' Access All Alternates lookup 1 subtable" l.sc l.ss02
Position2: "Single Positioning lookup 6 subtable" dx=0 dy=0 dh=-40 dv=0
EndChar

StartChar: m
Encoding: 109 109 80
Width: 962
GlyphClass: 2
Flags: W
LayerCount: 2
Fore
SplineSet
809.973632812 511 m 0,0,1
 892.973632812 511 892.973632812 511 934.391601562 463 c 128,-1,2
 975.810546875 415 975.810546875 415 955.494140625 327 c 2,3,-1
 880.23046875 1 l 1,4,-1
 839.23046875 1 l 1,5,-1
 913.33984375 322 l 2,6,7
 930.423828125 396 930.423828125 396 898.04296875 435.5 c 128,-1,8
 865.662109375 475 865.662109375 475 796.662109375 475 c 0,9,10
 719.662109375 475 719.662109375 475 654.541992188 422.5 c 128,-1,11
 589.420898438 370 589.420898438 370 571.413085938 292 c 2,12,-1
 504 0 l 1,13,-1
 463 0 l 1,14,-1
 537.108398438 321 l 2,15,16
 554.193359375 395 554.193359375 395 522.3125 434.5 c 128,-1,17
 490.431640625 474 490.431640625 474 421.431640625 474 c 0,18,19
 346.431640625 474 346.431640625 474 280.426757812 422 c 128,-1,20
 214.420898438 370 214.420898438 370 195.490234375 288 c 2,21,-1
 129 0 l 1,22,-1
 88 0 l 1,23,-1
 203.434570312 500 l 1,24,-1
 240.434570312 500 l 1,25,-1
 217.731445312 393 l 1,26,27
 254.198242188 447 254.198242188 447 312.470703125 478.5 c 128,-1,28
 370.743164062 510 370.743164062 510 433.743164062 510 c 0,29,30
 501.743164062 510 501.743164062 510 542.35546875 478 c 128,-1,31
 582.966796875 446 582.966796875 446 586.115234375 386 c 1,32,33
 618.274414062 443 618.274414062 443 680.624023438 477 c 128,-1,34
 742.973632812 511 742.973632812 511 809.973632812 511 c 0,0,1
EndSplineSet
Substitution2: "'smcp' Lowercase to Small Capitals lookup 12 subtable" m.sc
Substitution2: "'aalt' Access All Alternates lookup 0 subtable" m.sc
EndChar

StartChar: n
Encoding: 110 110 81
Width: 592
GlyphClass: 2
Flags: W
AnchorPoint: "Anchor-0" 330 0 basechar 0
LayerCount: 2
Fore
SplineSet
437.743164062 510 m 0,0,1
 523.743164062 510 523.743164062 510 564.161132812 462 c 128,-1,2
 604.579101562 414 604.579101562 414 584.032226562 325 c 2,3,-1
 509 0 l 1,4,-1
 468 0 l 1,5,-1
 540.26171875 313 l 2,6,7
 558.5 392 558.5 392 526.965820312 433 c 128,-1,8
 495.431640625 474 495.431640625 474 424.431640625 474 c 0,9,10
 347.431640625 474 347.431640625 474 280.926757812 422 c 128,-1,11
 214.420898438 370 214.420898438 370 195.258789062 287 c 2,12,-1
 129 0 l 1,13,-1
 88 0 l 1,14,-1
 203.434570312 500 l 1,15,-1
 240.434570312 500 l 1,16,-1
 217.5 392 l 1,17,18
 253.428710938 448 253.428710938 448 312.0859375 479 c 128,-1,19
 370.743164062 510 370.743164062 510 437.743164062 510 c 0,0,1
EndSplineSet
Substitution2: "Single Substitution lookup 57 subtable" n.swsh
Substitution2: "'swsh' Swash lookup 38 subtable" n.swsh
Substitution2: "'smcp' Lowercase to Small Capitals lookup 12 subtable" n.sc
AlternateSubs2: "'aalt' Access All Alternates lookup 1 subtable" n.sc n.swsh
EndChar

StartChar: o
Encoding: 111 111 82
Width: 584
GlyphClass: 2
Flags: W
LayerCount: 2
Fore
SplineSet
409.743164062 510 m 0,0,1
 520.743164062 510 520.743164062 510 567.8125 441 c 128,-1,2
 614.8828125 372 614.8828125 372 586.716796875 250 c 128,-1,3
 558.55078125 128 558.55078125 128 479.62109375 59 c 128,-1,4
 400.69140625 -10 400.69140625 -10 289.69140625 -10 c 0,5,6
 179.69140625 -10 179.69140625 -10 132.236328125 59.5 c 128,-1,7
 84.7822265625 129 84.7822265625 129 112.716796875 250 c 128,-1,8
 140.65234375 371 140.65234375 371 220.197265625 440.5 c 128,-1,9
 299.743164062 510 299.743164062 510 409.743164062 510 c 0,0,1
401.662109375 475 m 128,-1,11
 310.662109375 475 310.662109375 475 244.310546875 415 c 128,-1,12
 177.958007812 355 177.958007812 355 153.716796875 250 c 128,-1,13
 129.475585938 145 129.475585938 145 168.124023438 85 c 128,-1,14
 206.771484375 25 206.771484375 25 297.771484375 25 c 128,-1,15
 388.771484375 25 388.771484375 25 455.124023438 85 c 128,-1,16
 521.475585938 145 521.475585938 145 545.716796875 250 c 128,-1,17
 569.958007812 355 569.958007812 355 531.310546875 415 c 128,-1,10
 492.662109375 475 492.662109375 475 401.662109375 475 c 128,-1,11
EndSplineSet
Substitution2: "Single Substitution lookup 55 subtable" ordmasculine
Substitution2: "'smcp' Lowercase to Small Capitals lookup 12 subtable" o.sc
AlternateSubs2: "'aalt' Access All Alternates lookup 1 subtable" o.sc ordmasculine
EndChar

StartChar: p
Encoding: 112 112 83
Width: 603
GlyphClass: 2
Flags: W
LayerCount: 2
Fore
SplineSet
435.743164062 510 m 0,0,1
 542.743164062 510 542.743164062 510 587.8125 441 c 128,-1,2
 632.8828125 372 632.8828125 372 604.716796875 250 c 128,-1,3
 576.55078125 128 576.55078125 128 499.62109375 59 c 128,-1,4
 422.69140625 -10 422.69140625 -10 315.69140625 -10 c 0,5,6
 247.69140625 -10 247.69140625 -10 205.92578125 23.5 c 128,-1,7
 164.159179688 57 164.159179688 57 155.780273438 116 c 1,8,-1
 80.517578125 -210 l 1,9,-1
 39.517578125 -210 l 1,10,-1
 203.434570312 500 l 1,11,-1
 240.434570312 500 l 1,12,-1
 214.268554688 378 l 1,13,14
 248.58203125 440 248.58203125 440 307.162109375 475 c 128,-1,15
 365.743164062 510 365.743164062 510 435.743164062 510 c 0,0,1
319.002929688 26 m 0,16,17
 410.002929688 26 410.002929688 26 474.739257812 85.5 c 128,-1,18
 539.475585938 145 539.475585938 145 563.716796875 250 c 128,-1,19
 587.958007812 355 587.958007812 355 550.6953125 414.5 c 128,-1,20
 513.431640625 474 513.431640625 474 422.431640625 474 c 0,21,22
 341.431640625 474 341.431640625 474 278.502929688 418 c 128,-1,23
 215.57421875 362 215.57421875 362 190.1796875 265 c 2,24,-1
 183.485351562 236 l 2,25,26
 163.090820312 139 163.090820312 139 200.046875 82.5 c 128,-1,27
 237.002929688 26 237.002929688 26 319.002929688 26 c 0,16,17
EndSplineSet
Substitution2: "'smcp' Lowercase to Small Capitals lookup 12 subtable" p.sc
Substitution2: "'aalt' Access All Alternates lookup 0 subtable" p.sc
EndChar

StartChar: q
Encoding: 113 113 84
Width: 604
GlyphClass: 2
Flags: W
LayerCount: 2
Fore
SplineSet
593.434570312 500 m 1,0,-1
 630.434570312 500 l 1,1,-1
 466.517578125 -210 l 1,2,-1
 425.517578125 -210 l 1,3,-1
 500.549804688 115 l 1,4,5
 464.928710938 56 464.928710938 56 407.809570312 23 c 128,-1,6
 350.69140625 -10 350.69140625 -10 282.69140625 -10 c 0,7,8
 175.69140625 -10 175.69140625 -10 131.12109375 59 c 128,-1,9
 86.55078125 128 86.55078125 128 114.716796875 250 c 128,-1,10
 142.8828125 372 142.8828125 372 219.3125 441 c 128,-1,11
 295.743164062 510 295.743164062 510 402.743164062 510 c 0,12,13
 472.743164062 510 472.743164062 510 515.162109375 475 c 128,-1,14
 557.58203125 440 557.58203125 440 563.499023438 379 c 1,15,-1
 593.434570312 500 l 1,0,-1
530.793945312 246 m 2,16,-1
 532.87109375 255 l 2,17,18
 556.189453125 356 556.189453125 356 519.810546875 415 c 128,-1,19
 483.431640625 474 483.431640625 474 400.431640625 474 c 0,20,21
 309.431640625 474 309.431640625 474 244.6953125 414.5 c 128,-1,22
 179.958007812 355 179.958007812 355 155.716796875 250 c 128,-1,23
 131.475585938 145 131.475585938 145 168.739257812 85.5 c 128,-1,24
 206.002929688 26 206.002929688 26 297.002929688 26 c 0,25,26
 381.002929688 26 381.002929688 26 444.124023438 85 c 128,-1,27
 507.245117188 144 507.245117188 144 530.793945312 246 c 2,16,-1
EndSplineSet
Substitution2: "'smcp' Lowercase to Small Capitals lookup 12 subtable" q.sc
Substitution2: "'aalt' Access All Alternates lookup 0 subtable" q.sc
EndChar

StartChar: r
Encoding: 114 114 85
Width: 368
GlyphClass: 2
Flags: W
AnchorPoint: "Anchor-0" 118 0 basechar 0
LayerCount: 2
Fore
SplineSet
407.743164062 510 m 0,0,1
 448.743164062 510 448.743164062 510 468.356445312 491 c 1,2,-1
 447.814453125 454 l 1,3,4
 428.969726562 472 428.969726562 472 387.969726562 472 c 0,5,6
 326.969726562 472 326.969726562 472 269.772460938 417 c 128,-1,7
 212.57421875 362 212.57421875 362 194.3359375 283 c 2,8,-1
 129 0 l 1,9,-1
 88 0 l 1,10,-1
 203.434570312 500 l 1,11,-1
 238.434570312 500 l 1,12,-1
 218.5 392 l 1,13,14
 249.966796875 446 249.966796875 446 299.85546875 478 c 128,-1,15
 349.743164062 510 349.743164062 510 407.743164062 510 c 0,0,1
EndSplineSet
Substitution2: "Single Substitution lookup 57 subtable" r.swsh
Substitution2: "'swsh' Swash lookup 38 subtable" r.swsh
Substitution2: "'smcp' Lowercase to Small Capitals lookup 12 subtable" r.sc
AlternateSubs2: "'aalt' Access All Alternates lookup 1 subtable" r.sc r.swsh
EndChar

StartChar: s
Encoding: 115 115 86
Width: 498
GlyphClass: 2
Flags: W
AnchorPoint: "Anchor-0" 263 0 basechar 0
LayerCount: 2
Fore
SplineSet
246.69140625 -10 m 0,0,1
 169.69140625 -10 169.69140625 -10 121.1171875 20 c 128,-1,2
 72.54296875 50 72.54296875 50 65.93359375 108 c 1,3,-1
 106.012695312 130 l 1,4,5
 109.23828125 79 109.23828125 79 150.120117188 52.5 c 128,-1,6
 191.002929688 26 191.002929688 26 260.002929688 26 c 0,7,8
 332.002929688 26 332.002929688 26 378.966796875 54 c 128,-1,9
 425.931640625 82 425.931640625 82 436.55078125 128 c 0,10,11
 445.5546875 167 445.5546875 167 416.98046875 190.5 c 128,-1,12
 388.40625 214 388.40625 214 304.869140625 229 c 0,13,14
 204.024414062 247 204.024414062 247 168.912109375 279 c 128,-1,15
 133.799804688 311 133.799804688 311 147.190429688 369 c 0,16,17
 161.041992188 429 161.041992188 429 223.892578125 469.5 c 128,-1,18
 286.743164062 510 286.743164062 510 369.743164062 510 c 0,19,20
 526.743164062 510 526.743164062 510 531.345703125 387 c 1,21,-1
 491.498046875 366 l 1,22,23
 489.431640625 474 489.431640625 474 361.431640625 474 c 0,24,25
 297.431640625 474 297.431640625 474 248.236328125 445 c 128,-1,26
 199.041015625 416 199.041015625 416 189.344726562 374 c 0,27,28
 179.416992188 331 179.416992188 331 209.260742188 306.5 c 128,-1,29
 239.104492188 282 239.104492188 282 324.411132812 266 c 0,30,31
 422.486328125 249 422.486328125 249 456.713867188 217.5 c 128,-1,32
 490.94140625 186 490.94140625 186 477.782226562 129 c 0,33,34
 463.237304688 66 463.237304688 66 400.463867188 28 c 128,-1,35
 337.69140625 -10 337.69140625 -10 246.69140625 -10 c 0,0,1
EndSplineSet
Substitution2: "'hist' Historical Forms lookup 44 subtable" longs
Substitution2: "'smcp' Lowercase to Small Capitals lookup 12 subtable" s.sc
AlternateSubs2: "'aalt' Access All Alternates lookup 1 subtable" s.sc longs
EndChar

StartChar: t
Encoding: 116 116 87
Width: 364
GlyphClass: 2
Flags: W
AnchorPoint: "Anchor-0" 234 0 basechar 0
LayerCount: 2
Fore
SplineSet
354.006835938 65 m 1,0,-1
 362.157226562 31 l 1,1,2
 311.69140625 -10 311.69140625 -10 243.69140625 -10 c 0,3,4
 183.69140625 -10 183.69140625 -10 158.041015625 24 c 128,-1,5
 132.390625 58 132.390625 58 147.858398438 125 c 2,6,-1
 226.353515625 465 l 1,7,-1
 126.353515625 465 l 1,8,-1
 134.434570312 500 l 1,9,-1
 234.434570312 500 l 1,10,-1
 263.5234375 626 l 1,11,-1
 307.293945312 638 l 1,12,-1
 275.434570312 500 l 1,13,-1
 465.434570312 500 l 1,14,-1
 457.353515625 465 l 1,15,-1
 267.353515625 465 l 1,16,-1
 190.244140625 131 l 2,17,18
 166.463867188 28 166.463867188 28 258.463867188 28 c 0,19,20
 311.463867188 28 311.463867188 28 354.006835938 65 c 1,0,-1
EndSplineSet
Substitution2: "Single Substitution lookup 57 subtable" t.swsh
Substitution2: "'swsh' Swash lookup 38 subtable" t.swsh
Substitution2: "'smcp' Lowercase to Small Capitals lookup 12 subtable" t.sc
AlternateSubs2: "'aalt' Access All Alternates lookup 1 subtable" t.sc t.swsh
EndChar

StartChar: u
Encoding: 117 117 88
Width: 585
GlyphClass: 2
Flags: W
LayerCount: 2
Fore
SplineSet
571.434570312 500 m 1,0,-1
 612.434570312 500 l 1,1,-1
 497 0 l 1,2,-1
 460 0 l 1,3,-1
 482.703125 107 l 1,4,5
 446.774414062 51 446.774414062 51 387.732421875 20.5 c 128,-1,6
 328.69140625 -10 328.69140625 -10 258.69140625 -10 c 0,7,8
 176.69140625 -10 176.69140625 -10 139.196289062 35.5 c 128,-1,9
 101.700195312 81 101.700195312 81 122.016601562 169 c 2,10,-1
 198.434570312 500 l 1,11,-1
 239.434570312 500 l 1,12,-1
 165.325195312 179 l 2,13,14
 130.002929688 26 130.002929688 26 274.002929688 26 c 0,15,16
 360.002929688 26 360.002929688 26 423.584960938 80.5 c 128,-1,17
 487.166992188 135 487.166992188 135 504.250976562 209 c 2,18,-1
 571.434570312 500 l 1,0,-1
EndSplineSet
Substitution2: "'smcp' Lowercase to Small Capitals lookup 12 subtable" u.sc
Substitution2: "'aalt' Access All Alternates lookup 0 subtable" u.sc
EndChar

StartChar: v
Encoding: 118 118 89
Width: 496
GlyphClass: 2
Flags: W
LayerCount: 2
Fore
SplineSet
549.434570312 500 m 1,0,-1
 593.434570312 500 l 1,1,-1
 269 0 l 1,2,-1
 227 0 l 1,3,-1
 133.434570312 500 l 1,4,-1
 180.434570312 500 l 1,5,-1
 258.927734375 43 l 1,6,-1
 549.434570312 500 l 1,0,-1
EndSplineSet
Substitution2: "'smcp' Lowercase to Small Capitals lookup 12 subtable" v.sc
Substitution2: "'aalt' Access All Alternates lookup 0 subtable" v.sc
EndChar

StartChar: w
Encoding: 119 119 90
Width: 809
GlyphClass: 2
Flags: W
LayerCount: 2
Fore
SplineSet
847.434570312 500 m 1,0,-1
 892.434570312 500 l 1,1,-1
 608 0 l 1,2,-1
 567 0 l 1,3,-1
 506.428710938 448 l 1,4,-1
 242 0 l 1,5,-1
 201 0 l 1,6,-1
 147.434570312 500 l 1,7,-1
 192.434570312 500 l 1,8,-1
 234.3125 49 l 1,9,-1
 499.434570312 500 l 1,10,-1
 540.434570312 500 l 1,11,-1
 597.3125 49 l 1,12,-1
 847.434570312 500 l 1,0,-1
EndSplineSet
Substitution2: "'smcp' Lowercase to Small Capitals lookup 12 subtable" w.sc
Substitution2: "'aalt' Access All Alternates lookup 0 subtable" w.sc
EndChar

StartChar: x
Encoding: 120 120 91
Width: 496
GlyphClass: 2
Flags: W
LayerCount: 2
Fore
SplineSet
477 0 m 1,0,-1
 424 0 l 1,1,-1
 298.17578125 226 l 1,2,-1
 73 0 l 1,3,-1
 23 0 l 1,4,-1
 281.333007812 257 l 1,5,-1
 147.434570312 500 l 1,6,-1
 201.434570312 500 l 1,7,-1
 316.952148438 290 l 1,8,-1
 523.434570312 500 l 1,9,-1
 573.434570312 500 l 1,10,-1
 333.794921875 259 l 1,11,-1
 477 0 l 1,0,-1
EndSplineSet
Substitution2: "'smcp' Lowercase to Small Capitals lookup 12 subtable" x.sc
Substitution2: "'aalt' Access All Alternates lookup 0 subtable" x.sc
EndChar

StartChar: y
Encoding: 121 121 92
Width: 502
GlyphClass: 2
Flags: W
LayerCount: 2
Fore
SplineSet
597.434570312 500 m 1,0,-1
 217.298828125 -94 l 2,1,2
 173.599609375 -162 173.599609375 -162 134.481445312 -188.5 c 128,-1,3
 95.36328125 -215 95.36328125 -215 44.36328125 -215 c 0,4,5
 -17.63671875 -215 -17.63671875 -215 -38.3251953125 -179 c 1,6,-1
 -13.4755859375 -145 l 1,7,8
 2.6748046875 -179 2.6748046875 -179 52.6748046875 -179 c 0,9,10
 89.6748046875 -179 89.6748046875 -179 119.407226562 -158.5 c 128,-1,11
 149.140625 -138 149.140625 -138 183.375976562 -85 c 2,12,-1
 237 0 l 1,13,-1
 212.858398438 125 l 1,14,-1
 141.434570312 500 l 1,15,-1
 187.434570312 500 l 1,16,-1
 258.241210938 105 l 1,17,-1
 267.158203125 44 l 1,18,-1
 306.165039062 109 l 1,19,-1
 552.434570312 500 l 1,20,-1
 597.434570312 500 l 1,0,-1
EndSplineSet
Substitution2: "Single Substitution lookup 57 subtable" y.swsh
Substitution2: "'swsh' Swash lookup 38 subtable" y.swsh
Substitution2: "'smcp' Lowercase to Small Capitals lookup 12 subtable" y.sc
AlternateSubs2: "'aalt' Access All Alternates lookup 1 subtable" y.sc y.swsh
EndChar

StartChar: z
Encoding: 122 122 93
Width: 496
GlyphClass: 2
Flags: W
LayerCount: 2
Fore
SplineSet
46 0 m 1,0,-1
 53.3876953125 32 l 1,1,-1
 444.65625 410 l 1,2,-1
 506.353515625 465 l 1,3,-1
 149.353515625 465 l 1,4,-1
 157.434570312 500 l 1,5,-1
 560.434570312 500 l 1,6,-1
 553.045898438 468 l 1,7,-1
 176.548828125 102 l 1,8,-1
 102.080078125 35 l 1,9,-1
 466.080078125 35 l 1,10,-1
 458 0 l 1,11,-1
 46 0 l 1,0,-1
EndSplineSet
Substitution2: "'smcp' Lowercase to Small Capitals lookup 12 subtable" z.sc
Substitution2: "'aalt' Access All Alternates lookup 0 subtable" z.sc
EndChar

StartChar: braceleft
Encoding: 123 123 94
Width: 295
GlyphClass: 2
Flags: W
LayerCount: 2
Fore
SplineSet
153.455078125 -63 m 2,0,1
 144.451171875 -102 144.451171875 -102 165.103515625 -123 c 128,-1,2
 185.754882812 -144 185.754882812 -144 233.754882812 -144 c 1,3,-1
 221.13671875 -177 l 1,4,5
 88.13671875 -177 88.13671875 -177 114.916992188 -61 c 2,6,-1
 167.786132812 168 l 2,7,8
 190.411132812 266 190.411132812 266 77.4111328125 266 c 1,9,-1
 85.4912109375 301 l 1,10,11
 198.491210938 301 198.491210938 301 221.116210938 399 c 2,12,-1
 273.985351562 628 l 2,13,14
 300.765625 744 300.765625 744 433.765625 744 c 1,15,-1
 430.916015625 710 l 1,16,17
 331.916015625 710 331.916015625 710 313.447265625 630 c 2,18,-1
 259.654296875 397 l 2,19,20
 238.645507812 306 238.645507812 306 141.56640625 284 c 1,21,22
 228.256835938 261 228.256835938 261 207.478515625 171 c 2,23,-1
 153.455078125 -63 l 2,0,1
EndSplineSet
Substitution2: "'case' Case-Sensitive Forms lookup 29 subtable" braceleft.case
Substitution2: "'aalt' Access All Alternates lookup 0 subtable" braceleft.case
EndChar

StartChar: bar
Encoding: 124 124 95
Width: 197
GlyphClass: 2
Flags: W
LayerCount: 2
Fore
SplineSet
284.534179688 730 m 1,0,-1
 77.2138671875 -168 l 1,1,-1
 41.2138671875 -168 l 1,2,-1
 248.534179688 730 l 1,3,-1
 284.534179688 730 l 1,0,-1
EndSplineSet
Substitution2: "'case' Case-Sensitive Forms lookup 29 subtable" bar.case
Substitution2: "'aalt' Access All Alternates lookup 0 subtable" bar.case
EndChar

StartChar: braceright
Encoding: 125 125 96
Width: 295
GlyphClass: 2
Flags: W
LayerCount: 2
Fore
SplineSet
258.116210938 399 m 2,0,1
 235.491210938 301 235.491210938 301 348.491210938 301 c 1,2,-1
 340.411132812 266 l 1,3,4
 227.411132812 266 227.411132812 266 204.786132812 168 c 2,5,-1
 151.916992188 -61 l 2,6,7
 125.13671875 -177 125.13671875 -177 -7.86328125 -177 c 1,8,-1
 -5.2451171875 -144 l 1,9,10
 42.7548828125 -144 42.7548828125 -144 73.103515625 -123 c 128,-1,11
 103.451171875 -102 103.451171875 -102 112.455078125 -63 c 2,12,-1
 166.478515625 171 l 2,13,14
 187.256835938 261 187.256835938 261 285.56640625 284 c 1,15,16
 197.645507812 306 197.645507812 306 218.654296875 397 c 2,17,-1
 272.447265625 630 l 2,18,19
 290.916015625 710 290.916015625 710 191.916015625 710 c 1,20,-1
 204.765625 744 l 1,21,22
 337.765625 744 337.765625 744 310.985351562 628 c 2,23,-1
 258.116210938 399 l 2,0,1
EndSplineSet
Substitution2: "'case' Case-Sensitive Forms lookup 29 subtable" braceright.case
Substitution2: "'aalt' Access All Alternates lookup 0 subtable" braceright.case
EndChar

StartChar: asciitilde
Encoding: 126 126 97
Width: 503
GlyphClass: 2
Flags: W
LayerCount: 2
Fore
SplineSet
550.26953125 391 m 1,0,1
 509.48828125 275 509.48828125 275 414.48828125 275 c 0,2,3
 376.48828125 275 376.48828125 275 347.259765625 293.5 c 128,-1,4
 318.03125 312 318.03125 312 291.801757812 330.5 c 128,-1,5
 265.573242188 349 265.573242188 349 235.573242188 349 c 0,6,7
 176.573242188 349 176.573242188 349 144.795898438 272 c 1,8,-1
 105.795898438 272 l 1,9,10
 146.345703125 387 146.345703125 387 241.345703125 387 c 0,11,12
 279.345703125 387 279.345703125 387 308.575195312 368.5 c 128,-1,13
 337.803710938 350 337.803710938 350 364.033203125 331.5 c 128,-1,14
 390.26171875 313 390.26171875 313 420.26171875 313 c 0,15,16
 480.26171875 313 480.26171875 313 510.26953125 391 c 1,17,-1
 550.26953125 391 l 1,0,1
EndSplineSet
EndChar

StartChar: exclamdown
Encoding: 161 161 99
Width: 209
GlyphClass: 2
Flags: W
LayerCount: 2
Fore
SplineSet
204.041992188 429 m 0,0,1
 186.041992188 429 186.041992188 429 178.08203125 440 c 128,-1,2
 170.12109375 451 170.12109375 451 174.045898438 468 c 128,-1,3
 177.970703125 485 177.970703125 485 191.010742188 496 c 128,-1,4
 204.049804688 507 204.049804688 507 222.049804688 507 c 0,5,6
 239.049804688 507 239.049804688 507 247.010742188 496 c 128,-1,7
 254.970703125 485 254.970703125 485 251.045898438 468 c 128,-1,8
 247.12109375 451 247.12109375 451 234.08203125 440 c 128,-1,9
 221.041992188 429 221.041992188 429 204.041992188 429 c 0,0,1
46.0615234375 -160 m 1,10,-1
 122.248046875 170 l 1,11,-1
 160.723632812 315 l 1,12,-1
 193.723632812 315 l 1,13,-1
 165.248046875 170 l 1,14,-1
 89.0615234375 -160 l 1,15,-1
 46.0615234375 -160 l 1,10,-1
EndSplineSet
Substitution2: "'case' Case-Sensitive Forms lookup 29 subtable" exclamdown.case
Substitution2: "'smcp' Lowercase to Small Capitals lookup 12 subtable" exclamdown.sc
Substitution2: "'c2sc' Capitals to Small Capitals lookup 11 subtable" exclamdown.sc
AlternateSubs2: "'aalt' Access All Alternates lookup 1 subtable" exclamdown.sc exclamdown.case
EndChar

StartChar: cent
Encoding: 162 162 100
Width: 604
GlyphClass: 2
Flags: W
LayerCount: 2
Fore
SplineSet
554.62890625 137 m 1,0,1
 523.622070312 72 523.622070312 72 462.002929688 32.5 c 128,-1,2
 400.383789062 -7 400.383789062 -7 325.69140625 -10 c 1,3,-1
 304.913085938 -100 l 1,4,-1
 269.913085938 -100 l 1,5,-1
 290.921875 -9 l 1,6,7
 193.538085938 -2 193.538085938 -2 154.352539062 66.5 c 128,-1,8
 115.166992188 135 115.166992188 135 141.716796875 250 c 0,9,10
 168.036132812 364 168.036132812 364 238.850585938 432.5 c 128,-1,11
 309.665039062 501 309.665039062 501 410.51171875 509 c 1,12,-1
 431.520507812 600 l 1,13,-1
 466.520507812 600 l 1,14,-1
 445.743164062 510 l 1,15,16
 516.28125 508 516.28125 508 558.084960938 472.5 c 128,-1,17
 599.889648438 437 599.889648438 437 605.575195312 375 c 1,18,-1
 563.189453125 356 l 1,19,20
 559.88671875 411 559.88671875 411 528.043945312 442 c 128,-1,21
 496.200195312 473 496.200195312 473 437.893554688 476 c 1,22,-1
 333.541015625 24 l 1,23,24
 394.463867188 28 394.463867188 28 445.698242188 61.5 c 128,-1,25
 496.932617188 95 496.932617188 95 521.629882812 150 c 1,26,-1
 554.62890625 137 l 1,0,1
180.716796875 250 m 0,27,28
 157.629882812 150 157.629882812 150 188.008789062 91 c 128,-1,29
 218.387695312 32 218.387695312 32 298.771484375 25 c 1,30,-1
 402.662109375 475 l 1,31,32
 319.815429688 467 319.815429688 467 261.694335938 408 c 128,-1,33
 203.573242188 349 203.573242188 349 180.716796875 250 c 0,27,28
EndSplineSet
Substitution2: "'tnum' Tabular Numbers lookup 26 subtable" cent.tf
Substitution2: "'aalt' Access All Alternates lookup 0 subtable" cent.tf
EndChar

StartChar: sterling
Encoding: 163 163 101
Width: 604
GlyphClass: 2
Flags: W
LayerCount: 2
Fore
SplineSet
550.012695312 130 m 1,0,-1
 584.012695312 130 l 1,1,2
 567.852539062 60 567.852539062 60 526.771484375 25 c 128,-1,3
 485.69140625 -10 485.69140625 -10 426.69140625 -10 c 0,4,5
 396.69140625 -10 396.69140625 -10 370.73046875 1 c 128,-1,6
 344.770507812 12 344.770507812 12 331.809570312 23 c 128,-1,7
 318.849609375 34 318.849609375 34 297.697265625 55 c 1,8,9
 235.69140625 -10 235.69140625 -10 157.69140625 -10 c 0,10,11
 114.69140625 -10 114.69140625 -10 94.423828125 10.5 c 128,-1,12
 74.1572265625 31 74.1572265625 31 81.775390625 64 c 0,13,14
 89.625 98 89.625 98 121.588867188 119.5 c 128,-1,15
 153.552734375 141 153.552734375 141 200.552734375 141 c 0,16,17
 258.552734375 141 258.552734375 141 299.548828125 102 c 1,18,19
 316.474609375 132 316.474609375 132 323.169921875 161 c 0,20,21
 337.9453125 225 337.9453125 225 307.64453125 293 c 1,22,-1
 172.64453125 293 l 1,23,-1
 180.494140625 327 l 1,24,-1
 292.494140625 327 l 1,25,26
 255.194335938 408 255.194335938 408 271.81640625 480 c 0,27,28
 291.440429688 565 291.440429688 565 356.561523438 617.5 c 128,-1,29
 421.681640625 670 421.681640625 670 505.681640625 670 c 0,30,31
 577.681640625 670 577.681640625 670 613.677734375 631 c 128,-1,32
 649.673828125 592 649.673828125 592 646.282226562 521 c 1,33,-1
 604.895507812 502 l 1,34,35
 610.978515625 563 610.978515625 563 582.559570312 598 c 128,-1,36
 554.139648438 633 554.139648438 633 496.139648438 633 c 0,37,38
 427.139648438 633 427.139648438 633 377.2890625 592.5 c 128,-1,39
 327.439453125 552 327.439453125 552 311.970703125 485 c 0,40,41
 303.428710938 448 303.428710938 448 308.42578125 415.5 c 128,-1,42
 313.422851562 383 313.422851562 383 333.87890625 333 c 2,43,-1
 336.494140625 327 l 1,44,-1
 541.494140625 327 l 1,45,-1
 533.64453125 293 l 1,46,-1
 348.64453125 293 l 1,47,48
 371.407226562 227 371.407226562 227 356.169921875 161 c 0,49,50
 346.934570312 121 346.934570312 121 319.931640625 82 c 1,51,52
 340.313476562 62 340.313476562 62 350.236328125 53 c 128,-1,53
 360.158203125 44 360.158203125 44 381.849609375 34 c 128,-1,54
 403.541015625 24 403.541015625 24 429.541015625 24 c 0,55,56
 524.541015625 24 524.541015625 24 550.012695312 130 c 1,0,-1
169.6171875 20 m 0,57,58
 230.6171875 20 230.6171875 20 277.853515625 73 c 1,59,60
 237.165039062 109 237.165039062 109 194.165039062 109 c 0,61,62
 130.165039062 109 130.165039062 109 119.775390625 64 c 0,63,64
 109.6171875 20 109.6171875 20 169.6171875 20 c 0,57,58
EndSplineSet
Substitution2: "'tnum' Tabular Numbers lookup 26 subtable" sterling.tf
Substitution2: "'aalt' Access All Alternates lookup 0 subtable" sterling.tf
EndChar

StartChar: currency
Encoding: 164 164 102
Width: 604
GlyphClass: 2
Flags: W
LayerCount: 2
Fore
SplineSet
567.416992188 331 m 0,0,1
 550.333007812 257 550.333007812 257 499.55859375 206 c 1,2,-1
 574.93359375 108 l 1,3,-1
 541.700195312 81 l 1,4,-1
 466.094726562 178 l 1,5,6
 406.3984375 136 406.3984375 136 333.3984375 136 c 0,7,8
 259.3984375 136 259.3984375 136 218.325195312 179 c 1,9,-1
 99.7001953125 81 l 1,10,-1
 78.93359375 108 l 1,11,-1
 198.790039062 207 l 1,12,13
 171.333007812 257 171.333007812 257 188.416992188 331 c 0,14,15
 205.040039062 403 205.040039062 403 255.044921875 455 c 1,16,-1
 180.977539062 550 l 1,17,-1
 214.44140625 578 l 1,18,-1
 288.278320312 482 l 1,19,20
 347.206054688 525 347.206054688 525 423.206054688 525 c 0,21,22
 496.206054688 525 496.206054688 525 539.278320312 482 c 1,23,-1
 656.44140625 578 l 1,24,-1
 677.208007812 551 l 1,25,-1
 558.814453125 454 l 1,26,27
 584.040039062 403 584.040039062 403 567.416992188 331 c 0,0,1
341.940429688 173 m 128,-1,29
 408.940429688 173 408.940429688 173 459.483398438 216.5 c 128,-1,30
 510.025390625 260 510.025390625 260 526.416992188 331 c 128,-1,31
 542.80859375 402 542.80859375 402 512.236328125 445 c 128,-1,32
 481.6640625 488 481.6640625 488 414.6640625 488 c 128,-1,33
 347.6640625 488 347.6640625 488 296.62109375 444.5 c 128,-1,34
 245.578125 401 245.578125 401 229.416992188 331 c 0,35,36
 213.025390625 260 213.025390625 260 243.983398438 216.5 c 128,-1,28
 274.940429688 173 274.940429688 173 341.940429688 173 c 128,-1,29
EndSplineSet
Substitution2: "'tnum' Tabular Numbers lookup 26 subtable" currency.tf
Substitution2: "'aalt' Access All Alternates lookup 0 subtable" currency.tf
EndChar

StartChar: yen
Encoding: 165 165 103
Width: 604
GlyphClass: 2
Flags: W
LayerCount: 2
Fore
SplineSet
396.412109375 279 m 1,0,-1
 421.874023438 281 l 1,1,-1
 586.874023438 281 l 1,2,-1
 579.486328125 249 l 1,3,-1
 378.486328125 249 l 1,4,-1
 356.323242188 153 l 1,5,-1
 557.323242188 153 l 1,6,-1
 550.396484375 123 l 1,7,-1
 349.396484375 123 l 1,8,-1
 321 0 l 1,9,-1
 283 0 l 1,10,-1
 311.396484375 123 l 1,11,-1
 111.396484375 123 l 1,12,-1
 118.323242188 153 l 1,13,-1
 318.323242188 153 l 1,14,-1
 340.486328125 249 l 1,15,-1
 140.486328125 249 l 1,16,-1
 147.874023438 281 l 1,17,-1
 312.874023438 281 l 1,18,-1
 336.412109375 279 l 1,19,-1
 200.373046875 660 l 1,20,-1
 248.373046875 660 l 1,21,-1
 353.418945312 344 l 1,22,-1
 368.182617188 291 l 1,23,-1
 370.182617188 291 l 1,24,-1
 409.418945312 344 l 1,25,-1
 660.373046875 660 l 1,26,-1
 708.373046875 660 l 1,27,-1
 396.412109375 279 l 1,0,-1
EndSplineSet
Substitution2: "'tnum' Tabular Numbers lookup 26 subtable" yen.tf
Substitution2: "'aalt' Access All Alternates lookup 0 subtable" yen.tf
EndChar

StartChar: brokenbar
Encoding: 166 166 104
Width: 210
GlyphClass: 2
Flags: W
LayerCount: 2
Fore
SplineSet
291.534179688 730 m 1,0,-1
 207.266601562 365 l 1,1,-1
 171.266601562 365 l 1,2,-1
 255.534179688 730 l 1,3,-1
 291.534179688 730 l 1,0,-1
168.481445312 197 m 1,4,-1
 84.2138671875 -168 l 1,5,-1
 48.2138671875 -168 l 1,6,-1
 132.481445312 197 l 1,7,-1
 168.481445312 197 l 1,4,-1
EndSplineSet
EndChar

StartChar: section
Encoding: 167 167 105
Width: 560
GlyphClass: 2
Flags: W
LayerCount: 2
Fore
SplineSet
590.873046875 268 m 0,0,1
 580.252929688 222 580.252929688 222 542.75 189.5 c 128,-1,2
 505.24609375 157 505.24609375 157 452.321289062 140 c 1,3,4
 498.779296875 103 498.779296875 103 482.618164062 33 c 0,5,6
 468.536132812 -28 468.536132812 -28 407.5703125 -69 c 128,-1,7
 346.604492188 -110 346.604492188 -110 257.604492188 -110 c 0,8,9
 114.604492188 -110 114.604492188 -110 88.61328125 -19 c 1,10,-1
 125.384765625 6 l 1,11,12
 139.916015625 -74 139.916015625 -74 265.916015625 -74 c 0,13,14
 336.916015625 -74 336.916015625 -74 383.495117188 -45.5 c 128,-1,15
 430.075195312 -17 430.075195312 -17 440.92578125 30 c 0,16,17
 452.700195312 81 452.700195312 81 417.93359375 108 c 128,-1,18
 383.166992188 135 383.166992188 135 282.861328125 151 c 0,19,20
 172.5546875 167 172.5546875 167 133.942382812 199 c 128,-1,21
 95.330078125 231 95.330078125 231 109.413085938 292 c 0,22,23
 120.033203125 338 120.033203125 338 157.420898438 370 c 128,-1,24
 194.80859375 402 194.80859375 402 247.96484375 420 c 1,25,26
 202.044921875 455 202.044921875 455 218.66796875 527 c 0,27,28
 232.750976562 588 232.750976562 588 294.215820312 629 c 128,-1,29
 355.681640625 670 355.681640625 670 445.681640625 670 c 0,30,31
 588.681640625 670 588.681640625 670 612.672851562 579 c 1,32,-1
 577.131835938 555 l 1,33,34
 560.370117188 634 560.370117188 634 436.370117188 634 c 0,35,36
 364.370117188 634 364.370117188 634 317.791015625 605.5 c 128,-1,37
 271.2109375 577 271.2109375 577 260.360351562 530 c 0,38,39
 248.5859375 479 248.5859375 479 283.237304688 451.5 c 128,-1,40
 317.887695312 424 317.887695312 424 418.424804688 409 c 0,41,42
 527.731445312 393 527.731445312 393 566.34375 361 c 128,-1,43
 604.956054688 329 604.956054688 329 590.873046875 268 c 0,0,1
414.938476562 160 m 1,44,45
 531.865234375 190 531.865234375 190 549.1796875 265 c 0,46,47
 559.569335938 310 559.569335938 310 527.110351562 334 c 128,-1,48
 494.650390625 358 494.650390625 358 399.8828125 372 c 0,49,50
 326.422851562 383 326.422851562 383 284.116210938 399 c 1,51,52
 168.190429688 369 168.190429688 369 151.106445312 295 c 0,53,54
 140.716796875 250 140.716796875 250 173.291992188 226.5 c 128,-1,55
 205.866210938 203 205.866210938 203 301.403320312 188 c 0,56,57
 374.86328125 177 374.86328125 177 414.938476562 160 c 1,44,45
EndSplineSet
EndChar

StartChar: dieresis
Encoding: 168 168 106
Width: 530
GlyphClass: 2
Flags: W
LayerCount: 2
Fore
SplineSet
325.065429688 663 m 128,-1,1
 341.065429688 663 341.065429688 663 348.872070312 653.5 c 128,-1,2
 356.678710938 644 356.678710938 644 352.75390625 627 c 0,3,4
 349.060546875 611 349.060546875 611 336.8671875 601.5 c 128,-1,5
 324.673828125 592 324.673828125 592 308.673828125 592 c 128,-1,6
 292.673828125 592 292.673828125 592 285.3671875 601.5 c 128,-1,7
 278.060546875 611 278.060546875 611 281.75390625 627 c 128,-1,8
 285.448242188 643 285.448242188 643 297.256835938 653 c 128,-1,0
 309.065429688 663 309.065429688 663 325.065429688 663 c 128,-1,1
513.065429688 663 m 128,-1,10
 529.065429688 663 529.065429688 663 536.872070312 653.5 c 128,-1,11
 544.678710938 644 544.678710938 644 540.75390625 627 c 0,12,13
 537.060546875 611 537.060546875 611 524.8671875 601.5 c 128,-1,14
 512.673828125 592 512.673828125 592 496.673828125 592 c 128,-1,15
 480.673828125 592 480.673828125 592 473.3671875 601.5 c 128,-1,16
 466.060546875 611 466.060546875 611 469.75390625 627 c 128,-1,17
 473.448242188 643 473.448242188 643 485.256835938 653 c 128,-1,9
 497.065429688 663 497.065429688 663 513.065429688 663 c 128,-1,10
EndSplineSet
EndChar

StartChar: copyright
Encoding: 169 169 107
Width: 805
GlyphClass: 2
Flags: W
LayerCount: 2
Fore
SplineSet
557.681640625 670 m 128,-1,1
 712.681640625 670 712.681640625 670 784.7109375 577 c 128,-1,2
 856.740234375 484 856.740234375 484 821.186523438 330 c 128,-1,3
 785.6328125 176 785.6328125 176 670.662109375 83 c 128,-1,4
 555.69140625 -10 555.69140625 -10 400.69140625 -10 c 128,-1,5
 245.69140625 -10 245.69140625 -10 173.662109375 83 c 128,-1,6
 101.6328125 176 101.6328125 176 137.186523438 330 c 128,-1,7
 172.740234375 484 172.740234375 484 287.7109375 577 c 128,-1,0
 402.681640625 670 402.681640625 670 557.681640625 670 c 128,-1,1
549.83203125 636 m 0,8,9
 411.83203125 636 411.83203125 636 308.939453125 552 c 128,-1,10
 206.045898438 468 206.045898438 468 174.186523438 330 c 128,-1,11
 142.327148438 192 142.327148438 192 206.43359375 108 c 128,-1,12
 270.541015625 24 270.541015625 24 408.541015625 24 c 0,13,14
 545.541015625 24 545.541015625 24 648.43359375 108 c 128,-1,15
 751.327148438 192 751.327148438 192 783.186523438 330 c 128,-1,16
 815.045898438 468 815.045898438 468 750.939453125 552 c 128,-1,17
 686.83203125 636 686.83203125 636 549.83203125 636 c 0,8,9
531.435546875 513 m 0,18,19
 646.435546875 513 646.435546875 513 659.810546875 415 c 1,20,-1
 625.116210938 399 l 1,21,22
 617.047851562 481 617.047851562 481 523.047851562 481 c 0,23,24
 455.047851562 481 455.047851562 481 407.197265625 440.5 c 128,-1,25
 359.34765625 400 359.34765625 400 342.724609375 328 c 128,-1,26
 326.102539062 256 326.102539062 256 355.251953125 215.5 c 128,-1,27
 384.40234375 175 384.40234375 175 452.40234375 175 c 0,28,29
 499.40234375 175 499.40234375 175 538.827148438 198.5 c 128,-1,30
 578.252929688 222 578.252929688 222 598.71875 263 c 1,31,-1
 626.948242188 251 l 1,32,33
 599.404296875 201 599.404296875 201 551.208984375 172 c 128,-1,34
 503.013671875 143 503.013671875 143 446.013671875 143 c 0,35,36
 360.013671875 143 360.013671875 143 323.327148438 192 c 128,-1,37
 286.639648438 241 286.639648438 241 306.724609375 328 c 128,-1,38
 326.810546875 415 326.810546875 415 386.123046875 464 c 128,-1,39
 445.435546875 513 445.435546875 513 531.435546875 513 c 0,18,19
EndSplineSet
EndChar

StartChar: ordfeminine
Encoding: 170 170 108
Width: 364
GlyphClass: 2
Flags: W
LayerCount: 2
Fore
SplineSet
410.727539062 354 m 0,0,1
 425.727539062 354 425.727539062 354 436.881835938 359 c 1,2,-1
 429.110351562 334 l 1,3,4
 414.262695312 326 414.262695312 326 395.262695312 326 c 0,5,6
 343.262695312 326 343.262695312 326 353.883789062 385 c 1,7,8
 331.419921875 357 331.419921875 357 292.341796875 341.5 c 128,-1,9
 253.262695312 326 253.262695312 326 211.262695312 326 c 0,10,11
 161.262695312 326 161.262695312 326 137.2265625 347.5 c 128,-1,12
 113.190429688 369 113.190429688 369 122.194335938 408 c 0,13,14
 140.202148438 486 140.202148438 486 272.28125 508 c 2,15,-1
 382.66796875 527 l 1,16,-1
 388.439453125 552 l 2,17,18
 397.443359375 591 397.443359375 591 378.522460938 613 c 128,-1,19
 359.6015625 635 359.6015625 635 315.6015625 635 c 0,20,21
 232.6015625 635 232.6015625 635 192.1328125 568 c 1,22,-1
 168.365234375 582 l 1,23,24
 213.52734375 665 213.52734375 665 323.52734375 665 c 0,25,26
 383.52734375 665 383.52734375 665 410.447265625 636.5 c 128,-1,27
 437.368164062 608 437.368164062 608 424.901367188 554 c 2,28,-1
 387.5 392 l 2,29,30
 378.727539062 354 378.727539062 354 410.727539062 354 c 0,0,1
225.189453125 356 m 0,31,32
 268.189453125 356 268.189453125 356 310.883789062 378.5 c 128,-1,33
 353.578125 401 353.578125 401 362.58203125 440 c 2,34,-1
 376.665039062 501 l 1,35,-1
 279.740234375 484 l 2,36,37
 223.431640625 474 223.431640625 474 194.891601562 456.5 c 128,-1,38
 166.3515625 439 166.3515625 439 159.88671875 411 c 0,39,40
 147.189453125 356 147.189453125 356 225.189453125 356 c 0,31,32
82.40625 214 m 1,41,-1
 89.33203125 244 l 1,42,-1
 395.33203125 244 l 1,43,-1
 388.40625 214 l 1,44,-1
 82.40625 214 l 1,41,-1
EndSplineSet
EndChar

StartChar: guillemotleft
Encoding: 171 171 109
Width: 424
GlyphClass: 2
Flags: W
LayerCount: 2
Fore
SplineSet
338.430664062 461 m 1,0,-1
 154.1796875 265 l 1,1,-1
 247.9296875 69 l 1,2,-1
 200.9296875 69 l 1,3,-1
 109.1796875 265 l 1,4,-1
 291.430664062 461 l 1,5,-1
 338.430664062 461 l 1,0,-1
479.430664062 461 m 1,6,-1
 295.1796875 265 l 1,7,-1
 388.9296875 69 l 1,8,-1
 341.9296875 69 l 1,9,-1
 250.1796875 265 l 1,10,-1
 432.430664062 461 l 1,11,-1
 479.430664062 461 l 1,6,-1
EndSplineSet
Substitution2: "'case' Case-Sensitive Forms lookup 29 subtable" guillemotleft.case
Substitution2: "'aalt' Access All Alternates lookup 0 subtable" guillemotleft.case
EndChar

StartChar: logicalnot
Encoding: 172 172 110
Width: 604
GlyphClass: 2
Flags: W
LayerCount: 2
Fore
SplineSet
147.340820312 335 m 1,0,-1
 611.340820312 335 l 1,1,-1
 570.477539062 158 l 1,2,-1
 529.477539062 158 l 1,3,-1
 561.567382812 297 l 1,4,-1
 138.567382812 297 l 1,5,-1
 147.340820312 335 l 1,0,-1
EndSplineSet
EndChar

StartChar: uni00AD
Encoding: 173 173 111
Width: 453
GlyphClass: 2
Flags: W
LayerCount: 2
Fore
SplineSet
443.490234375 288 m 1,0,-1
 433.793945312 246 l 1,1,-1
 133.793945312 246 l 1,2,-1
 143.490234375 288 l 1,3,-1
 443.490234375 288 l 1,0,-1
EndSplineSet
EndChar

StartChar: registered
Encoding: 174 174 112
Width: 805
GlyphClass: 2
Flags: W
LayerCount: 2
Fore
SplineSet
557.681640625 670 m 128,-1,1
 712.681640625 670 712.681640625 670 784.7109375 577 c 128,-1,2
 856.740234375 484 856.740234375 484 821.186523438 330 c 128,-1,3
 785.6328125 176 785.6328125 176 670.662109375 83 c 128,-1,4
 555.69140625 -10 555.69140625 -10 400.69140625 -10 c 128,-1,5
 245.69140625 -10 245.69140625 -10 173.662109375 83 c 128,-1,6
 101.6328125 176 101.6328125 176 137.186523438 330 c 128,-1,7
 172.740234375 484 172.740234375 484 287.7109375 577 c 128,-1,0
 402.681640625 670 402.681640625 670 557.681640625 670 c 128,-1,1
408.541015625 24 m 0,8,9
 545.541015625 24 545.541015625 24 648.43359375 108 c 128,-1,10
 751.327148438 192 751.327148438 192 783.186523438 330 c 128,-1,11
 815.045898438 468 815.045898438 468 750.939453125 552 c 128,-1,12
 686.83203125 636 686.83203125 636 549.83203125 636 c 0,13,14
 411.83203125 636 411.83203125 636 308.939453125 552 c 128,-1,15
 206.045898438 468 206.045898438 468 174.186523438 330 c 128,-1,16
 142.327148438 192 142.327148438 192 206.43359375 108 c 128,-1,17
 270.541015625 24 270.541015625 24 408.541015625 24 c 0,8,9
652.501953125 405 m 0,18,19
 642.34375 361 642.34375 361 611.110351562 334 c 128,-1,20
 579.876953125 307 579.876953125 307 531.260742188 300 c 1,21,-1
 599.013671875 143 l 1,22,-1
 558.013671875 143 l 1,23,-1
 492.798828125 298 l 1,24,-1
 382.798828125 298 l 1,25,-1
 347.013671875 143 l 1,26,-1
 311.013671875 143 l 1,27,-1
 396.435546875 513 l 1,28,-1
 550.435546875 513 l 2,29,30
 610.435546875 513 610.435546875 513 637.470703125 485 c 128,-1,31
 664.506835938 457 664.506835938 457 652.501953125 405 c 0,18,19
425.970703125 485 m 1,32,-1
 389.262695312 326 l 1,33,-1
 506.262695312 326 l 2,34,35
 599.262695312 326 599.262695312 326 617.501953125 405 c 0,36,37
 635.970703125 485 635.970703125 485 542.970703125 485 c 2,38,-1
 425.970703125 485 l 1,32,-1
EndSplineSet
Substitution2: "'ordn' Ordinals lookup 22 subtable" registeredsuperior
Substitution2: "'sups' Superscript lookup 15 subtable" registeredsuperior
Substitution2: "'aalt' Access All Alternates lookup 0 subtable" registeredsuperior
EndChar

StartChar: macron
Encoding: 175 175 113
Width: 530
GlyphClass: 2
Flags: W
LayerCount: 2
Fore
SplineSet
567.83203125 636 m 1,0,-1
 559.751953125 601 l 1,1,-1
 248.751953125 601 l 1,2,-1
 256.83203125 636 l 1,3,-1
 567.83203125 636 l 1,0,-1
EndSplineSet
EndChar

StartChar: degree
Encoding: 176 176 114
Width: 405
GlyphClass: 2
Flags: W
LayerCount: 2
Fore
SplineSet
290.037109375 377 m 128,-1,1
 224.037109375 377 224.037109375 377 192.387695312 417.5 c 128,-1,2
 160.737304688 458 160.737304688 458 175.744140625 523 c 128,-1,3
 190.750976562 588 190.750976562 588 241.215820312 629 c 128,-1,4
 291.681640625 670 291.681640625 670 357.681640625 670 c 128,-1,5
 423.681640625 670 423.681640625 670 455.215820312 629 c 128,-1,6
 486.750976562 588 486.750976562 588 471.744140625 523 c 128,-1,7
 456.737304688 458 456.737304688 458 406.387695312 417.5 c 128,-1,0
 356.037109375 377 356.037109375 377 290.037109375 377 c 128,-1,1
297.65625 410 m 0,8,9
 346.65625 410 346.65625 410 384.928710938 441.5 c 128,-1,10
 423.200195312 473 423.200195312 473 434.744140625 523 c 128,-1,11
 446.287109375 573 446.287109375 573 422.559570312 604.5 c 128,-1,12
 398.83203125 636 398.83203125 636 349.83203125 636 c 0,13,14
 299.83203125 636 299.83203125 636 262.059570312 604.5 c 128,-1,15
 224.287109375 573 224.287109375 573 212.744140625 523 c 128,-1,16
 201.200195312 473 201.200195312 473 224.428710938 441.5 c 128,-1,17
 247.65625 410 247.65625 410 297.65625 410 c 0,8,9
EndSplineSet
EndChar

StartChar: plusminus
Encoding: 177 177 115
Width: 604
GlyphClass: 2
Flags: W
LayerCount: 2
Fore
SplineSet
413.654296875 397 m 1,0,-1
 625.654296875 397 l 1,1,-1
 617.112304688 360 l 1,2,-1
 405.112304688 360 l 1,3,-1
 350.858398438 125 l 1,4,-1
 311.858398438 125 l 1,5,-1
 366.112304688 360 l 1,6,-1
 153.112304688 360 l 1,7,-1
 161.654296875 397 l 1,8,-1
 374.654296875 397 l 1,9,-1
 428.215820312 629 l 1,10,-1
 467.215820312 629 l 1,11,-1
 413.654296875 397 l 1,0,-1
70 0 m 1,12,-1
 78.7734375 38 l 1,13,-1
 542.7734375 38 l 1,14,-1
 534 0 l 1,15,-1
 70 0 l 1,12,-1
EndSplineSet
EndChar

StartChar: uni00B2
Encoding: 178 178 116
Width: 343
GlyphClass: 2
Flags: W
LayerCount: 2
Fore
SplineSet
114.87890625 333 m 1,0,-1
 121.34375 361 l 1,1,2
 204.272460938 417 204.272460938 417 245.966796875 446 c 0,3,4
 317.510742188 496 317.510742188 496 355.283203125 534 c 128,-1,5
 393.056640625 572 393.056640625 572 402.291015625 612 c 0,6,7
 411.98828125 654 411.98828125 654 392.259765625 679 c 128,-1,8
 372.53125 704 372.53125 704 328.53125 704 c 0,9,10
 282.53125 704 282.53125 704 248.567382812 676 c 128,-1,11
 214.602539062 648 214.602539062 648 201.290039062 599 c 1,12,-1
 169.830078125 610 l 1,13,14
 187.989257812 667 187.989257812 667 232.338867188 701 c 128,-1,15
 276.688476562 735 276.688476562 735 336.688476562 735 c 0,16,17
 398.688476562 735 398.688476562 735 426.338867188 701 c 128,-1,18
 453.989257812 667 453.989257812 667 441.522460938 613 c 0,19,20
 422.360351562 530 422.360351562 530 268.041992188 429 c 0,21,22
 253.96484375 420 253.96484375 420 221.270507812 397.5 c 128,-1,23
 188.575195312 375 188.575195312 375 171.036132812 364 c 1,24,-1
 170.8046875 363 l 1,25,-1
 212.036132812 364 l 1,26,-1
 397.036132812 364 l 1,27,-1
 389.87890625 333 l 1,28,-1
 114.87890625 333 l 1,0,-1
EndSplineSet
EndChar

StartChar: uni00B3
Encoding: 179 179 117
Width: 328
GlyphClass: 2
Flags: W
LayerCount: 2
Fore
SplineSet
326.688476562 735 m 0,0,1
 384.688476562 735 384.688476562 735 410.877929688 705.5 c 128,-1,2
 437.067382812 676 437.067382812 676 426.215820312 629 c 0,3,4
 417.443359375 591 417.443359375 591 390.671875 566 c 128,-1,5
 363.899414062 541 363.899414062 541 329.283203125 534 c 1,6,-1
 328.822265625 532 l 1,7,8
 364.12890625 529 364.12890625 529 382.7421875 503.5 c 128,-1,9
 401.35546875 478 401.35546875 478 392.3515625 439 c 0,10,11
 380.577148438 388 380.577148438 388 335.53515625 357.5 c 128,-1,12
 290.494140625 327 290.494140625 327 231.494140625 327 c 0,13,14
 121.494140625 327 121.494140625 327 114.96484375 420 c 1,15,-1
 152.889648438 437 l 1,16,17
 150.650390625 358 150.650390625 358 239.650390625 358 c 0,18,19
 282.650390625 358 282.650390625 358 314.345703125 380.5 c 128,-1,20
 346.040039062 403 346.040039062 403 355.043945312 442 c 0,21,22
 363.35546875 478 363.35546875 478 343.97265625 498 c 128,-1,23
 324.58984375 518 324.58984375 518 279.58984375 518 c 2,24,-1
 254.58984375 518 l 1,25,-1
 261.053710938 546 l 1,26,-1
 285.053710938 546 l 2,27,28
 325.053710938 546 325.053710938 546 352.1328125 568 c 128,-1,29
 379.211914062 590 379.211914062 590 387.29296875 625 c 0,30,31
 395.834960938 662 395.834960938 662 377.682617188 683 c 128,-1,32
 359.53125 704 359.53125 704 318.53125 704 c 0,33,34
 241.53125 704 241.53125 704 210.83203125 636 c 1,35,-1
 179.833007812 649 l 1,36,37
 200.298828125 690 200.298828125 690 239.493164062 712.5 c 128,-1,38
 278.688476562 735 278.688476562 735 326.688476562 735 c 0,0,1
EndSplineSet
EndChar

StartChar: acute
Encoding: 180 180 118
Width: 530
GlyphClass: 2
Flags: W
LayerCount: 2
Fore
SplineSet
513.380859375 738 m 1,0,-1
 557.380859375 738 l 1,1,-1
 430.595703125 583 l 1,2,-1
 395.595703125 583 l 1,3,-1
 513.380859375 738 l 1,0,-1
EndSplineSet
EndChar

StartChar: uni00B5
Encoding: 181 181 119
Width: 573
GlyphClass: 2
Flags: W
LayerCount: 2
Fore
SplineSet
568.434570312 500 m 1,0,-1
 609.434570312 500 l 1,1,-1
 494 0 l 1,2,-1
 459 0 l 1,3,-1
 480.93359375 108 l 1,4,5
 445.236328125 53 445.236328125 53 386.463867188 21.5 c 128,-1,6
 327.69140625 -10 327.69140625 -10 255.69140625 -10 c 0,7,8
 158.69140625 -10 158.69140625 -10 135.467773438 67 c 1,9,-1
 71.517578125 -210 l 1,10,-1
 30.517578125 -210 l 1,11,-1
 194.434570312 500 l 1,12,-1
 235.434570312 500 l 1,13,-1
 161.325195312 179 l 2,14,15
 143.779296875 103 143.779296875 103 173.890625 64.5 c 128,-1,16
 204.002929688 26 204.002929688 26 271.002929688 26 c 0,17,18
 350.002929688 26 350.002929688 26 413.583984375 74 c 128,-1,19
 477.166015625 122 477.166015625 122 497.557617188 193 c 1,20,-1
 568.434570312 500 l 1,0,-1
EndSplineSet
EndChar

StartChar: paragraph
Encoding: 182 182 120
Width: 571
GlyphClass: 2
Flags: W
LayerCount: 2
Fore
SplineSet
638.373046875 660 m 1,0,-1
 462.913085938 -100 l 1,1,-1
 425.913085938 -100 l 1,2,-1
 593.29296875 625 l 1,3,-1
 458.29296875 625 l 1,4,-1
 290.913085938 -100 l 1,5,-1
 252.913085938 -100 l 1,6,-1
 328.869140625 229 l 1,7,8
 219.869140625 229 219.869140625 229 167.10546875 288.5 c 128,-1,9
 114.341796875 348 114.341796875 348 136.736328125 445 c 128,-1,10
 159.130859375 542 159.130859375 542 240.251953125 601 c 128,-1,11
 321.373046875 660 321.373046875 660 433.373046875 660 c 2,12,-1
 638.373046875 660 l 1,0,-1
420.29296875 625 m 1,13,14
 327.29296875 625 327.29296875 625 261.48046875 576 c 128,-1,15
 195.66796875 527 195.66796875 527 176.736328125 445 c 0,16,17
 157.57421875 362 157.57421875 362 200.26171875 313 c 128,-1,18
 242.94921875 264 242.94921875 264 336.94921875 264 c 1,19,-1
 420.29296875 625 l 1,13,14
EndSplineSet
Substitution2: "'ornm' Ornaments lookup 40 subtable" uni2761
Substitution2: "'aalt' Access All Alternates lookup 0 subtable" uni2761
EndChar

StartChar: periodcentered
Encoding: 183 183 121
Width: 205
GlyphClass: 2
Flags: W
LayerCount: 2
Fore
SplineSet
194.654296875 397 m 0,0,1
 211.654296875 397 211.654296875 397 219.615234375 386 c 128,-1,2
 227.575195312 375 227.575195312 375 223.650390625 358 c 128,-1,3
 219.725585938 341 219.725585938 341 206.686523438 330 c 128,-1,4
 193.646484375 319 193.646484375 319 176.646484375 319 c 0,5,6
 158.646484375 319 158.646484375 319 150.686523438 330 c 128,-1,7
 142.725585938 341 142.725585938 341 146.650390625 358 c 128,-1,8
 150.575195312 375 150.575195312 375 163.615234375 386 c 128,-1,9
 176.654296875 397 176.654296875 397 194.654296875 397 c 0,0,1
EndSplineSet
Substitution2: "Single Substitution lookup 55 subtable" periodcentered.loclCAT.sc
Substitution2: "Single Substitution lookup 54 subtable" periodcentered.loclCAT.case
Substitution2: "Single Substitution lookup 53 subtable" periodcentered.loclCAT
Substitution2: "'case' Case-Sensitive Forms lookup 29 subtable" periodcentered.case
Substitution2: "'smcp' Lowercase to Small Capitals lookup 12 subtable" periodcentered.sc
Substitution2: "'c2sc' Capitals to Small Capitals lookup 11 subtable" periodcentered.sc
AlternateSubs2: "'aalt' Access All Alternates lookup 1 subtable" periodcentered.sc periodcentered.case
Position2: "Single Positioning lookup 6 subtable" dx=0 dy=0 dh=-30 dv=0
EndChar

StartChar: cedilla
Encoding: 184 184 122
Width: 530
GlyphClass: 2
Flags: W
LayerCount: 2
Fore
SplineSet
233.692382812 3 m 1,0,-1
 266.000976562 13 l 1,1,2
 369.612304688 -32 369.612304688 -32 350.680664062 -114 c 0,3,4
 341.446289062 -154 341.446289062 -154 308.328125 -180.5 c 128,-1,5
 275.209960938 -207 275.209960938 -207 230.209960938 -207 c 0,6,7
 164.209960938 -207 164.209960938 -207 139.213867188 -168 c 1,8,-1
 161.909179688 -139 l 1,9,10
 184.3671875 -176 184.3671875 -176 233.3671875 -176 c 0,11,12
 262.3671875 -176 262.3671875 -176 285.022460938 -158 c 128,-1,13
 307.678710938 -140 307.678710938 -140 314.604492188 -110 c 0,14,15
 322.223632812 -77 322.223632812 -77 305.379882812 -52.5 c 128,-1,16
 288.536132812 -28 288.536132812 -28 233.692382812 3 c 1,0,-1
EndSplineSet
EndChar

StartChar: uni00B9
Encoding: 185 185 123
Width: 213
GlyphClass: 2
Flags: W
LayerCount: 2
Fore
SplineSet
293.534179688 730 m 1,0,-1
 325.534179688 730 l 1,1,-1
 233.87890625 333 l 1,2,-1
 196.87890625 333 l 1,3,-1
 263.138671875 620 l 2,4,5
 273.296875 664 273.296875 664 280.606445312 687 c 1,6,7
 226.524414062 639 226.524414062 639 153.907226562 619 c 1,8,-1
 161.294921875 651 l 1,9,10
 193.142578125 659 193.142578125 659 232.952148438 682 c 128,-1,11
 272.76171875 705 272.76171875 705 293.534179688 730 c 1,0,-1
EndSplineSet
EndChar

StartChar: ordmasculine
Encoding: 186 186 124
Width: 356
GlyphClass: 2
Flags: W
LayerCount: 2
Fore
SplineSet
253.494140625 327 m 128,-1,1
 107.494140625 327 107.494140625 327 146.510742188 496 c 128,-1,2
 185.52734375 665 185.52734375 665 331.52734375 665 c 128,-1,3
 477.52734375 665 477.52734375 665 438.510742188 496 c 128,-1,0
 399.494140625 327 399.494140625 327 253.494140625 327 c 128,-1,1
260.419921875 357 m 128,-1,5
 369.419921875 357 369.419921875 357 401.510742188 496 c 128,-1,6
 433.6015625 635 433.6015625 635 324.6015625 635 c 128,-1,7
 215.6015625 635 215.6015625 635 183.510742188 496 c 128,-1,4
 151.419921875 357 151.419921875 357 260.419921875 357 c 128,-1,5
90.40625 214 m 1,8,-1
 97.33203125 244 l 1,9,-1
 371.33203125 244 l 1,10,-1
 364.40625 214 l 1,11,-1
 90.40625 214 l 1,8,-1
EndSplineSet
EndChar

StartChar: guillemotright
Encoding: 187 187 125
Width: 421
GlyphClass: 2
Flags: W
LayerCount: 2
Fore
SplineSet
154.430664062 461 m 1,0,-1
 201.430664062 461 l 1,1,-1
 293.1796875 265 l 1,2,-1
 110.9296875 69 l 1,3,-1
 63.9296875 69 l 1,4,-1
 248.1796875 265 l 1,5,-1
 154.430664062 461 l 1,0,-1
295.430664062 461 m 1,6,-1
 342.430664062 461 l 1,7,-1
 434.1796875 265 l 1,8,-1
 251.9296875 69 l 1,9,-1
 204.9296875 69 l 1,10,-1
 388.1796875 265 l 1,11,-1
 295.430664062 461 l 1,6,-1
EndSplineSet
Substitution2: "'case' Case-Sensitive Forms lookup 29 subtable" guillemotright.case
Substitution2: "'aalt' Access All Alternates lookup 0 subtable" guillemotright.case
EndChar

StartChar: onequarter
Encoding: 188 188 126
Width: 695
GlyphClass: 2
Flags: W
LayerCount: 2
Fore
SplineSet
265.599609375 622 m 1,0,1
 211.518554688 574 211.518554688 574 138.901367188 554 c 1,2,-1
 146.2890625 586 l 1,3,4
 178.135742188 594 178.135742188 594 217.9453125 617 c 128,-1,5
 257.755859375 640 257.755859375 640 278.52734375 665 c 1,6,-1
 310.52734375 665 l 1,7,-1
 218.873046875 268 l 1,8,-1
 181.873046875 268 l 1,9,-1
 248.131835938 555 l 2,10,11
 252.98046875 576 252.98046875 576 265.599609375 622 c 1,0,1
689.373046875 660 m 1,12,-1
 731.373046875 660 l 1,13,-1
 109 0 l 1,14,-1
 67 0 l 1,15,-1
 689.373046875 660 l 1,12,-1
629.3984375 136 m 1,16,-1
 706.3984375 136 l 1,17,-1
 699.93359375 108 l 1,18,-1
 622.93359375 108 l 1,19,-1
 597.076171875 -4 l 1,20,-1
 564.076171875 -4 l 1,21,-1
 589.93359375 108 l 1,22,-1
 391.93359375 108 l 1,23,-1
 397.244140625 131 l 1,24,-1
 645.731445312 393 l 1,25,-1
 688.731445312 393 l 1,26,-1
 629.3984375 136 l 1,16,-1
635.415039062 305 m 2,27,28
 643.95703125 342 643.95703125 342 649.34375 361 c 1,29,-1
 647.34375 361 l 1,30,31
 622.416992188 331 622.416992188 331 604.03125 312 c 2,32,-1
 435.3984375 136 l 1,33,-1
 596.3984375 136 l 1,34,-1
 635.415039062 305 l 2,27,28
EndSplineSet
EndChar

StartChar: onehalf
Encoding: 189 189 127
Width: 776
GlyphClass: 2
Flags: W
LayerCount: 2
Fore
SplineSet
265.599609375 622 m 1,0,1
 211.518554688 574 211.518554688 574 138.901367188 554 c 1,2,-1
 146.2890625 586 l 1,3,4
 178.135742188 594 178.135742188 594 217.9453125 617 c 128,-1,5
 257.755859375 640 257.755859375 640 278.52734375 665 c 1,6,-1
 310.52734375 665 l 1,7,-1
 218.873046875 268 l 1,8,-1
 181.873046875 268 l 1,9,-1
 248.131835938 555 l 2,10,11
 252.98046875 576 252.98046875 576 265.599609375 622 c 1,0,1
689.373046875 660 m 1,12,-1
 731.373046875 660 l 1,13,-1
 109 0 l 1,14,-1
 67 0 l 1,15,-1
 689.373046875 660 l 1,12,-1
567.233398438 27 m 1,16,-1
 752.233398438 27 l 1,17,-1
 745.076171875 -4 l 1,18,-1
 470.076171875 -4 l 1,19,-1
 476.541015625 24 l 1,20,21
 559.469726562 80 559.469726562 80 601.165039062 109 c 0,22,23
 672.708007812 159 672.708007812 159 710.481445312 197 c 128,-1,24
 748.25390625 235 748.25390625 235 757.48828125 275 c 0,25,26
 767.185546875 317 767.185546875 317 747.45703125 342 c 128,-1,27
 727.728515625 367 727.728515625 367 683.728515625 367 c 0,28,29
 637.728515625 367 637.728515625 367 603.764648438 339 c 128,-1,30
 569.799804688 311 569.799804688 311 556.487304688 262 c 1,31,-1
 525.02734375 273 l 1,32,33
 543.186523438 330 543.186523438 330 587.536132812 364 c 128,-1,34
 631.885742188 398 631.885742188 398 691.885742188 398 c 0,35,36
 753.885742188 398 753.885742188 398 781.536132812 364 c 128,-1,37
 809.186523438 330 809.186523438 330 796.719726562 276 c 0,38,39
 777.557617188 193 777.557617188 193 623.240234375 92 c 0,40,41
 609.162109375 83 609.162109375 83 576.467773438 60.5 c 128,-1,42
 543.7734375 38 543.7734375 38 526.233398438 27 c 1,43,-1
 526.002929688 26 l 1,44,-1
 567.233398438 27 l 1,16,-1
EndSplineSet
EndChar

StartChar: threequarters
Encoding: 190 190 128
Width: 810
GlyphClass: 2
Flags: W
LayerCount: 2
Fore
SplineSet
311.681640625 670 m 0,0,1
 369.681640625 670 369.681640625 670 395.87109375 640.5 c 128,-1,2
 422.060546875 611 422.060546875 611 411.209960938 564 c 0,3,4
 402.436523438 526 402.436523438 526 375.665039062 501 c 128,-1,5
 348.893554688 476 348.893554688 476 314.27734375 469 c 1,6,-1
 313.815429688 467 l 1,7,8
 349.123046875 464 349.123046875 464 367.735351562 438.5 c 128,-1,9
 386.348632812 413 386.348632812 413 377.344726562 374 c 0,10,11
 365.5703125 323 365.5703125 323 320.529296875 292.5 c 128,-1,12
 275.487304688 262 275.487304688 262 216.487304688 262 c 0,13,14
 106.487304688 262 106.487304688 262 99.9580078125 355 c 1,15,-1
 137.8828125 372 l 1,16,17
 135.64453125 293 135.64453125 293 224.64453125 293 c 0,18,19
 267.64453125 293 267.64453125 293 299.338867188 315.5 c 128,-1,20
 331.033203125 338 331.033203125 338 340.037109375 377 c 0,21,22
 348.348632812 413 348.348632812 413 328.965820312 433 c 128,-1,23
 309.583007812 453 309.583007812 453 264.583007812 453 c 2,24,-1
 239.583007812 453 l 1,25,-1
 246.047851562 481 l 1,26,-1
 270.047851562 481 l 2,27,28
 310.047851562 481 310.047851562 481 337.126953125 503 c 128,-1,29
 364.206054688 525 364.206054688 525 372.286132812 560 c 0,30,31
 380.828125 597 380.828125 597 362.676757812 618 c 128,-1,32
 344.524414062 639 344.524414062 639 303.524414062 639 c 0,33,34
 226.524414062 639 226.524414062 639 195.826171875 571 c 1,35,-1
 164.827148438 584 l 1,36,37
 185.29296875 625 185.29296875 625 224.487304688 647.5 c 128,-1,38
 263.681640625 670 263.681640625 670 311.681640625 670 c 0,0,1
182 0 m 1,39,-1
 804.373046875 660 l 1,40,-1
 846.373046875 660 l 1,41,-1
 224 0 l 1,42,-1
 182 0 l 1,39,-1
822.3984375 136 m 1,43,-1
 815.93359375 108 l 1,44,-1
 738.93359375 108 l 1,45,-1
 713.076171875 -4 l 1,46,-1
 680.076171875 -4 l 1,47,-1
 705.93359375 108 l 1,48,-1
 507.93359375 108 l 1,49,-1
 513.244140625 131 l 1,50,-1
 761.731445312 393 l 1,51,-1
 804.731445312 393 l 1,52,-1
 745.3984375 136 l 1,53,-1
 822.3984375 136 l 1,43,-1
551.3984375 136 m 1,54,-1
 712.3984375 136 l 1,55,-1
 751.415039062 305 l 2,56,57
 759.95703125 342 759.95703125 342 765.34375 361 c 1,58,-1
 763.34375 361 l 1,59,60
 738.416992188 331 738.416992188 331 720.03125 312 c 2,61,-1
 551.3984375 136 l 1,54,-1
EndSplineSet
EndChar

StartChar: questiondown
Encoding: 191 191 129
Width: 496
GlyphClass: 2
Flags: W
LayerCount: 2
Fore
SplineSet
356.349609375 426 m 128,-1,1
 339.349609375 426 339.349609375 426 331.389648438 437 c 128,-1,2
 323.428710938 448 323.428710938 448 327.353515625 465 c 128,-1,3
 331.278320312 482 331.278320312 482 344.318359375 493 c 128,-1,4
 357.357421875 504 357.357421875 504 374.357421875 504 c 128,-1,5
 391.357421875 504 391.357421875 504 399.818359375 493 c 128,-1,6
 408.278320312 482 408.278320312 482 404.353515625 465 c 128,-1,7
 400.428710938 448 400.428710938 448 386.889648438 437 c 128,-1,0
 373.349609375 426 373.349609375 426 356.349609375 426 c 128,-1,1
203.059570312 -173 m 0,8,9
 114.059570312 -173 114.059570312 -173 68.564453125 -127.5 c 128,-1,10
 23.068359375 -82 23.068359375 -82 41.076171875 -4 c 0,11,12
 78.4775390625 158 78.4775390625 158 282.866210938 203 c 1,13,-1
 310.801757812 324 l 1,14,-1
 352.801757812 324 l 1,15,-1
 319.556640625 180 l 1,16,17
 206.553710938 154 206.553710938 154 154.087890625 113 c 128,-1,18
 101.622070312 72 101.622070312 72 85 0 c 0,19,20
 70.6865234375 -62 70.6865234375 -62 105.759765625 -98.5 c 128,-1,21
 140.833007812 -135 140.833007812 -135 214.833007812 -135 c 0,22,23
 375.833007812 -135 375.833007812 -135 431.694335938 16 c 1,24,-1
 463.076171875 -4 l 1,25,26
 429.607421875 -84 429.607421875 -84 364.333007812 -128.5 c 128,-1,27
 299.059570312 -173 299.059570312 -173 203.059570312 -173 c 0,8,9
EndSplineSet
Substitution2: "'case' Case-Sensitive Forms lookup 29 subtable" questiondown.case
Substitution2: "'smcp' Lowercase to Small Capitals lookup 12 subtable" questiondown.sc
Substitution2: "'c2sc' Capitals to Small Capitals lookup 11 subtable" questiondown.sc
AlternateSubs2: "'aalt' Access All Alternates lookup 1 subtable" questiondown.sc questiondown.case
EndChar

StartChar: Agrave
Encoding: 192 192 130
Width: 615
GlyphClass: 2
Flags: W
LayerCount: 2
Fore
SplineSet
490.53515625 743 m 1,0,-1
 455.53515625 743 l 1,1,-1
 408.703125 891 l 1,2,-1
 456.703125 891 l 1,3,-1
 490.53515625 743 l 1,0,-1
554 0 m 1,4,-1
 517.40625 214 l 1,5,-1
 196.40625 214 l 1,6,-1
 61 0 l 1,7,-1
 17 0 l 1,8,-1
 436.373046875 660 l 1,9,-1
 484.373046875 660 l 1,10,-1
 597 0 l 1,11,-1
 554 0 l 1,4,-1
220.178710938 252 m 1,12,-1
 510.178710938 252 l 1,13,-1
 458.131835938 555 l 1,14,-1
 449.907226562 619 l 1,15,-1
 413.59375 557 l 1,16,-1
 220.178710938 252 l 1,12,-1
EndSplineSet
Substitution2: "Single Substitution lookup 56 subtable" Agrave.swsh
Substitution2: "'swsh' Swash lookup 32 subtable" Agrave.swsh
Substitution2: "'c2sc' Capitals to Small Capitals lookup 11 subtable" agrave.sc
AlternateSubs2: "'aalt' Access All Alternates lookup 1 subtable" agrave.sc Agrave.swsh
EndChar

StartChar: Aacute
Encoding: 193 193 131
Width: 615
GlyphClass: 2
Flags: W
LayerCount: 2
Fore
SplineSet
611.703125 891 m 1,0,-1
 496.53515625 743 l 1,1,-1
 461.53515625 743 l 1,2,-1
 563.703125 891 l 1,3,-1
 611.703125 891 l 1,0,-1
554 0 m 1,4,-1
 517.40625 214 l 1,5,-1
 196.40625 214 l 1,6,-1
 61 0 l 1,7,-1
 17 0 l 1,8,-1
 436.373046875 660 l 1,9,-1
 484.373046875 660 l 1,10,-1
 597 0 l 1,11,-1
 554 0 l 1,4,-1
220.178710938 252 m 1,12,-1
 510.178710938 252 l 1,13,-1
 458.131835938 555 l 1,14,-1
 449.907226562 619 l 1,15,-1
 413.59375 557 l 1,16,-1
 220.178710938 252 l 1,12,-1
EndSplineSet
Substitution2: "Single Substitution lookup 56 subtable" Aacute.swsh
Substitution2: "'swsh' Swash lookup 32 subtable" Aacute.swsh
Substitution2: "'c2sc' Capitals to Small Capitals lookup 11 subtable" aacute.sc
AlternateSubs2: "'aalt' Access All Alternates lookup 1 subtable" aacute.sc Aacute.swsh
EndChar

StartChar: Acircumflex
Encoding: 194 194 132
Width: 615
GlyphClass: 2
Flags: W
LayerCount: 2
Fore
SplineSet
506.469726562 864 m 1,0,-1
 381.842773438 740 l 1,1,-1
 342.842773438 740 l 1,2,-1
 488.934570312 892 l 1,3,-1
 536.934570312 892 l 1,4,-1
 612.842773438 740 l 1,5,-1
 573.842773438 740 l 1,6,-1
 506.469726562 864 l 1,0,-1
554 0 m 1,7,-1
 517.40625 214 l 1,8,-1
 196.40625 214 l 1,9,-1
 61 0 l 1,10,-1
 17 0 l 1,11,-1
 436.373046875 660 l 1,12,-1
 484.373046875 660 l 1,13,-1
 597 0 l 1,14,-1
 554 0 l 1,7,-1
220.178710938 252 m 1,15,-1
 510.178710938 252 l 1,16,-1
 458.131835938 555 l 1,17,-1
 449.907226562 619 l 1,18,-1
 413.59375 557 l 1,19,-1
 220.178710938 252 l 1,15,-1
EndSplineSet
Substitution2: "Single Substitution lookup 56 subtable" Acircumflex.swsh
Substitution2: "'swsh' Swash lookup 32 subtable" Acircumflex.swsh
Substitution2: "'c2sc' Capitals to Small Capitals lookup 11 subtable" acircumflex.sc
AlternateSubs2: "'aalt' Access All Alternates lookup 1 subtable" acircumflex.sc Acircumflex.swsh
EndChar

StartChar: Atilde
Encoding: 195 195 133
Width: 615
GlyphClass: 2
Flags: W
LayerCount: 2
Fore
SplineSet
424.54296875 821 m 0,0,1
 396.54296875 821 396.54296875 821 379.733398438 804.5 c 128,-1,2
 362.923828125 788 362.923828125 788 347.61328125 752 c 1,3,-1
 313.61328125 752 l 1,4,5
 333.848632812 805 333.848632812 805 362.120117188 830 c 128,-1,6
 390.392578125 855 390.392578125 855 433.392578125 855 c 0,7,8
 465.392578125 855 465.392578125 855 484.967773438 838 c 128,-1,9
 504.54296875 821 504.54296875 821 520.618164062 804 c 128,-1,10
 536.693359375 787 536.693359375 787 559.693359375 787 c 0,11,12
 587.693359375 787 587.693359375 787 605.618164062 804 c 128,-1,13
 623.54296875 821 623.54296875 821 637.623046875 856 c 1,14,-1
 671.623046875 856 l 1,15,16
 634.84375 753 634.84375 753 552.84375 753 c 0,17,18
 519.84375 753 519.84375 753 500.268554688 770 c 128,-1,19
 480.693359375 787 480.693359375 787 464.618164062 804 c 128,-1,20
 448.54296875 821 448.54296875 821 424.54296875 821 c 0,0,1
554 0 m 1,21,-1
 517.40625 214 l 1,22,-1
 196.40625 214 l 1,23,-1
 61 0 l 1,24,-1
 17 0 l 1,25,-1
 436.373046875 660 l 1,26,-1
 484.373046875 660 l 1,27,-1
 597 0 l 1,28,-1
 554 0 l 1,21,-1
220.178710938 252 m 1,29,-1
 510.178710938 252 l 1,30,-1
 458.131835938 555 l 1,31,-1
 449.907226562 619 l 1,32,-1
 413.59375 557 l 1,33,-1
 220.178710938 252 l 1,29,-1
EndSplineSet
Substitution2: "Single Substitution lookup 56 subtable" Atilde.swsh
Substitution2: "'swsh' Swash lookup 32 subtable" Atilde.swsh
Substitution2: "'c2sc' Capitals to Small Capitals lookup 11 subtable" atilde.sc
AlternateSubs2: "'aalt' Access All Alternates lookup 1 subtable" atilde.sc Atilde.swsh
EndChar

StartChar: Adieresis
Encoding: 196 196 134
Width: 615
GlyphClass: 2
Flags: W
LayerCount: 2
Fore
SplineSet
385.61328125 752 m 128,-1,1
 369.61328125 752 369.61328125 752 362.305664062 761.5 c 128,-1,2
 354.999023438 771 354.999023438 771 358.693359375 787 c 128,-1,3
 362.38671875 803 362.38671875 803 374.196289062 813 c 128,-1,4
 386.004882812 823 386.004882812 823 402.004882812 823 c 128,-1,5
 418.004882812 823 418.004882812 823 425.811523438 813.5 c 128,-1,6
 433.618164062 804 433.618164062 804 429.693359375 787 c 0,7,8
 425.999023438 771 425.999023438 771 413.805664062 761.5 c 128,-1,0
 401.61328125 752 401.61328125 752 385.61328125 752 c 128,-1,1
573.61328125 752 m 128,-1,10
 557.61328125 752 557.61328125 752 550.305664062 761.5 c 128,-1,11
 542.999023438 771 542.999023438 771 546.693359375 787 c 128,-1,12
 550.38671875 803 550.38671875 803 562.196289062 813 c 128,-1,13
 574.004882812 823 574.004882812 823 590.004882812 823 c 128,-1,14
 606.004882812 823 606.004882812 823 613.811523438 813.5 c 128,-1,15
 621.618164062 804 621.618164062 804 617.693359375 787 c 0,16,17
 613.999023438 771 613.999023438 771 601.805664062 761.5 c 128,-1,9
 589.61328125 752 589.61328125 752 573.61328125 752 c 128,-1,10
554 0 m 1,18,-1
 517.40625 214 l 1,19,-1
 196.40625 214 l 1,20,-1
 61 0 l 1,21,-1
 17 0 l 1,22,-1
 436.373046875 660 l 1,23,-1
 484.373046875 660 l 1,24,-1
 597 0 l 1,25,-1
 554 0 l 1,18,-1
220.178710938 252 m 1,26,-1
 510.178710938 252 l 1,27,-1
 458.131835938 555 l 1,28,-1
 449.907226562 619 l 1,29,-1
 413.59375 557 l 1,30,-1
 220.178710938 252 l 1,26,-1
EndSplineSet
Substitution2: "Single Substitution lookup 56 subtable" Adieresis.swsh
Substitution2: "'titl' Titling lookup 41 subtable" Adieresis.titl
Substitution2: "'swsh' Swash lookup 32 subtable" Adieresis.swsh
Substitution2: "'c2sc' Capitals to Small Capitals lookup 11 subtable" adieresis.sc
AlternateSubs2: "'aalt' Access All Alternates lookup 1 subtable" adieresis.sc Adieresis.swsh Adieresis.titl
EndChar

StartChar: Aring
Encoding: 197 197 135
Width: 615
GlyphClass: 2
Flags: W
LayerCount: 2
Fore
SplineSet
554 0 m 1,0,-1
 517.40625 214 l 1,1,-1
 196.40625 214 l 1,2,-1
 61 0 l 1,3,-1
 17 0 l 1,4,-1
 422.524414062 639 l 1,5,6
 366.680664062 657 366.680664062 657 381.91796875 723 c 0,7,8
 391.15234375 763 391.15234375 763 422.30859375 787.5 c 128,-1,9
 453.46484375 812 453.46484375 812 495.46484375 812 c 0,10,11
 536.46484375 812 536.46484375 812 556.80859375 787.5 c 128,-1,12
 577.15234375 763 577.15234375 763 567.91796875 723 c 0,13,14
 552.911132812 658 552.911132812 658 487.293945312 638 c 1,15,-1
 597 0 l 1,16,-1
 554 0 l 1,0,-1
412.91796875 723 m 128,-1,18
 406.684570312 696 406.684570312 696 419.759765625 679 c 128,-1,19
 432.834960938 662 432.834960938 662 459.834960938 662 c 0,20,21
 487.834960938 662 487.834960938 662 508.759765625 679 c 128,-1,22
 529.684570312 696 529.684570312 696 535.91796875 723 c 128,-1,23
 542.151367188 750 542.151367188 750 529.076171875 767 c 128,-1,24
 516.000976562 784 516.000976562 784 488.000976562 784 c 0,25,26
 461.000976562 784 461.000976562 784 440.076171875 767 c 128,-1,17
 419.151367188 750 419.151367188 750 412.91796875 723 c 128,-1,18
220.178710938 252 m 1,27,-1
 510.178710938 252 l 1,28,-1
 458.131835938 555 l 1,29,-1
 449.907226562 619 l 1,30,-1
 413.59375 557 l 1,31,-1
 220.178710938 252 l 1,27,-1
EndSplineSet
Substitution2: "'c2sc' Capitals to Small Capitals lookup 11 subtable" aring.sc
Substitution2: "'aalt' Access All Alternates lookup 0 subtable" aring.sc
EndChar

StartChar: AE
Encoding: 198 198 136
Width: 912
GlyphClass: 2
Flags: W
LayerCount: 2
Fore
SplineSet
492.7734375 38 m 1,0,-1
 881.7734375 38 l 1,1,-1
 873 0 l 1,2,-1
 443 0 l 1,3,-1
 497.946289062 238 l 1,4,-1
 244.946289062 238 l 1,5,-1
 45 0 l 1,6,-1
 -3 0 l 1,7,-1
 556.373046875 660 l 1,8,-1
 1010.37304688 660 l 1,9,-1
 1001.59960938 622 l 1,10,-1
 627.599609375 622 l 1,11,-1
 565.727539062 354 l 1,12,-1
 859.727539062 354 l 1,13,-1
 850.954101562 316 l 1,14,-1
 556.954101562 316 l 1,15,-1
 492.7734375 38 l 1,0,-1
276.719726562 276 m 1,16,-1
 506.719726562 276 l 1,17,-1
 586.599609375 622 l 1,18,-1
 567.599609375 622 l 1,19,-1
 276.719726562 276 l 1,16,-1
EndSplineSet
Substitution2: "'c2sc' Capitals to Small Capitals lookup 11 subtable" ae.sc
Substitution2: "'aalt' Access All Alternates lookup 0 subtable" ae.sc
EndChar

StartChar: Ccedilla
Encoding: 199 199 137
Width: 663
GlyphClass: 2
Flags: W
LayerCount: 2
Fore
SplineSet
660.5546875 167 m 1,0,1
 617.546875 89 617.546875 89 545.04296875 43.5 c 128,-1,2
 472.538085938 -2 472.538085938 -2 383.921875 -9 c 1,3,4
 443.45703125 -50 443.45703125 -50 428.680664062 -114 c 0,5,6
 419.446289062 -154 419.446289062 -154 386.328125 -180.5 c 128,-1,7
 353.209960938 -207 353.209960938 -207 308.209960938 -207 c 0,8,9
 242.209960938 -207 242.209960938 -207 217.213867188 -168 c 1,10,-1
 239.909179688 -139 l 1,11,12
 262.3671875 -176 262.3671875 -176 311.3671875 -176 c 0,13,14
 340.3671875 -176 340.3671875 -176 363.022460938 -158 c 128,-1,15
 385.678710938 -140 385.678710938 -140 392.604492188 -110 c 128,-1,16
 399.530273438 -80 399.530273438 -80 387.109375 -58 c 128,-1,17
 374.688476562 -36 374.688476562 -36 331.921875 -9 c 1,18,19
 208.76953125 -1 208.76953125 -1 155.778320312 90 c 128,-1,20
 102.787109375 181 102.787109375 181 137.186523438 330 c 0,21,22
 173.202148438 486 173.202148438 486 275.44140625 578 c 128,-1,23
 377.681640625 670 377.681640625 670 512.681640625 670 c 0,24,25
 712.681640625 670 712.681640625 670 730.357421875 504 c 1,26,-1
 685.970703125 485 l 1,27,28
 673.909179688 632 673.909179688 632 505.909179688 632 c 0,29,30
 389.909179688 632 389.909179688 632 300.592773438 550.5 c 128,-1,31
 211.27734375 469 211.27734375 469 179.186523438 330 c 128,-1,32
 147.095703125 191 147.095703125 191 198.280273438 109.5 c 128,-1,33
 249.463867188 28 249.463867188 28 365.463867188 28 c 0,34,35
 449.463867188 28 449.463867188 28 516.69921875 68 c 128,-1,36
 583.93359375 108 583.93359375 108 623.017578125 182 c 1,37,-1
 660.5546875 167 l 1,0,1
EndSplineSet
Substitution2: "'c2sc' Capitals to Small Capitals lookup 11 subtable" ccedilla.sc
Substitution2: "'aalt' Access All Alternates lookup 0 subtable" ccedilla.sc
EndChar

StartChar: Egrave
Encoding: 200 200 138
Width: 604
GlyphClass: 2
Flags: W
AnchorPoint: "Anchor-0" 326 0 basechar 0
LayerCount: 2
Fore
SplineSet
526.53515625 743 m 1,0,-1
 491.53515625 743 l 1,1,-1
 444.703125 891 l 1,2,-1
 492.703125 891 l 1,3,-1
 526.53515625 743 l 1,0,-1
152.7734375 38 m 1,4,-1
 574.7734375 38 l 1,5,-1
 566 0 l 1,6,-1
 103 0 l 1,7,-1
 255.373046875 660 l 1,8,-1
 702.373046875 660 l 1,9,-1
 693.599609375 622 l 1,10,-1
 287.599609375 622 l 1,11,-1
 225.958007812 355 l 1,12,-1
 547.958007812 355 l 1,13,-1
 539.185546875 317 l 1,14,-1
 217.185546875 317 l 1,15,-1
 152.7734375 38 l 1,4,-1
EndSplineSet
Substitution2: "Single Substitution lookup 57 subtable" Egrave.swsh.001
Substitution2: "Single Substitution lookup 56 subtable" Egrave.swsh
AlternateSubs2: "'swsh' Swash lookup 33 subtable" Egrave.swsh Egrave.swsh.001
Substitution2: "'c2sc' Capitals to Small Capitals lookup 11 subtable" egrave.sc
AlternateSubs2: "'aalt' Access All Alternates lookup 1 subtable" egrave.sc Egrave.swsh Egrave.swsh.001
EndChar

StartChar: Eacute
Encoding: 201 201 139
Width: 604
GlyphClass: 2
Flags: W
AnchorPoint: "Anchor-0" 326 0 basechar 0
LayerCount: 2
Fore
SplineSet
623.703125 891 m 1,0,-1
 508.53515625 743 l 1,1,-1
 473.53515625 743 l 1,2,-1
 575.703125 891 l 1,3,-1
 623.703125 891 l 1,0,-1
152.7734375 38 m 1,4,-1
 574.7734375 38 l 1,5,-1
 566 0 l 1,6,-1
 103 0 l 1,7,-1
 255.373046875 660 l 1,8,-1
 702.373046875 660 l 1,9,-1
 693.599609375 622 l 1,10,-1
 287.599609375 622 l 1,11,-1
 225.958007812 355 l 1,12,-1
 547.958007812 355 l 1,13,-1
 539.185546875 317 l 1,14,-1
 217.185546875 317 l 1,15,-1
 152.7734375 38 l 1,4,-1
EndSplineSet
Substitution2: "Single Substitution lookup 57 subtable" Eacute.swsh.001
Substitution2: "Single Substitution lookup 56 subtable" Eacute.swsh
AlternateSubs2: "'swsh' Swash lookup 33 subtable" Eacute.swsh Eacute.swsh.001
Substitution2: "'c2sc' Capitals to Small Capitals lookup 11 subtable" eacute.sc
AlternateSubs2: "'aalt' Access All Alternates lookup 1 subtable" eacute.sc Eacute.swsh Eacute.swsh.001
EndChar

StartChar: Ecircumflex
Encoding: 202 202 140
Width: 604
GlyphClass: 2
Flags: W
AnchorPoint: "Anchor-0" 326 0 basechar 0
LayerCount: 2
Fore
SplineSet
525.469726562 864 m 1,0,-1
 400.842773438 740 l 1,1,-1
 361.842773438 740 l 1,2,-1
 507.934570312 892 l 1,3,-1
 555.934570312 892 l 1,4,-1
 631.842773438 740 l 1,5,-1
 592.842773438 740 l 1,6,-1
 525.469726562 864 l 1,0,-1
152.7734375 38 m 1,7,-1
 574.7734375 38 l 1,8,-1
 566 0 l 1,9,-1
 103 0 l 1,10,-1
 255.373046875 660 l 1,11,-1
 702.373046875 660 l 1,12,-1
 693.599609375 622 l 1,13,-1
 287.599609375 622 l 1,14,-1
 225.958007812 355 l 1,15,-1
 547.958007812 355 l 1,16,-1
 539.185546875 317 l 1,17,-1
 217.185546875 317 l 1,18,-1
 152.7734375 38 l 1,7,-1
EndSplineSet
Substitution2: "Single Substitution lookup 57 subtable" Ecircumflex.swsh.001
Substitution2: "Single Substitution lookup 56 subtable" Ecircumflex.swsh
AlternateSubs2: "'swsh' Swash lookup 33 subtable" Ecircumflex.swsh Ecircumflex.swsh.001
Substitution2: "'c2sc' Capitals to Small Capitals lookup 11 subtable" ecircumflex.sc
AlternateSubs2: "'aalt' Access All Alternates lookup 1 subtable" ecircumflex.sc Ecircumflex.swsh Ecircumflex.swsh.001
EndChar

StartChar: Edieresis
Encoding: 203 203 141
Width: 604
GlyphClass: 2
Flags: W
AnchorPoint: "Anchor-0" 326 0 basechar 0
LayerCount: 2
Fore
SplineSet
404.61328125 752 m 128,-1,1
 388.61328125 752 388.61328125 752 381.305664062 761.5 c 128,-1,2
 373.999023438 771 373.999023438 771 377.693359375 787 c 128,-1,3
 381.38671875 803 381.38671875 803 393.196289062 813 c 128,-1,4
 405.004882812 823 405.004882812 823 421.004882812 823 c 0,5,6
 438.004882812 823 438.004882812 823 445.311523438 813.5 c 128,-1,7
 452.618164062 804 452.618164062 804 448.693359375 787 c 0,8,9
 444.999023438 771 444.999023438 771 432.805664062 761.5 c 128,-1,0
 420.61328125 752 420.61328125 752 404.61328125 752 c 128,-1,1
592.61328125 752 m 128,-1,11
 576.61328125 752 576.61328125 752 569.305664062 761.5 c 128,-1,12
 561.999023438 771 561.999023438 771 565.693359375 787 c 128,-1,13
 569.38671875 803 569.38671875 803 581.196289062 813 c 128,-1,14
 593.004882812 823 593.004882812 823 609.004882812 823 c 0,15,16
 626.004882812 823 626.004882812 823 633.311523438 813.5 c 128,-1,17
 640.618164062 804 640.618164062 804 636.693359375 787 c 0,18,19
 632.999023438 771 632.999023438 771 620.805664062 761.5 c 128,-1,10
 608.61328125 752 608.61328125 752 592.61328125 752 c 128,-1,11
152.7734375 38 m 1,20,-1
 574.7734375 38 l 1,21,-1
 566 0 l 1,22,-1
 103 0 l 1,23,-1
 255.373046875 660 l 1,24,-1
 702.373046875 660 l 1,25,-1
 693.599609375 622 l 1,26,-1
 287.599609375 622 l 1,27,-1
 225.958007812 355 l 1,28,-1
 547.958007812 355 l 1,29,-1
 539.185546875 317 l 1,30,-1
 217.185546875 317 l 1,31,-1
 152.7734375 38 l 1,20,-1
EndSplineSet
Substitution2: "Single Substitution lookup 57 subtable" Edieresis.swsh.001
Substitution2: "Single Substitution lookup 56 subtable" Edieresis.swsh
AlternateSubs2: "'swsh' Swash lookup 33 subtable" Edieresis.swsh Edieresis.swsh.001
Substitution2: "'c2sc' Capitals to Small Capitals lookup 11 subtable" edieresis.sc
AlternateSubs2: "'aalt' Access All Alternates lookup 1 subtable" edieresis.sc Edieresis.swsh Edieresis.swsh.001
EndChar

StartChar: Igrave
Encoding: 204 204 142
Width: 246
GlyphClass: 2
Flags: W
LayerCount: 2
Fore
SplineSet
272.703125 891 m 1,0,-1
 306.53515625 743 l 1,1,-1
 271.53515625 743 l 1,2,-1
 224.703125 891 l 1,3,-1
 272.703125 891 l 1,0,-1
296.373046875 660 m 1,4,-1
 144 0 l 1,5,-1
 103 0 l 1,6,-1
 255.373046875 660 l 1,7,-1
 296.373046875 660 l 1,4,-1
EndSplineSet
Substitution2: "'c2sc' Capitals to Small Capitals lookup 11 subtable" igrave.sc
Substitution2: "'aalt' Access All Alternates lookup 0 subtable" igrave.sc
EndChar

StartChar: Iacute
Encoding: 205 205 143
Width: 246
GlyphClass: 2
Flags: W
LayerCount: 2
Fore
SplineSet
379.703125 891 m 1,0,-1
 427.703125 891 l 1,1,-1
 312.53515625 743 l 1,2,-1
 277.53515625 743 l 1,3,-1
 379.703125 891 l 1,0,-1
296.373046875 660 m 1,4,-1
 144 0 l 1,5,-1
 103 0 l 1,6,-1
 255.373046875 660 l 1,7,-1
 296.373046875 660 l 1,4,-1
EndSplineSet
Substitution2: "'c2sc' Capitals to Small Capitals lookup 11 subtable" iacute.sc
Substitution2: "'aalt' Access All Alternates lookup 0 subtable" iacute.sc
EndChar

StartChar: Icircumflex
Encoding: 206 206 144
Width: 246
GlyphClass: 2
Flags: W
LayerCount: 2
Fore
SplineSet
428.842773438 740 m 1,0,-1
 389.842773438 740 l 1,1,-1
 322.469726562 864 l 1,2,-1
 197.842773438 740 l 1,3,-1
 158.842773438 740 l 1,4,-1
 304.934570312 892 l 1,5,-1
 352.934570312 892 l 1,6,-1
 428.842773438 740 l 1,0,-1
296.373046875 660 m 1,7,-1
 144 0 l 1,8,-1
 103 0 l 1,9,-1
 255.373046875 660 l 1,10,-1
 296.373046875 660 l 1,7,-1
EndSplineSet
Substitution2: "'c2sc' Capitals to Small Capitals lookup 11 subtable" icircumflex.sc
Substitution2: "'aalt' Access All Alternates lookup 0 subtable" icircumflex.sc
EndChar

StartChar: Idieresis
Encoding: 207 207 145
Width: 246
GlyphClass: 2
Flags: W
LayerCount: 2
Fore
SplineSet
243.004882812 823 m 0,0,1
 260.004882812 823 260.004882812 823 267.311523438 813.5 c 128,-1,2
 274.618164062 804 274.618164062 804 270.693359375 787 c 0,3,4
 266.999023438 771 266.999023438 771 254.805664062 761.5 c 128,-1,5
 242.61328125 752 242.61328125 752 226.61328125 752 c 128,-1,6
 210.61328125 752 210.61328125 752 203.305664062 761.5 c 128,-1,7
 195.999023438 771 195.999023438 771 199.693359375 787 c 128,-1,8
 203.38671875 803 203.38671875 803 215.196289062 813 c 128,-1,9
 227.004882812 823 227.004882812 823 243.004882812 823 c 0,0,1
383.004882812 823 m 0,10,11
 399.004882812 823 399.004882812 823 406.196289062 813 c 128,-1,12
 413.38671875 803 413.38671875 803 409.693359375 787 c 128,-1,13
 405.999023438 771 405.999023438 771 394.305664062 761.5 c 128,-1,14
 382.61328125 752 382.61328125 752 366.61328125 752 c 128,-1,15
 350.61328125 752 350.61328125 752 342.805664062 761.5 c 128,-1,16
 334.999023438 771 334.999023438 771 338.693359375 787 c 0,17,18
 342.618164062 804 342.618164062 804 354.311523438 813.5 c 128,-1,19
 366.004882812 823 366.004882812 823 383.004882812 823 c 0,10,11
296.373046875 660 m 1,20,-1
 144 0 l 1,21,-1
 103 0 l 1,22,-1
 255.373046875 660 l 1,23,-1
 296.373046875 660 l 1,20,-1
EndSplineSet
Substitution2: "'c2sc' Capitals to Small Capitals lookup 11 subtable" idieresis.sc
Substitution2: "'aalt' Access All Alternates lookup 0 subtable" idieresis.sc
EndChar

StartChar: Eth
Encoding: 208 208 146
Width: 709
GlyphClass: 2
Flags: W
LayerCount: 2
Fore
SplineSet
472.373046875 660 m 2,0,1
 631.373046875 660 631.373046875 660 696.7109375 577 c 128,-1,2
 762.048828125 494 762.048828125 494 725.571289062 336 c 0,3,4
 687.708984375 172 687.708984375 172 583.354492188 86 c 128,-1,5
 479 0 479 0 320 0 c 2,6,-1
 114 0 l 1,7,-1
 187.416015625 318 l 1,8,-1
 86.416015625 318 l 1,9,-1
 93.8037109375 350 l 1,10,-1
 194.803710938 350 l 1,11,-1
 266.373046875 660 l 1,12,-1
 472.373046875 660 l 2,0,1
332.7734375 38 m 2,13,14
 469.7734375 38 469.7734375 38 559.934570312 114.5 c 128,-1,15
 650.095703125 191 650.095703125 191 683.571289062 336 c 0,16,17
 715.662109375 475 715.662109375 475 660.130859375 548.5 c 128,-1,18
 604.599609375 622 604.599609375 622 467.599609375 622 c 2,19,-1
 298.599609375 622 l 1,20,-1
 235.803710938 350 l 1,21,-1
 438.803710938 350 l 1,22,-1
 431.416015625 318 l 1,23,-1
 228.416015625 318 l 1,24,-1
 163.7734375 38 l 1,25,-1
 332.7734375 38 l 2,13,14
EndSplineSet
Substitution2: "'c2sc' Capitals to Small Capitals lookup 11 subtable" eth.sc
Substitution2: "'aalt' Access All Alternates lookup 0 subtable" eth.sc
EndChar

StartChar: Ntilde
Encoding: 209 209 147
Width: 710
GlyphClass: 2
Flags: W
AnchorPoint: "Anchor-0" 367 0 basechar 0
LayerCount: 2
Fore
SplineSet
724.623046875 856 m 1,0,1
 687.84375 753 687.84375 753 605.84375 753 c 0,2,3
 572.84375 753 572.84375 753 553.268554688 770 c 128,-1,4
 533.693359375 787 533.693359375 787 517.618164062 804 c 128,-1,5
 501.54296875 821 501.54296875 821 477.54296875 821 c 0,6,7
 449.54296875 821 449.54296875 821 432.733398438 804.5 c 128,-1,8
 415.923828125 788 415.923828125 788 400.61328125 752 c 1,9,-1
 366.61328125 752 l 1,10,11
 386.848632812 805 386.848632812 805 415.120117188 830 c 128,-1,12
 443.392578125 855 443.392578125 855 486.392578125 855 c 0,13,14
 518.392578125 855 518.392578125 855 537.967773438 838 c 128,-1,15
 557.54296875 821 557.54296875 821 573.618164062 804 c 128,-1,16
 589.693359375 787 589.693359375 787 612.693359375 787 c 0,17,18
 640.693359375 787 640.693359375 787 658.618164062 804 c 128,-1,19
 676.54296875 821 676.54296875 821 690.623046875 856 c 1,20,-1
 724.623046875 856 l 1,0,1
759.373046875 660 m 1,21,-1
 607 0 l 1,22,-1
 555 0 l 1,23,-1
 307.899414062 541 l 1,24,-1
 282.21484375 616 l 1,25,-1
 266.668945312 540 l 1,26,-1
 142 0 l 1,27,-1
 103 0 l 1,28,-1
 255.373046875 660 l 1,29,-1
 307.373046875 660 l 1,30,-1
 553.473632812 119 l 1,31,-1
 579.158203125 44 l 1,32,-1
 580.158203125 44 l 1,33,-1
 595.704101562 120 l 1,34,-1
 720.373046875 660 l 1,35,-1
 759.373046875 660 l 1,21,-1
EndSplineSet
Substitution2: "Single Substitution lookup 57 subtable" Ntilde.swsh
Substitution2: "'swsh' Swash lookup 36 subtable" Ntilde.swsh
Substitution2: "'c2sc' Capitals to Small Capitals lookup 11 subtable" ntilde.sc
AlternateSubs2: "'aalt' Access All Alternates lookup 1 subtable" ntilde.sc Ntilde.swsh
EndChar

StartChar: Ograve
Encoding: 210 210 148
Width: 727
GlyphClass: 2
Flags: W
LayerCount: 2
Fore
SplineSet
513.703125 891 m 1,0,-1
 547.53515625 743 l 1,1,-1
 512.53515625 743 l 1,2,-1
 465.703125 891 l 1,3,-1
 513.703125 891 l 1,0,-1
518.681640625 670 m 128,-1,5
 658.681640625 670 658.681640625 670 719.057617188 578.5 c 128,-1,6
 779.432617188 487 779.432617188 487 743.186523438 330 c 128,-1,7
 706.940429688 173 706.940429688 173 604.315429688 81.5 c 128,-1,8
 501.69140625 -10 501.69140625 -10 361.69140625 -10 c 128,-1,9
 221.69140625 -10 221.69140625 -10 161.315429688 81.5 c 128,-1,10
 100.940429688 173 100.940429688 173 137.186523438 330 c 128,-1,11
 173.432617188 487 173.432617188 487 276.057617188 578.5 c 128,-1,4
 378.681640625 670 378.681640625 670 518.681640625 670 c 128,-1,5
509.909179688 632 m 0,12,13
 388.909179688 632 388.909179688 632 300.208007812 551 c 128,-1,14
 211.5078125 470 211.5078125 470 179.186523438 330 c 128,-1,15
 146.865234375 190 146.865234375 190 198.165039062 109 c 128,-1,16
 249.463867188 28 249.463867188 28 370.463867188 28 c 0,17,18
 490.463867188 28 490.463867188 28 579.165039062 109 c 128,-1,19
 667.865234375 190 667.865234375 190 700.186523438 330 c 128,-1,20
 732.5078125 470 732.5078125 470 681.208007812 551 c 128,-1,21
 629.909179688 632 629.909179688 632 509.909179688 632 c 0,12,13
EndSplineSet
Substitution2: "'c2sc' Capitals to Small Capitals lookup 11 subtable" ograve.sc
Substitution2: "'aalt' Access All Alternates lookup 0 subtable" ograve.sc
EndChar

StartChar: Oacute
Encoding: 211 211 149
Width: 727
GlyphClass: 2
Flags: W
LayerCount: 2
Fore
SplineSet
620.703125 891 m 1,0,-1
 668.703125 891 l 1,1,-1
 553.53515625 743 l 1,2,-1
 518.53515625 743 l 1,3,-1
 620.703125 891 l 1,0,-1
518.681640625 670 m 128,-1,5
 658.681640625 670 658.681640625 670 719.057617188 578.5 c 128,-1,6
 779.432617188 487 779.432617188 487 743.186523438 330 c 128,-1,7
 706.940429688 173 706.940429688 173 604.315429688 81.5 c 128,-1,8
 501.69140625 -10 501.69140625 -10 361.69140625 -10 c 128,-1,9
 221.69140625 -10 221.69140625 -10 161.315429688 81.5 c 128,-1,10
 100.940429688 173 100.940429688 173 137.186523438 330 c 128,-1,11
 173.432617188 487 173.432617188 487 276.057617188 578.5 c 128,-1,4
 378.681640625 670 378.681640625 670 518.681640625 670 c 128,-1,5
509.909179688 632 m 0,12,13
 388.909179688 632 388.909179688 632 300.208007812 551 c 128,-1,14
 211.5078125 470 211.5078125 470 179.186523438 330 c 128,-1,15
 146.865234375 190 146.865234375 190 198.165039062 109 c 128,-1,16
 249.463867188 28 249.463867188 28 370.463867188 28 c 0,17,18
 490.463867188 28 490.463867188 28 579.165039062 109 c 128,-1,19
 667.865234375 190 667.865234375 190 700.186523438 330 c 128,-1,20
 732.5078125 470 732.5078125 470 681.208007812 551 c 128,-1,21
 629.909179688 632 629.909179688 632 509.909179688 632 c 0,12,13
EndSplineSet
Substitution2: "'c2sc' Capitals to Small Capitals lookup 11 subtable" oacute.sc
Substitution2: "'aalt' Access All Alternates lookup 0 subtable" oacute.sc
EndChar

StartChar: Ocircumflex
Encoding: 212 212 150
Width: 727
GlyphClass: 2
Flags: W
LayerCount: 2
Fore
SplineSet
669.842773438 740 m 1,0,-1
 630.842773438 740 l 1,1,-1
 563.469726562 864 l 1,2,-1
 438.842773438 740 l 1,3,-1
 399.842773438 740 l 1,4,-1
 545.934570312 892 l 1,5,-1
 593.934570312 892 l 1,6,-1
 669.842773438 740 l 1,0,-1
518.681640625 670 m 128,-1,8
 658.681640625 670 658.681640625 670 719.057617188 578.5 c 128,-1,9
 779.432617188 487 779.432617188 487 743.186523438 330 c 128,-1,10
 706.940429688 173 706.940429688 173 604.315429688 81.5 c 128,-1,11
 501.69140625 -10 501.69140625 -10 361.69140625 -10 c 128,-1,12
 221.69140625 -10 221.69140625 -10 161.315429688 81.5 c 128,-1,13
 100.940429688 173 100.940429688 173 137.186523438 330 c 128,-1,14
 173.432617188 487 173.432617188 487 276.057617188 578.5 c 128,-1,7
 378.681640625 670 378.681640625 670 518.681640625 670 c 128,-1,8
509.909179688 632 m 0,15,16
 388.909179688 632 388.909179688 632 300.208007812 551 c 128,-1,17
 211.5078125 470 211.5078125 470 179.186523438 330 c 128,-1,18
 146.865234375 190 146.865234375 190 198.165039062 109 c 128,-1,19
 249.463867188 28 249.463867188 28 370.463867188 28 c 0,20,21
 490.463867188 28 490.463867188 28 579.165039062 109 c 128,-1,22
 667.865234375 190 667.865234375 190 700.186523438 330 c 128,-1,23
 732.5078125 470 732.5078125 470 681.208007812 551 c 128,-1,24
 629.909179688 632 629.909179688 632 509.909179688 632 c 0,15,16
EndSplineSet
Substitution2: "'c2sc' Capitals to Small Capitals lookup 11 subtable" ocircumflex.sc
Substitution2: "'aalt' Access All Alternates lookup 0 subtable" ocircumflex.sc
EndChar

StartChar: Otilde
Encoding: 213 213 151
Width: 727
GlyphClass: 2
Flags: W
LayerCount: 2
Fore
SplineSet
728.623046875 856 m 1,0,1
 691.84375 753 691.84375 753 609.84375 753 c 0,2,3
 576.84375 753 576.84375 753 557.268554688 770 c 128,-1,4
 537.693359375 787 537.693359375 787 521.618164062 804 c 128,-1,5
 505.54296875 821 505.54296875 821 481.54296875 821 c 0,6,7
 453.54296875 821 453.54296875 821 436.733398438 804.5 c 128,-1,8
 419.923828125 788 419.923828125 788 404.61328125 752 c 1,9,-1
 370.61328125 752 l 1,10,11
 390.848632812 805 390.848632812 805 419.120117188 830 c 128,-1,12
 447.392578125 855 447.392578125 855 490.392578125 855 c 0,13,14
 522.392578125 855 522.392578125 855 541.967773438 838 c 128,-1,15
 561.54296875 821 561.54296875 821 577.618164062 804 c 128,-1,16
 593.693359375 787 593.693359375 787 616.693359375 787 c 0,17,18
 644.693359375 787 644.693359375 787 662.618164062 804 c 128,-1,19
 680.54296875 821 680.54296875 821 694.623046875 856 c 1,20,-1
 728.623046875 856 l 1,0,1
518.681640625 670 m 128,-1,22
 658.681640625 670 658.681640625 670 719.057617188 578.5 c 128,-1,23
 779.432617188 487 779.432617188 487 743.186523438 330 c 128,-1,24
 706.940429688 173 706.940429688 173 604.315429688 81.5 c 128,-1,25
 501.69140625 -10 501.69140625 -10 361.69140625 -10 c 128,-1,26
 221.69140625 -10 221.69140625 -10 161.315429688 81.5 c 128,-1,27
 100.940429688 173 100.940429688 173 137.186523438 330 c 128,-1,28
 173.432617188 487 173.432617188 487 276.057617188 578.5 c 128,-1,21
 378.681640625 670 378.681640625 670 518.681640625 670 c 128,-1,22
509.909179688 632 m 0,29,30
 388.909179688 632 388.909179688 632 300.208007812 551 c 128,-1,31
 211.5078125 470 211.5078125 470 179.186523438 330 c 128,-1,32
 146.865234375 190 146.865234375 190 198.165039062 109 c 128,-1,33
 249.463867188 28 249.463867188 28 370.463867188 28 c 0,34,35
 490.463867188 28 490.463867188 28 579.165039062 109 c 128,-1,36
 667.865234375 190 667.865234375 190 700.186523438 330 c 128,-1,37
 732.5078125 470 732.5078125 470 681.208007812 551 c 128,-1,38
 629.909179688 632 629.909179688 632 509.909179688 632 c 0,29,30
EndSplineSet
Substitution2: "'c2sc' Capitals to Small Capitals lookup 11 subtable" otilde.sc
Substitution2: "'aalt' Access All Alternates lookup 0 subtable" otilde.sc
EndChar

StartChar: Odieresis
Encoding: 214 214 152
Width: 727
GlyphClass: 2
Flags: W
LayerCount: 2
Fore
SplineSet
459.004882812 823 m 0,0,1
 476.004882812 823 476.004882812 823 483.311523438 813.5 c 128,-1,2
 490.618164062 804 490.618164062 804 486.693359375 787 c 0,3,4
 482.999023438 771 482.999023438 771 470.805664062 761.5 c 128,-1,5
 458.61328125 752 458.61328125 752 442.61328125 752 c 128,-1,6
 426.61328125 752 426.61328125 752 419.305664062 761.5 c 128,-1,7
 411.999023438 771 411.999023438 771 415.693359375 787 c 128,-1,8
 419.38671875 803 419.38671875 803 431.196289062 813 c 128,-1,9
 443.004882812 823 443.004882812 823 459.004882812 823 c 0,0,1
647.004882812 823 m 0,10,11
 664.004882812 823 664.004882812 823 671.311523438 813.5 c 128,-1,12
 678.618164062 804 678.618164062 804 674.693359375 787 c 0,13,14
 670.999023438 771 670.999023438 771 658.805664062 761.5 c 128,-1,15
 646.61328125 752 646.61328125 752 630.61328125 752 c 128,-1,16
 614.61328125 752 614.61328125 752 607.305664062 761.5 c 128,-1,17
 599.999023438 771 599.999023438 771 603.693359375 787 c 128,-1,18
 607.38671875 803 607.38671875 803 619.196289062 813 c 128,-1,19
 631.004882812 823 631.004882812 823 647.004882812 823 c 0,10,11
518.681640625 670 m 128,-1,21
 658.681640625 670 658.681640625 670 719.057617188 578.5 c 128,-1,22
 779.432617188 487 779.432617188 487 743.186523438 330 c 128,-1,23
 706.940429688 173 706.940429688 173 604.315429688 81.5 c 128,-1,24
 501.69140625 -10 501.69140625 -10 361.69140625 -10 c 128,-1,25
 221.69140625 -10 221.69140625 -10 161.315429688 81.5 c 128,-1,26
 100.940429688 173 100.940429688 173 137.186523438 330 c 128,-1,27
 173.432617188 487 173.432617188 487 276.057617188 578.5 c 128,-1,20
 378.681640625 670 378.681640625 670 518.681640625 670 c 128,-1,21
509.909179688 632 m 0,28,29
 388.909179688 632 388.909179688 632 300.208007812 551 c 128,-1,30
 211.5078125 470 211.5078125 470 179.186523438 330 c 128,-1,31
 146.865234375 190 146.865234375 190 198.165039062 109 c 128,-1,32
 249.463867188 28 249.463867188 28 370.463867188 28 c 0,33,34
 490.463867188 28 490.463867188 28 579.165039062 109 c 128,-1,35
 667.865234375 190 667.865234375 190 700.186523438 330 c 128,-1,36
 732.5078125 470 732.5078125 470 681.208007812 551 c 128,-1,37
 629.909179688 632 629.909179688 632 509.909179688 632 c 0,28,29
EndSplineSet
Substitution2: "'titl' Titling lookup 41 subtable" Odieresis.titl
Substitution2: "'c2sc' Capitals to Small Capitals lookup 11 subtable" odieresis.sc
AlternateSubs2: "'aalt' Access All Alternates lookup 1 subtable" odieresis.sc Odieresis.titl
EndChar

StartChar: multiply
Encoding: 215 215 153
Width: 604
GlyphClass: 2
Flags: W
LayerCount: 2
Fore
SplineSet
606.81640625 480 m 1,0,-1
 402.4921875 314 l 1,1,-1
 530.168945312 148 l 1,2,-1
 495.704101562 120 l 1,3,-1
 368.028320312 286 l 1,4,-1
 163.704101562 120 l 1,5,-1
 141.168945312 148 l 1,6,-1
 345.4921875 314 l 1,7,-1
 217.81640625 480 l 1,8,-1
 253.51171875 509 l 1,9,-1
 381.1875 343 l 1,10,-1
 585.51171875 509 l 1,11,-1
 606.81640625 480 l 1,0,-1
EndSplineSet
EndChar

StartChar: Oslash
Encoding: 216 216 154
Width: 727
GlyphClass: 2
Flags: W
LayerCount: 2
Fore
SplineSet
708.443359375 591 m 1,0,1
 782.203125 499 782.203125 499 743.186523438 330 c 0,2,3
 706.940429688 173 706.940429688 173 604.315429688 81.5 c 128,-1,4
 501.69140625 -10 501.69140625 -10 361.69140625 -10 c 0,5,6
 254.69140625 -10 254.69140625 -10 192.388671875 45 c 1,7,-1
 119.381835938 -33 l 1,8,-1
 79.3818359375 -33 l 1,9,-1
 172.237304688 66 l 1,10,11
 97.24609375 157 97.24609375 157 137.186523438 330 c 0,12,13
 173.432617188 487 173.432617188 487 276.057617188 578.5 c 128,-1,14
 378.681640625 670 378.681640625 670 518.681640625 670 c 0,15,16
 627.681640625 670 627.681640625 670 689.522460938 613 c 1,17,-1
 759.606445312 687 l 1,18,-1
 799.606445312 687 l 1,19,-1
 708.443359375 591 l 1,0,1
179.186523438 330 m 0,20,21
 144.787109375 181 144.787109375 181 205.086914062 100 c 1,22,-1
 657.903320312 580 l 1,23,24
 605.909179688 632 605.909179688 632 509.909179688 632 c 0,25,26
 388.909179688 632 388.909179688 632 300.208007812 551 c 128,-1,27
 211.5078125 470 211.5078125 470 179.186523438 330 c 0,20,21
370.463867188 28 m 0,28,29
 490.463867188 28 490.463867188 28 579.165039062 109 c 128,-1,30
 667.865234375 190 667.865234375 190 700.186523438 330 c 0,31,32
 733.893554688 476 733.893554688 476 676.82421875 558 c 1,33,-1
 224.0078125 78 l 1,34,35
 276.463867188 28 276.463867188 28 370.463867188 28 c 0,28,29
EndSplineSet
Substitution2: "'c2sc' Capitals to Small Capitals lookup 11 subtable" oslash.sc
Substitution2: "'aalt' Access All Alternates lookup 0 subtable" oslash.sc
EndChar

StartChar: Ugrave
Encoding: 217 217 155
Width: 696
GlyphClass: 2
Flags: W
LayerCount: 2
Fore
SplineSet
509.703125 891 m 1,0,-1
 543.53515625 743 l 1,1,-1
 508.53515625 743 l 1,2,-1
 461.703125 891 l 1,3,-1
 509.703125 891 l 1,0,-1
753.373046875 660 m 1,4,-1
 656.177734375 239 l 2,5,6
 628.2421875 118 628.2421875 118 547.466796875 54 c 128,-1,7
 466.69140625 -10 466.69140625 -10 345.69140625 -10 c 128,-1,8
 224.69140625 -10 224.69140625 -10 173.466796875 54 c 128,-1,9
 122.2421875 118 122.2421875 118 150.177734375 239 c 2,10,-1
 247.373046875 660 l 1,11,-1
 288.373046875 660 l 1,12,-1
 193.024414062 247 l 2,13,14
 168.321289062 140 168.321289062 140 209.892578125 84 c 128,-1,15
 251.463867188 28 251.463867188 28 354.463867188 28 c 128,-1,16
 457.463867188 28 457.463867188 28 524.892578125 84 c 128,-1,17
 592.321289062 140 592.321289062 140 617.024414062 247 c 2,18,-1
 712.373046875 660 l 1,19,-1
 753.373046875 660 l 1,4,-1
EndSplineSet
Substitution2: "'c2sc' Capitals to Small Capitals lookup 11 subtable" ugrave.sc
Substitution2: "'aalt' Access All Alternates lookup 0 subtable" ugrave.sc
EndChar

StartChar: Uacute
Encoding: 218 218 156
Width: 696
GlyphClass: 2
Flags: W
LayerCount: 2
Fore
SplineSet
604.703125 891 m 1,0,-1
 652.703125 891 l 1,1,-1
 537.53515625 743 l 1,2,-1
 502.53515625 743 l 1,3,-1
 604.703125 891 l 1,0,-1
753.373046875 660 m 1,4,-1
 656.177734375 239 l 2,5,6
 628.2421875 118 628.2421875 118 547.466796875 54 c 128,-1,7
 466.69140625 -10 466.69140625 -10 345.69140625 -10 c 128,-1,8
 224.69140625 -10 224.69140625 -10 173.466796875 54 c 128,-1,9
 122.2421875 118 122.2421875 118 150.177734375 239 c 2,10,-1
 247.373046875 660 l 1,11,-1
 288.373046875 660 l 1,12,-1
 193.024414062 247 l 2,13,14
 168.321289062 140 168.321289062 140 209.892578125 84 c 128,-1,15
 251.463867188 28 251.463867188 28 354.463867188 28 c 128,-1,16
 457.463867188 28 457.463867188 28 524.892578125 84 c 128,-1,17
 592.321289062 140 592.321289062 140 617.024414062 247 c 2,18,-1
 712.373046875 660 l 1,19,-1
 753.373046875 660 l 1,4,-1
EndSplineSet
Substitution2: "'c2sc' Capitals to Small Capitals lookup 11 subtable" uacute.sc
Substitution2: "'aalt' Access All Alternates lookup 0 subtable" uacute.sc
EndChar

StartChar: Ucircumflex
Encoding: 219 219 157
Width: 696
GlyphClass: 2
Flags: W
LayerCount: 2
Fore
SplineSet
653.842773438 740 m 1,0,-1
 614.842773438 740 l 1,1,-1
 547.469726562 864 l 1,2,-1
 422.842773438 740 l 1,3,-1
 383.842773438 740 l 1,4,-1
 529.934570312 892 l 1,5,-1
 577.934570312 892 l 1,6,-1
 653.842773438 740 l 1,0,-1
753.373046875 660 m 1,7,-1
 656.177734375 239 l 2,8,9
 628.2421875 118 628.2421875 118 547.466796875 54 c 128,-1,10
 466.69140625 -10 466.69140625 -10 345.69140625 -10 c 128,-1,11
 224.69140625 -10 224.69140625 -10 173.466796875 54 c 128,-1,12
 122.2421875 118 122.2421875 118 150.177734375 239 c 2,13,-1
 247.373046875 660 l 1,14,-1
 288.373046875 660 l 1,15,-1
 193.024414062 247 l 2,16,17
 168.321289062 140 168.321289062 140 209.892578125 84 c 128,-1,18
 251.463867188 28 251.463867188 28 354.463867188 28 c 128,-1,19
 457.463867188 28 457.463867188 28 524.892578125 84 c 128,-1,20
 592.321289062 140 592.321289062 140 617.024414062 247 c 2,21,-1
 712.373046875 660 l 1,22,-1
 753.373046875 660 l 1,7,-1
EndSplineSet
Substitution2: "'c2sc' Capitals to Small Capitals lookup 11 subtable" ucircumflex.sc
Substitution2: "'aalt' Access All Alternates lookup 0 subtable" ucircumflex.sc
EndChar

StartChar: Udieresis
Encoding: 220 220 158
Width: 696
GlyphClass: 2
Flags: W
LayerCount: 2
Fore
SplineSet
443.004882812 823 m 0,0,1
 460.004882812 823 460.004882812 823 467.311523438 813.5 c 128,-1,2
 474.618164062 804 474.618164062 804 470.693359375 787 c 0,3,4
 466.999023438 771 466.999023438 771 454.805664062 761.5 c 128,-1,5
 442.61328125 752 442.61328125 752 426.61328125 752 c 128,-1,6
 410.61328125 752 410.61328125 752 403.305664062 761.5 c 128,-1,7
 395.999023438 771 395.999023438 771 399.693359375 787 c 128,-1,8
 403.38671875 803 403.38671875 803 415.196289062 813 c 128,-1,9
 427.004882812 823 427.004882812 823 443.004882812 823 c 0,0,1
631.004882812 823 m 0,10,11
 648.004882812 823 648.004882812 823 655.311523438 813.5 c 128,-1,12
 662.618164062 804 662.618164062 804 658.693359375 787 c 0,13,14
 654.999023438 771 654.999023438 771 642.805664062 761.5 c 128,-1,15
 630.61328125 752 630.61328125 752 614.61328125 752 c 128,-1,16
 598.61328125 752 598.61328125 752 591.305664062 761.5 c 128,-1,17
 583.999023438 771 583.999023438 771 587.693359375 787 c 128,-1,18
 591.38671875 803 591.38671875 803 603.196289062 813 c 128,-1,19
 615.004882812 823 615.004882812 823 631.004882812 823 c 0,10,11
753.373046875 660 m 1,20,-1
 656.177734375 239 l 2,21,22
 628.2421875 118 628.2421875 118 547.466796875 54 c 128,-1,23
 466.69140625 -10 466.69140625 -10 345.69140625 -10 c 128,-1,24
 224.69140625 -10 224.69140625 -10 173.466796875 54 c 128,-1,25
 122.2421875 118 122.2421875 118 150.177734375 239 c 2,26,-1
 247.373046875 660 l 1,27,-1
 288.373046875 660 l 1,28,-1
 193.024414062 247 l 2,29,30
 168.321289062 140 168.321289062 140 209.892578125 84 c 128,-1,31
 251.463867188 28 251.463867188 28 354.463867188 28 c 128,-1,32
 457.463867188 28 457.463867188 28 524.892578125 84 c 128,-1,33
 592.321289062 140 592.321289062 140 617.024414062 247 c 2,34,-1
 712.373046875 660 l 1,35,-1
 753.373046875 660 l 1,20,-1
EndSplineSet
Substitution2: "'titl' Titling lookup 41 subtable" Udieresis.titl
Substitution2: "'c2sc' Capitals to Small Capitals lookup 11 subtable" udieresis.sc
AlternateSubs2: "'aalt' Access All Alternates lookup 1 subtable" udieresis.sc Udieresis.titl
EndChar

StartChar: Yacute
Encoding: 221 221 159
Width: 535
GlyphClass: 2
Flags: W
LayerCount: 2
Fore
SplineSet
524.703125 891 m 1,0,-1
 572.703125 891 l 1,1,-1
 457.53515625 743 l 1,2,-1
 422.53515625 743 l 1,3,-1
 524.703125 891 l 1,0,-1
674.373046875 660 m 1,4,-1
 347.333007812 257 l 1,5,-1
 288 0 l 1,6,-1
 247 0 l 1,7,-1
 306.333007812 257 l 1,8,-1
 166.373046875 660 l 1,9,-1
 214.373046875 660 l 1,10,-1
 337.029296875 299 l 1,11,-1
 444.197265625 434 l 1,12,-1
 625.373046875 660 l 1,13,-1
 674.373046875 660 l 1,4,-1
EndSplineSet
Substitution2: "'c2sc' Capitals to Small Capitals lookup 11 subtable" yacute.sc
Substitution2: "'aalt' Access All Alternates lookup 0 subtable" yacute.sc
EndChar

StartChar: Thorn
Encoding: 222 222 160
Width: 590
GlyphClass: 2
Flags: W
LayerCount: 2
Fore
SplineSet
429.822265625 532 m 2,0,1
 667.822265625 532 667.822265625 532 623.264648438 339 c 128,-1,2
 578.70703125 146 578.70703125 146 340.70703125 146 c 2,3,-1
 177.70703125 146 l 1,4,-1
 144 0 l 1,5,-1
 103 0 l 1,6,-1
 255.373046875 660 l 1,7,-1
 296.373046875 660 l 1,8,-1
 266.822265625 532 l 1,9,-1
 429.822265625 532 l 2,0,1
358.479492188 184 m 2,10,11
 544.479492188 184 544.479492188 184 580.264648438 339 c 128,-1,12
 616.048828125 494 616.048828125 494 430.048828125 494 c 2,13,-1
 258.048828125 494 l 1,14,-1
 186.479492188 184 l 1,15,-1
 358.479492188 184 l 2,10,11
EndSplineSet
Substitution2: "'c2sc' Capitals to Small Capitals lookup 11 subtable" thorn.sc
Substitution2: "'aalt' Access All Alternates lookup 0 subtable" thorn.sc
EndChar

StartChar: germandbls
Encoding: 223 223 161
Width: 580
GlyphClass: 2
Flags: W
LayerCount: 2
Fore
SplineSet
431.19140625 382 m 1,0,1
 520.729492188 380 520.729492188 380 555.262695312 326 c 128,-1,2
 589.795898438 272 589.795898438 272 570.403320312 188 c 0,3,4
 550.317382812 101 550.317382812 101 483.504882812 45.5 c 128,-1,5
 416.69140625 -10 416.69140625 -10 324.69140625 -10 c 0,6,7
 253.69140625 -10 253.69140625 -10 228.92578125 30 c 1,8,-1
 251.083007812 61 l 1,9,10
 277.002929688 26 277.002929688 26 335.002929688 26 c 0,11,12
 408.002929688 26 408.002929688 26 461.006835938 71.5 c 128,-1,13
 514.01171875 117 514.01171875 117 531.095703125 191 c 0,14,15
 550.48828125 275 550.48828125 275 510.416015625 318 c 128,-1,16
 470.34375 361 470.34375 361 382.34375 361 c 2,17,-1
 340.34375 361 l 1,18,-1
 349.116210938 399 l 1,19,-1
 391.116210938 399 l 2,20,21
 463.116210938 399 463.116210938 399 515.928710938 441.5 c 128,-1,22
 568.740234375 484 568.740234375 484 585.362304688 556 c 0,23,24
 601.061523438 624 601.061523438 624 568.98828125 660.5 c 128,-1,25
 536.915039062 697 536.915039062 697 463.915039062 697 c 0,26,27
 289.915039062 697 289.915039062 697 242.818359375 493 c 2,28,-1
 129 0 l 1,29,-1
 88 0 l 1,30,-1
 205.51171875 509 l 2,31,32
 257.688476562 735 257.688476562 735 475.688476562 735 c 0,33,34
 568.688476562 735 568.688476562 735 607.029296875 684.5 c 128,-1,35
 645.370117188 634 645.370117188 634 627.362304688 556 c 0,36,37
 610.970703125 485 610.970703125 485 556.927734375 435 c 128,-1,38
 502.883789062 385 502.883789062 385 431.653320312 384 c 1,39,-1
 431.19140625 382 l 1,0,1
EndSplineSet
Substitution2: "Single Substitution lookup 57 subtable" germandbls.calt
Substitution2: "'smcp' Lowercase to Small Capitals lookup 12 subtable" germandbls.sc
AlternateSubs2: "'aalt' Access All Alternates lookup 1 subtable" germandbls.sc germandbls.calt
EndChar

StartChar: agrave
Encoding: 224 224 162
Width: 536
GlyphClass: 2
Flags: W
LayerCount: 2
Fore
SplineSet
412.595703125 583 m 1,0,-1
 378.595703125 583 l 1,1,-1
 322.380859375 738 l 1,2,-1
 367.380859375 738 l 1,3,-1
 412.595703125 583 l 1,0,-1
493.771484375 25 m 0,4,5
 517.771484375 25 517.771484375 25 534.618164062 33 c 1,6,-1
 523.76953125 -1 l 1,7,8
 501.69140625 -10 501.69140625 -10 476.69140625 -10 c 0,9,10
 400.69140625 -10 400.69140625 -10 417.469726562 80 c 1,11,12
 384.541992188 37 384.541992188 37 326.6171875 13.5 c 128,-1,13
 268.69140625 -10 268.69140625 -10 209.69140625 -10 c 0,14,15
 135.69140625 -10 135.69140625 -10 99.1943359375 22.5 c 128,-1,16
 62.697265625 55 62.697265625 55 76.3193359375 114 c 128,-1,17
 89.9404296875 173 89.9404296875 173 144.3671875 209.5 c 128,-1,18
 198.793945312 246 198.793945312 246 299.94921875 264 c 2,19,-1
 465.413085938 292 l 1,20,-1
 476.725585938 341 l 2,21,22
 491.040039062 403 491.040039062 403 462.235351562 438.5 c 128,-1,23
 433.431640625 474 433.431640625 474 365.431640625 474 c 0,24,25
 242.431640625 474 242.431640625 474 175.266601562 365 c 1,26,-1
 149.577148438 388 l 1,27,28
 222.743164062 510 222.743164062 510 373.743164062 510 c 0,29,30
 459.743164062 510 459.743164062 510 498.430664062 467.5 c 128,-1,31
 537.119140625 425 537.119140625 425 518.649414062 345 c 2,32,-1
 458.162109375 83 l 2,33,34
 444.771484375 25 444.771484375 25 493.771484375 25 c 0,4,5
222.002929688 26 m 0,35,36
 290.002929688 26 290.002929688 26 355.083007812 61 c 128,-1,37
 420.163085938 96 420.163085938 96 434.477539062 158 c 2,38,-1
 457.564453125 258 l 1,39,-1
 307.330078125 231 l 2,40,41
 218.63671875 215 218.63671875 215 173.671875 187 c 128,-1,42
 128.708007812 159 128.708007812 159 118.319335938 114 c 0,43,44
 108.622070312 72 108.622070312 72 136.3125 49 c 128,-1,45
 164.002929688 26 164.002929688 26 222.002929688 26 c 0,35,36
EndSplineSet
Substitution2: "'smcp' Lowercase to Small Capitals lookup 12 subtable" agrave.sc
Substitution2: "'aalt' Access All Alternates lookup 0 subtable" agrave.sc
EndChar

